<?xml version="1.0" encoding="utf-8"?>
<!-- Generator: Adobe Illustrator 26.3.1, SVG Export Plug-In . SVG Version: 6.00 Build 0)  -->
<svg version="1.1" id="Layer_1" xmlns="http://www.w3.org/2000/svg" xmlns:xlink="http://www.w3.org/1999/xlink" x="0px" y="0px"
	 viewBox="0 0 306.2 139.5" style="enable-background:new 0 0 306.2 139.5;" xml:space="preserve">
<style type="text/css">
	.st0{fill:#E5E1CF;}
	.st1{fill:#A09D92;}
	.st2{fill:#FFFFFD;}
	.st3{fill:#1E0800;}
	.st4{fill:#68462F;}
	.st5{fill:#936547;}
	.st6{fill:#D69570;}
	.st7{fill:#7A776E;}
	.st8{fill:#332114;}
	.st9{fill:#D74129;}
	.st10{fill:#911C10;}
	.st11{fill:#B7B7B3;}
	.st12{fill:#FC6656;}
	.st13{fill:#231209;}
</style>
<g>
	<path class="st0" d="M70.6,1.8L70.6,1.8c39,0,70.6,30.4,70.6,67.9v0c0,37.5-31.6,67.9-70.6,67.9h0c-39,0-70.6-30.4-70.6-67.9v0
		C0,32.2,31.6,1.8,70.6,1.8z"/>
	<g>
		<path class="st0" d="M97.6,94.5c-6.4-5.6-15.8-11-26.4-15.2c-10.6-4.2-21.1-6.7-29.6-7c-0.6,0-1.2,0-1.8,0
			c-7.1,0-11.8,1.7-13.1,4.8c-1.3,3.4,1.4,8.3,7.5,13.7c6.4,5.6,15.8,11,26.4,15.2c10.6,4.2,21.1,6.7,29.6,7
			c8.1,0.3,13.5-1.5,14.8-4.8c0.2-0.6,0.3-1.2,0.3-1.8C105.4,103.2,102.7,99,97.6,94.5z"/>
		<path class="st1" d="M93.2,95.4c-5.4-4.7-13.4-9.3-22.3-12.8c-9-3.6-17.8-5.7-25-5.9c-0.5,0-1,0-1.5,0c-6,0-10,1.5-11,4.1
			c-1.1,2.8,1.2,7.1,6.4,11.6C45.1,97,53,101.5,62,105.1c9,3.6,17.8,5.7,25,5.9c6.9,0.3,11.4-1.2,12.6-4.1c0.2-0.5,0.3-1,0.3-1.5
			C99.8,102.7,97.5,99.1,93.2,95.4z"/>
		<path class="st2" d="M113.9,95.1c-9-9-22.5-17.4-37.9-23.5c-14.5-5.8-29.1-8.9-41.4-8.9c-0.8,0-1.5,0-2.3,0
			C26.2,63,21,64,17.1,65.7c-4,1.8-6.6,4.3-7.8,7.4c-1.2,3.1-1,6.7,0.7,10.7c1.7,4,4.7,8.3,9,12.6c9,9,22.5,17.4,37.9,23.5
			c15.4,6.1,31,9.3,43.7,8.8c6.1-0.2,11.3-1.2,15.2-3c4-1.8,6.6-4.3,7.8-7.4c1.2-3.1,1-6.7-0.7-10.7
			C121.3,103.7,118.2,99.4,113.9,95.1z M25.3,76.6c1.6-4.1,7.5-6.2,16.4-5.8c8.7,0.3,19.4,2.8,30.1,7.1c10.7,4.2,20.3,9.7,26.8,15.5
			c6.8,5.9,9.6,11.4,8,15.5c-0.8,1.9-2.4,3.4-4.9,4.4c-2.5,1-5.7,1.5-9.7,1.5c-0.6,0-1.2,0-1.9,0c-8.7-0.3-19.4-2.9-30.1-7.1
			c-10.7-4.2-20.3-9.7-26.8-15.5C26.5,86.2,23.7,80.7,25.3,76.6z M120.6,119.4c0,0.1-0.1,0.3-0.1,0.4c-0.1,0.2-0.1,0.4-0.2,0.5
			c-0.4,0.8-1.2,2-2.6,3s-3.3,2.1-5.6,2.8c-2.3,0.7-5.1,1.2-8.1,1.4c-6.1,0.4-13.4-0.1-21.2-1.6c-7.9-1.5-16.4-4-24.9-7.4
			c-8.6-3.4-16.5-7.4-23.3-11.7c-6.8-4.3-12.5-8.8-16.6-13.3c-2.1-2.3-3.7-4.5-4.9-6.6c-1.2-2.1-1.9-4.2-2.2-5.9
			c-0.3-1.7,0-3.1,0.2-4c0.1-0.2,0.1-0.4,0.2-0.6c0.1-0.2,0.1-0.3,0.2-0.4c0.1-0.2,0.2-0.3,0.2-0.3c0.1,0,0,0.5-0.2,1.3
			c-0.1,0.9-0.2,2.1,0.2,3.7c0.4,1.6,1.2,3.4,2.4,5.4c1.2,2,2.9,4.1,5,6.2c4.1,4.2,9.8,8.6,16.6,12.7c6.7,4.1,14.5,8,23,11.3
			c8.5,3.3,16.8,5.9,24.5,7.5c7.7,1.6,14.8,2.3,20.7,2.1c3-0.1,5.6-0.5,7.9-1.1c2.3-0.6,4.1-1.4,5.4-2.3c1.3-0.9,2.2-1.9,2.7-2.6
			c0.5-0.7,0.7-1.1,0.8-1.1C120.7,119.1,120.6,119.2,120.6,119.4z"/>
		<path class="st1" d="M119.4,121.7c-0.4,0.6-1,1.2-1.7,1.7c-1.4,1.1-3.3,2.1-5.6,2.8c-2.3,0.7-5.1,1.2-8.1,1.4
			c-6.1,0.4-13.4-0.1-21.2-1.6c-7.9-1.5-16.4-4-24.9-7.4c-8.6-3.4-16.5-7.4-23.3-11.7c-6.8-4.3-12.5-8.8-16.6-13.3
			c-2.1-2.3-3.7-4.5-4.9-6.6c-0.9-1.6-1.5-3.1-1.9-4.5c-0.2-0.3-0.3-0.7-0.5-1c-1.2-3-1.7-5.7-1.3-8.2c-1.2,3.1-1,6.7,0.7,10.7
			c1.7,4,4.7,8.3,9,12.6c9,9,22.5,17.4,37.9,23.5c15.4,6.1,31,9.3,43.7,8.8c6.1-0.2,11.3-1.2,15.2-3c4-1.8,6.6-4.3,7.8-7.4
			c0.3-0.8,0.5-1.7,0.7-2.5c0,0,0,0,0,0C123.4,118.2,121.7,120.1,119.4,121.7z"/>
		<path class="st1" d="M17.8,93.6c-2.1-2.3-3.7-4.5-4.9-6.6c-0.9-1.6-1.5-3.1-1.9-4.5c-0.2-0.3-0.3-0.7-0.5-1
			c-1.2-3-1.7-5.7-1.3-8.2c-1.2,3.1-1,6.7,0.7,10.7c1.7,4,4.7,8.3,9,12.6c9,9,22.4,17.3,37.7,23.4c0.2-0.5,0.3-1,0.4-1.5
			c-8.3-3.3-16-7.3-22.7-11.4C27.7,102.7,22,98.1,17.8,93.6z"/>
		<path class="st3" d="M76.9,69.3c-15.7-6.2-31.6-9.4-44.7-9C18.8,60.7,9.8,65,6.9,72.2c-2.9,7.3,0.8,16.5,10.3,26
			c9.3,9.3,23,17.8,38.7,24c14.8,5.9,29.7,9,42.4,9c0.8,0,1.6,0,2.4,0c13.4-0.4,22.4-4.7,25.3-11.9c2.9-7.3-0.8-16.5-10.3-26
			C106.4,84.1,92.7,75.5,76.9,69.3z M123.6,118.5c-1.2,3.1-3.9,5.6-7.8,7.4c-4,1.8-9.1,2.8-15.2,3c-12.7,0.4-28.3-2.7-43.7-8.8
			c-15.4-6.1-28.9-14.4-37.9-23.5c-4.3-4.3-7.4-8.6-9-12.6c-1.7-4-1.9-7.6-0.7-10.7c1.2-3.1,3.9-5.6,7.8-7.4c4-1.8,9.1-2.8,15.2-3
			c0.8,0,1.5,0,2.3,0c12.3,0,26.9,3.1,41.4,8.9c15.4,6.1,28.9,14.5,37.9,23.5c4.3,4.3,7.4,8.6,9,12.6
			C124.6,111.7,124.8,115.3,123.6,118.5z"/>
		<path class="st1" d="M98.7,93.3c-6.6-5.7-16.1-11.2-26.8-15.5c-10.7-4.2-21.5-6.8-30.1-7.1c-9-0.3-14.8,1.7-16.4,5.8
			c-1.6,4.1,1.2,9.6,8,15.5c6.5,5.7,16.1,11.2,26.8,15.5c10.7,4.2,21.5,6.8,30.1,7.1c0.6,0,1.3,0,1.9,0c4,0,7.2-0.5,9.7-1.5
			c2.5-1,4.1-2.5,4.9-4.4C108.3,104.7,105.4,99.2,98.7,93.3z M105.1,108.2c-1.3,3.4-6.7,5.1-14.8,4.8c-8.5-0.3-19-2.8-29.6-7
			c-10.6-4.2-19.9-9.6-26.4-15.2c-6.1-5.3-8.9-10.3-7.5-13.7c1.2-3.1,6-4.8,13.1-4.8c0.6,0,1.2,0,1.8,0c8.5,0.3,19,2.8,29.6,7
			c10.6,4.2,19.9,9.6,26.4,15.2c5.1,4.4,7.8,8.6,7.8,11.9C105.4,107,105.3,107.6,105.1,108.2z"/>
		<path class="st3" d="M119.8,120.2c-0.5,0.7-1.3,1.7-2.7,2.6c-1.3,0.9-3.2,1.7-5.4,2.3c-2.3,0.6-4.9,0.9-7.9,1.1
			c-5.9,0.2-13-0.5-20.7-2.1s-16-4.1-24.5-7.5c-8.5-3.4-16.3-7.2-23-11.3c-6.7-4.1-12.4-8.4-16.6-12.7c-2.1-2.1-3.8-4.2-5-6.2
			c-1.2-2-2-3.8-2.4-5.4c-0.4-1.6-0.3-2.9-0.2-3.7c0.1-0.9,0.3-1.3,0.2-1.3c0,0-0.1,0.1-0.2,0.3c-0.1,0.1-0.1,0.2-0.2,0.4
			c-0.1,0.2-0.1,0.3-0.2,0.6c-0.3,0.9-0.5,2.3-0.2,4c0.3,1.7,1,3.8,2.2,5.9c1.2,2.1,2.9,4.4,4.9,6.6c4.1,4.5,9.8,9.1,16.6,13.3
			c6.8,4.3,14.7,8.3,23.3,11.7c8.6,3.4,17.1,5.9,24.9,7.4s15.1,2.1,21.2,1.6c3-0.2,5.8-0.7,8.1-1.4c2.3-0.7,4.2-1.7,5.6-2.8
			c1.4-1.1,2.2-2.2,2.6-3c0.1-0.2,0.2-0.4,0.2-0.5c0.1-0.2,0.1-0.3,0.1-0.4c0.1-0.2,0.1-0.3,0-0.4
			C120.5,119,120.3,119.4,119.8,120.2z"/>
		<path class="st4" d="M128.6,47.1c-0.8-1.8-2.5-3.3-5-4.6l-0.2-0.1c-2.4-1.3-4.5-2.4-7.1-2.3c-1.4,0-2.3,0.3-2.9,0.8
			c0.6-0.1,1.5,0,2.5,0.5c0.5,0.3,1,0.6,1.5,1.1c0.2,0.3,0.4,0.5,0.6,0.8c0.2,0.3,0.3,0.6,0.5,0.9c0,0,0,0.1,0,0.1
			c0.2-0.5,0.4-0.9,0.5-0.9c0.1,0,0.1,0.1,0.1,0.4c0,0.2,0,0.5-0.2,0.9c-0.1,0.1-0.1,0.3-0.2,0.4c0.1,0.4,0.3,0.8,0.5,1.1
			c0,0,0,0.1,0,0.1c0.6,0.5,1.2,1,2,1.4c0.2,0.1,0.5,0.2,0.7,0.3c0,0,0,0,0,0c0.1-0.2,0.2-0.4,0.3-0.7c0.1-0.3,0.1-0.5,0.1-0.7
			c0-0.2,0.1-0.3,0.1-0.4s0.2,0.1,0.3,0.3c0.1,0.2,0.1,0.6,0,0.9c-0.1,0.3-0.3,0.5-0.4,0.7c0.6,0.3,1.2,0.5,1.7,0.9
			c0.5,0,1.1,0,1.6,0c0.3,0,0.7,0.1,0.9,0.2c0.1,0,0.1,0.1,0.2,0.1c0.1-0.1,0.1-0.1,0.2-0.2c0.1-0.1,0.2-0.3,0.3-0.4
			c0.1-0.1,0.1-0.2,0.2-0.2s0.2,0.1,0.2,0.3c0,0.2,0,0.4-0.2,0.6c0,0.1-0.1,0.1-0.1,0.1c0,0,0,0,0,0c0.5,0.3,0.8,0.6,1.1,0.9
			c0.1,0.2,0.3,0.3,0.4,0.5c0.1-0.5,0.1-0.9,0.1-1.4C129.1,48.5,128.9,47.7,128.6,47.1z"/>
		<path class="st4" d="M126.4,50c-0.1,0-0.1,0-0.2,0c0.1,0.1,0.1,0.3,0.2,0.5c0.1,0.3,0.1,0.6,0,0.8s-0.1,0.3-0.2,0.3
			c-0.2,0-0.3-0.5-0.4-1c-0.1-0.3-0.1-0.5-0.2-0.7c-0.4,0-0.8,0-1.2,0.1c0,0,0,0.1,0,0.1c0,0.2,0.1,0.5,0,0.8
			c-0.1,0.3-0.2,0.5-0.3,0.7c-0.1,0.1-0.3,0.2-0.3,0.2c-0.1-0.1,0-0.5,0.1-1c0.1-0.3,0.1-0.5,0.2-0.7c-0.1,0-0.1,0-0.1,0
			c-0.3,0-0.7,0-1.1,0c-0.4,0-0.8-0.1-1.2-0.3c-0.1,0-0.2-0.1-0.3-0.1c0,0.2,0,0.4,0,0.5c0,0.1,0,0.2-0.1,0.3s-0.1,0.2-0.1,0.3
			c-0.1,0.3-0.3,0.4-0.4,0.4c-0.1,0,0-0.2,0-0.5c0-0.1,0-0.1,0-0.2c0-0.1,0-0.2,0-0.3c0-0.2,0-0.4-0.1-0.5c0-0.1,0-0.2-0.1-0.3
			c-0.4-0.2-0.8-0.5-1.2-0.8c-0.3-0.3-0.6-0.6-0.8-1c-0.2-0.4-0.4-0.7-0.6-1.1c-0.3-0.7-0.5-1.4-0.8-2c-0.1-0.3-0.2-0.6-0.4-0.8
			c-0.1-0.3-0.3-0.5-0.4-0.7c-0.1-0.1-0.2-0.3-0.3-0.4c0,0.1-0.1,0.1-0.2,0.2c-0.3,0.3-0.5,0.4-0.7,0.3c-0.1-0.1,0-0.4,0.2-0.7
			c0.1-0.1,0.1-0.1,0.2-0.2c-0.1-0.1-0.2-0.2-0.4-0.3c-0.8-0.5-1.5-0.7-2-0.8c-0.2,0-0.3,0-0.5-0.1c-0.5,0.6-0.7,1.4-0.8,2.2
			c-0.2,2,1.1,4,2.3,5.2c1.7,1.9,3.9,3.4,6.3,4.5c1.4,0.6,2.7,0.9,3.8,0.9c1.3,0,2.5-0.4,3.3-1.1c0.5-0.4,0.8-1,1.1-1.6
			c-0.4-0.3-1-0.8-1.8-1.2C126.9,50.1,126.7,50.1,126.4,50z"/>
		<path class="st5" d="M115.6,48.4c0.3,0,0.5-0.4,0.4-0.7s-0.2-0.6-0.4-0.8c-0.2-0.3-0.5-0.6-0.8-0.5c-0.3,0-0.5,0.4-0.4,0.6
			c0,0,0.1,0,0.1,0.1c0,0-0.1,0-0.1-0.1c-1.5-1.1-2.3-3.2-1.9-5c-0.2,0.5-0.3,1-0.4,1.6c-0.2,2,1.1,4,2.3,5.2
			c1.7,1.9,3.9,3.4,6.3,4.5c1.4,0.6,2.7,0.9,3.8,0.9c0.9,0,1.7-0.2,2.5-0.5C122.6,53.7,118.2,51.8,115.6,48.4z"/>
		<path class="st3" d="M124.4,40.9L124.4,40.9l-0.2-0.1c-2.5-1.3-4.9-2.6-7.9-2.5c-3.5,0.1-5.5,1.8-5.9,5c0,0.3,0,0.6,0,0.9
			c0.1,1.9,1,3.8,2.8,5.7c1.9,2.1,4.3,3.8,6.9,4.9c1.6,0.7,3.1,1.1,4.5,1.1c1.8,0,3.4-0.5,4.5-1.6c2.3-2.1,2.3-5.6,1.2-8
			C129.2,44.2,127.2,42.4,124.4,40.9z M127.8,53c-0.8,0.7-2,1.1-3.3,1.1c-1.1,0-2.4-0.3-3.8-0.9c-2.4-1-4.5-2.6-6.3-4.5
			c-1.2-1.3-2.5-3.2-2.3-5.2c0.1-0.8,0.3-1.6,0.8-2.2c0.1,0,0.3,0,0.5,0.1c0.5,0.1,1.3,0.3,2,0.8c0.1,0.1,0.2,0.2,0.4,0.3
			c-0.1,0-0.1,0.1-0.2,0.2c-0.3,0.3-0.4,0.6-0.2,0.7c0.1,0.1,0.4,0,0.7-0.3c0.1-0.1,0.1-0.1,0.2-0.2c0.1,0.1,0.2,0.2,0.3,0.4
			c0.1,0.2,0.3,0.4,0.4,0.7c0.1,0.3,0.3,0.5,0.4,0.8c0.2,0.6,0.4,1.2,0.8,2c0.1,0.4,0.3,0.7,0.6,1.1c0.2,0.4,0.5,0.7,0.8,1
			c0.4,0.3,0.8,0.6,1.2,0.8c0,0.1,0.1,0.2,0.1,0.3c0,0.2,0.1,0.4,0.1,0.5c0,0.1,0,0.2,0,0.3c0,0.1,0,0.1,0,0.2c0,0.3-0.1,0.5,0,0.5
			c0.1,0,0.3-0.1,0.4-0.4c0-0.1,0.1-0.2,0.1-0.3c0-0.1,0-0.2,0.1-0.3c0-0.2,0-0.3,0-0.5c0.1,0,0.2,0.1,0.3,0.1
			c0.4,0.1,0.8,0.2,1.2,0.3c0.4,0,0.8,0,1.1,0c0.1,0,0.1,0,0.1,0c-0.1,0.2-0.1,0.4-0.2,0.7c-0.1,0.5-0.2,0.9-0.1,1
			c0.1,0,0.2,0,0.3-0.2c0.1-0.1,0.3-0.4,0.3-0.7s0.1-0.6,0-0.8c0,0,0-0.1,0-0.1c0.5,0,0.9-0.1,1.2-0.1c0,0.2,0.1,0.4,0.2,0.7
			c0.1,0.5,0.3,1,0.4,1c0.1,0,0.2-0.1,0.2-0.3c0-0.2,0-0.5,0-0.8c0-0.2-0.1-0.3-0.2-0.5c0.1,0,0.1,0,0.2,0c0.2,0.1,0.4,0.1,0.7,0.2
			c0.8,0.3,1.4,0.8,1.8,1.2C128.7,52,128.3,52.5,127.8,53z M129.1,50.7c-0.1-0.1-0.3-0.3-0.4-0.5c-0.3-0.3-0.7-0.6-1.1-0.9
			c0,0,0,0,0,0c0,0,0.1-0.1,0.1-0.1c0.1-0.2,0.2-0.5,0.2-0.6s-0.1-0.3-0.2-0.3s-0.1,0.1-0.2,0.2c-0.1,0.1-0.1,0.2-0.3,0.4
			c-0.1,0.1-0.1,0.2-0.2,0.2c-0.1,0-0.1-0.1-0.2-0.1c-0.3-0.1-0.6-0.2-0.9-0.2c-0.5,0-1.1,0-1.6,0c-0.5-0.4-1.1-0.6-1.7-0.9
			c0.2-0.1,0.3-0.4,0.4-0.7c0.1-0.4,0.1-0.7,0-0.9c-0.1-0.2-0.2-0.3-0.3-0.3c-0.1,0-0.1,0.2-0.1,0.4c0,0.2-0.1,0.4-0.1,0.7
			c-0.1,0.3-0.2,0.5-0.3,0.7c0,0,0,0,0,0c-0.3-0.1-0.5-0.2-0.7-0.3c-0.7-0.4-1.4-0.8-2-1.4c0,0,0-0.1,0-0.1
			c-0.2-0.4-0.3-0.7-0.5-1.1c0.1-0.1,0.2-0.2,0.2-0.4c0.1-0.3,0.2-0.6,0.2-0.9c0-0.2-0.1-0.4-0.1-0.4c-0.2,0-0.3,0.4-0.5,0.9
			c0,0,0-0.1,0-0.1c-0.1-0.3-0.3-0.6-0.5-0.9c-0.2-0.3-0.4-0.6-0.6-0.8c-0.4-0.5-1-0.8-1.5-1.1c-1-0.5-1.9-0.5-2.5-0.5
			c0.6-0.4,1.5-0.7,2.9-0.8c2.5-0.1,4.6,1,7.1,2.3l0.2,0.1c2.5,1.3,4.2,2.9,5,4.6c0.3,0.7,0.5,1.5,0.6,2.3
			C129.2,49.8,129.1,50.3,129.1,50.7z"/>
		<path class="st5" d="M117.5,48.3C117.5,48.3,117.5,48.3,117.5,48.3c0-0.1-0.1-0.1-0.1-0.2c0,0-0.1-0.1-0.2-0.1H117
			c-0.1,0-0.1,0-0.2,0c-0.1,0-0.1,0.1-0.1,0.1s-0.1,0.1-0.1,0.1c0,0.1,0,0.1,0,0.2l0,0.1c0,0.1,0,0.1,0.1,0.1c0,0,0.1,0.1,0.1,0.1
			c0.1,0,0.2,0.1,0.4,0c0.1,0,0.1,0,0.1-0.1l0,0c0,0,0.1-0.1,0.1-0.1c0-0.1,0.1-0.1,0.1-0.2C117.5,48.5,117.5,48.4,117.5,48.3
			L117.5,48.3z"/>
		<path class="st5" d="M123.6,43.7c0-0.1,0-0.1-0.1-0.2c0,0-0.1-0.1-0.1-0.1c0,0,0,0-0.1,0h0c-0.1,0-0.3,0-0.3,0.1
			c-0.1,0.1-0.1,0.1-0.2,0.3s0,0.2,0.1,0.3c0,0,0.1,0.1,0.1,0.1c0.1,0,0.1,0,0.2,0c0.1,0,0.3-0.1,0.3-0.3l0,0l0,0c0,0,0,0,0,0
			C123.6,43.9,123.7,43.8,123.6,43.7L123.6,43.7z"/>
		<path class="st4" d="M46.3,38.7c-0.8-1.8-2.5-3.3-5-4.6L41.1,34c-2.4-1.3-4.5-2.4-7.1-2.3c-1.4,0-2.3,0.3-2.9,0.8
			c0.6-0.1,1.5,0,2.5,0.5c0.5,0.3,1,0.6,1.5,1.1c0.2,0.3,0.4,0.5,0.6,0.8s0.3,0.6,0.5,0.9c0,0,0,0.1,0,0.1c0.2-0.5,0.4-0.9,0.5-0.9
			c0.1,0,0.1,0.1,0.1,0.4s0,0.5-0.2,0.9c-0.1,0.1-0.1,0.3-0.2,0.4c0.1,0.4,0.3,0.8,0.5,1.1c0,0,0,0.1,0,0.1c0.6,0.5,1.2,1,2,1.4
			c0.2,0.1,0.5,0.2,0.7,0.3c0,0,0,0,0,0c0.1-0.2,0.2-0.4,0.3-0.7c0.1-0.3,0.1-0.5,0.1-0.7c0-0.2,0.1-0.3,0.1-0.4
			c0.1,0,0.2,0.1,0.3,0.3c0.1,0.2,0.1,0.6,0,0.9c-0.1,0.3-0.3,0.5-0.4,0.7c0.6,0.3,1.2,0.5,1.7,0.9c0.5,0,1.1,0,1.6,0
			c0.3,0,0.7,0.1,0.9,0.2c0.1,0,0.1,0.1,0.2,0.1c0.1-0.1,0.1-0.1,0.2-0.2c0.1-0.1,0.2-0.3,0.3-0.4c0.1-0.1,0.1-0.2,0.2-0.2
			s0.2,0.1,0.2,0.3c0,0.2,0,0.4-0.2,0.6c0,0.1-0.1,0.1-0.1,0.1c0,0,0,0,0,0c0.5,0.3,0.8,0.6,1.1,0.9c0.1,0.2,0.3,0.3,0.4,0.5
			c0.1-0.5,0.1-0.9,0.1-1.4C46.8,40.1,46.6,39.4,46.3,38.7z"/>
		<path class="st4" d="M44.1,41.6c-0.1,0-0.1,0-0.2,0c0.1,0.1,0.1,0.3,0.2,0.5c0.1,0.3,0.1,0.6,0,0.8c0,0.2-0.1,0.3-0.2,0.3
			c-0.2,0-0.3-0.5-0.4-1c-0.1-0.3-0.1-0.5-0.2-0.7c-0.4,0-0.8,0-1.2,0.1c0,0,0,0.1,0,0.1c0,0.2,0.1,0.5,0,0.8
			c-0.1,0.3-0.2,0.5-0.3,0.7c-0.1,0.1-0.3,0.2-0.3,0.2c-0.1-0.1,0-0.5,0.1-1c0.1-0.3,0.1-0.5,0.2-0.7c-0.1,0-0.1,0-0.1,0
			c-0.3,0-0.7,0-1.1,0c-0.4,0-0.8-0.1-1.2-0.3c-0.1,0-0.2-0.1-0.3-0.1c0,0.2,0,0.4,0,0.5c0,0.1,0,0.2-0.1,0.3s-0.1,0.2-0.1,0.3
			c-0.1,0.3-0.3,0.4-0.4,0.4c-0.1,0,0-0.2,0-0.5c0-0.1,0-0.1,0-0.2c0-0.1,0-0.2,0-0.3c0-0.2,0-0.4-0.1-0.5c0-0.1,0-0.2-0.1-0.3
			c-0.4-0.2-0.8-0.5-1.2-0.8c-0.3-0.3-0.6-0.6-0.8-1c-0.2-0.4-0.4-0.7-0.6-1.1c-0.3-0.7-0.5-1.4-0.8-2c-0.1-0.3-0.2-0.6-0.4-0.8
			c-0.1-0.3-0.3-0.5-0.4-0.7c-0.1-0.1-0.2-0.3-0.3-0.4c0,0.1-0.1,0.1-0.2,0.2c-0.3,0.3-0.5,0.4-0.7,0.3c-0.1-0.1,0-0.4,0.2-0.7
			c0.1-0.1,0.1-0.1,0.2-0.2c-0.1-0.1-0.2-0.2-0.4-0.3c-0.8-0.5-1.5-0.7-2-0.8c-0.2,0-0.3,0-0.5-0.1c-0.5,0.6-0.7,1.4-0.8,2.2
			c-0.2,2,1.1,4,2.3,5.2c1.7,1.9,3.9,3.4,6.3,4.5c1.4,0.6,2.7,0.9,3.8,0.9c1.3,0,2.5-0.4,3.3-1.1c0.5-0.4,0.8-1,1.1-1.6
			c-0.4-0.3-1-0.8-1.8-1.2C44.6,41.8,44.4,41.7,44.1,41.6z"/>
		<path class="st5" d="M33.3,40c0.3,0,0.5-0.4,0.4-0.7s-0.2-0.6-0.4-0.8c-0.2-0.3-0.5-0.6-0.8-0.5c-0.3,0-0.5,0.4-0.4,0.6
			c0,0,0.1,0,0.1,0.1c0,0-0.1,0-0.1-0.1c-1.5-1.1-2.3-3.2-1.9-5c-0.2,0.5-0.3,1-0.4,1.6c-0.2,2,1.1,4,2.3,5.2
			c1.7,1.9,3.9,3.4,6.3,4.5c1.4,0.6,2.7,0.9,3.8,0.9c0.9,0,1.7-0.2,2.5-0.5C40.3,45.4,35.9,43.4,33.3,40z"/>
		<path class="st3" d="M42.1,32.5L42.1,32.5l-0.2-0.1c-2.5-1.3-4.9-2.6-7.9-2.5c-3.5,0.1-5.5,1.8-5.9,5c0,0.3,0,0.6,0,0.9
			c0.1,1.9,1,3.8,2.8,5.7c1.9,2.1,4.3,3.8,6.9,4.9c1.6,0.7,3.1,1.1,4.5,1.1c1.8,0,3.4-0.5,4.5-1.6c2.3-2.1,2.3-5.6,1.2-8
			C46.9,35.8,44.9,34,42.1,32.5z M45.5,44.6c-0.8,0.7-2,1.1-3.3,1.1c-1.1,0-2.4-0.3-3.8-0.9c-2.4-1-4.5-2.6-6.3-4.5
			c-1.2-1.3-2.5-3.2-2.3-5.2c0.1-0.8,0.3-1.6,0.8-2.2c0.1,0,0.3,0,0.5,0.1c0.5,0.1,1.3,0.3,2,0.8c0.1,0.1,0.2,0.2,0.4,0.3
			c-0.1,0-0.1,0.1-0.2,0.2c-0.3,0.3-0.4,0.6-0.2,0.7c0.1,0.1,0.4,0,0.7-0.3c0.1-0.1,0.1-0.1,0.2-0.2c0.1,0.1,0.2,0.2,0.3,0.4
			c0.1,0.2,0.3,0.4,0.4,0.7c0.1,0.3,0.3,0.5,0.4,0.8c0.2,0.6,0.4,1.2,0.8,2c0.1,0.4,0.3,0.7,0.6,1.1c0.2,0.4,0.5,0.7,0.8,1
			c0.4,0.3,0.8,0.6,1.2,0.8c0,0.1,0.1,0.2,0.1,0.3c0,0.2,0.1,0.4,0.1,0.5c0,0.1,0,0.2,0,0.3s0,0.1,0,0.2c0,0.3-0.1,0.5,0,0.5
			c0.1,0,0.3-0.1,0.4-0.4c0-0.1,0.1-0.2,0.1-0.3c0-0.1,0-0.2,0.1-0.3c0-0.2,0-0.3,0-0.5c0.1,0,0.2,0.1,0.3,0.1
			c0.4,0.1,0.8,0.2,1.2,0.3c0.4,0,0.8,0,1.1,0c0.1,0,0.1,0,0.1,0c-0.1,0.2-0.1,0.4-0.2,0.7c-0.1,0.5-0.2,0.9-0.1,1
			c0.1,0,0.2,0,0.3-0.2s0.3-0.4,0.3-0.7c0.1-0.3,0.1-0.6,0-0.8c0,0,0-0.1,0-0.1c0.5,0,0.9-0.1,1.2-0.1c0,0.2,0.1,0.4,0.2,0.7
			c0.1,0.5,0.3,1,0.4,1c0.1,0,0.2-0.1,0.2-0.3s0-0.5,0-0.8c0-0.2-0.1-0.3-0.2-0.5c0.1,0,0.1,0,0.2,0c0.2,0.1,0.4,0.1,0.7,0.2
			c0.8,0.3,1.4,0.8,1.8,1.2C46.4,43.6,46,44.1,45.5,44.6z M46.8,42.4c-0.1-0.1-0.3-0.3-0.4-0.5c-0.3-0.3-0.7-0.6-1.1-0.9
			c0,0,0,0,0,0c0,0,0.1-0.1,0.1-0.1c0.1-0.2,0.2-0.5,0.2-0.6s-0.1-0.3-0.2-0.3s-0.1,0.1-0.2,0.2c-0.1,0.1-0.1,0.2-0.3,0.4
			c-0.1,0.1-0.1,0.2-0.2,0.2c-0.1,0-0.1-0.1-0.2-0.1c-0.3-0.1-0.6-0.2-0.9-0.2c-0.5,0-1.1,0-1.6,0c-0.5-0.4-1.1-0.6-1.7-0.9
			c0.2-0.1,0.3-0.4,0.4-0.7c0.1-0.4,0.1-0.7,0-0.9c-0.1-0.2-0.2-0.3-0.3-0.3c-0.1,0-0.1,0.2-0.1,0.4c0,0.2-0.1,0.4-0.1,0.7
			c-0.1,0.3-0.2,0.5-0.3,0.7c0,0,0,0,0,0c-0.3-0.1-0.5-0.2-0.7-0.3c-0.7-0.4-1.4-0.8-2-1.4c0,0,0-0.1,0-0.1
			c-0.2-0.4-0.3-0.7-0.5-1.1c0.1-0.1,0.2-0.2,0.2-0.4c0.1-0.3,0.2-0.6,0.2-0.9c0-0.2-0.1-0.4-0.1-0.4c-0.2,0-0.3,0.4-0.5,0.9
			c0,0,0-0.1,0-0.1c-0.1-0.3-0.3-0.6-0.5-0.9c-0.2-0.3-0.4-0.6-0.6-0.8c-0.4-0.5-1-0.8-1.5-1.1c-1-0.5-1.9-0.5-2.5-0.5
			c0.6-0.4,1.5-0.7,2.9-0.8c2.5-0.1,4.6,1,7.1,2.3l0.2,0.1c2.5,1.3,4.2,2.9,5,4.6c0.3,0.7,0.5,1.5,0.6,2.3
			C46.9,41.4,46.9,41.9,46.8,42.4z"/>
		<path class="st5" d="M35.2,39.9C35.2,39.9,35.2,39.9,35.2,39.9c0-0.1-0.1-0.1-0.1-0.2c0,0-0.1-0.1-0.2-0.1h-0.1
			c-0.1,0-0.1,0-0.2,0c-0.1,0-0.1,0.1-0.1,0.1s-0.1,0.1-0.1,0.1c0,0.1,0,0.1,0,0.2l0,0.1c0,0.1,0,0.1,0.1,0.1s0.1,0.1,0.1,0.1
			c0.1,0,0.2,0.1,0.4,0c0.1,0,0.1,0,0.1-0.1l0,0c0,0,0.1-0.1,0.1-0.1c0-0.1,0.1-0.1,0.1-0.2C35.2,40.1,35.2,40,35.2,39.9L35.2,39.9z
			"/>
		<path class="st5" d="M41.4,35.3c0-0.1,0-0.1-0.1-0.2c0,0-0.1-0.1-0.1-0.1c0,0,0,0-0.1,0h0c-0.1,0-0.3,0-0.3,0.1
			c-0.1,0.1-0.1,0.1-0.2,0.3s0,0.2,0.1,0.3c0,0,0.1,0.1,0.1,0.1c0.1,0,0.1,0,0.2,0c0.1,0,0.3-0.1,0.3-0.3l0,0l0,0c0,0,0,0,0,0
			C41.3,35.5,41.4,35.4,41.4,35.3L41.4,35.3z"/>
		<path class="st4" d="M132.9,74.6c-2.5,1.1-4.9,3.3-6.9,6.7l-0.2,0.3c-2,3.3-3.7,6.2-3.8,9.8c-0.1,1.9,0.3,3.2,0.9,4.1
			c-0.1-0.8,0.1-2.1,0.8-3.4c0.4-0.7,0.9-1.4,1.6-2c0.4-0.3,0.8-0.6,1.2-0.8c0.4-0.2,0.9-0.4,1.3-0.6c0,0,0.1,0,0.1,0
			c-0.7-0.4-1.3-0.6-1.3-0.8c0-0.1,0.2-0.2,0.5-0.2c0.3,0,0.8,0.1,1.2,0.3c0.2,0.1,0.4,0.2,0.5,0.4c0.5-0.2,1.1-0.4,1.6-0.6
			c0,0,0.1,0,0.1-0.1c0.8-0.8,1.5-1.7,2.1-2.7c0.2-0.3,0.4-0.7,0.5-1c0,0,0,0,0,0c-0.3-0.1-0.5-0.3-0.9-0.4c-0.4-0.1-0.7-0.2-1-0.3
			s-0.5-0.1-0.5-0.2c0-0.1,0.1-0.3,0.5-0.4c0.3-0.1,0.8-0.1,1.3,0.1c0.4,0.1,0.7,0.4,0.9,0.7c0.4-0.8,0.8-1.7,1.3-2.4
			c0-0.7,0-1.5,0.1-2.3c0.1-0.4,0.2-0.9,0.3-1.3c0-0.1,0.1-0.2,0.1-0.3c-0.1-0.1-0.2-0.2-0.3-0.3c-0.2-0.1-0.4-0.3-0.5-0.4
			c-0.1-0.1-0.3-0.2-0.3-0.3c0-0.1,0.1-0.2,0.4-0.2c0.3,0,0.6,0.1,0.9,0.3c0.1,0.1,0.1,0.1,0.2,0.2c0,0,0,0,0-0.1
			c0.4-0.7,0.9-1.1,1.3-1.5c0.2-0.2,0.5-0.4,0.7-0.5c-0.7-0.2-1.3-0.3-2-0.3C135,74,133.9,74.2,132.9,74.6z"/>
		<path class="st4" d="M139,74.6c-0.5,0.6-1.2,1.4-1.8,2.4c-0.1,0.3-0.3,0.6-0.4,0.9c0,0.1,0,0.2-0.1,0.3c0.2-0.1,0.4-0.2,0.7-0.2
			c0.5-0.1,0.9-0.1,1.2,0c0.3,0.1,0.5,0.2,0.5,0.3c0,0.2-0.7,0.3-1.5,0.5c-0.4,0.1-0.7,0.1-0.9,0.2c0,0.5,0,1.1,0,1.7
			c0,0,0.1,0,0.1,0c0.3-0.1,0.7-0.1,1.1,0.1c0.4,0.1,0.8,0.3,1,0.5s0.3,0.4,0.2,0.5c-0.1,0.2-0.7,0-1.4-0.2c-0.4-0.1-0.7-0.2-1-0.3
			c0,0.1,0,0.1,0,0.2c0,0.5,0,1-0.1,1.6s-0.2,1.1-0.4,1.6c0,0.1-0.1,0.2-0.1,0.4c0.3,0,0.5,0,0.7,0c0.1,0,0.3,0.1,0.4,0.1
			c0.1,0,0.3,0.1,0.4,0.2c0.4,0.3,0.6,0.5,0.5,0.6c-0.1,0.1-0.3,0-0.7,0c-0.1,0-0.2,0-0.3,0c-0.1,0-0.2,0-0.4,0
			c-0.3,0-0.5,0-0.8,0.1c-0.1,0-0.3,0.1-0.4,0.1c-0.4,0.6-0.8,1.1-1.3,1.6c-0.4,0.4-0.9,0.8-1.4,1.1c-0.5,0.3-1,0.5-1.5,0.7
			c-1,0.4-2,0.6-2.8,0.9c-0.4,0.1-0.8,0.3-1.2,0.5c-0.4,0.2-0.7,0.4-1,0.6c-0.2,0.1-0.4,0.3-0.5,0.4c0.1,0.1,0.2,0.1,0.3,0.3
			c0.4,0.4,0.5,0.8,0.3,0.9c-0.2,0.2-0.6,0-0.9-0.4c-0.1-0.1-0.2-0.2-0.2-0.3c-0.1,0.1-0.3,0.3-0.4,0.5c-0.7,1-1.1,2.1-1.2,2.8
			c-0.1,0.3-0.1,0.5-0.1,0.7c0.8,0.8,1.9,1.1,3,1.3c2.8,0.5,5.7-1.3,7.5-2.8c2.8-2.3,5.2-5.3,6.8-8.5c1-2,1.5-3.7,1.6-5.2
			c0.1-1.8-0.4-3.6-1.3-4.8C140.5,75.4,139.8,74.9,139,74.6z"/>
		<path class="st5" d="M133.7,93c0-0.4-0.5-0.7-1-0.7c-0.4,0-0.8,0.3-1.2,0.5c-0.4,0.3-0.8,0.6-0.8,1.1c0,0.4,0.5,0.8,0.8,0.5
			c0,0,0.1-0.1,0.1-0.1c0,0.1-0.1,0.1-0.1,0.1c-1.7,2-4.6,2.9-7.2,2.3c0.7,0.4,1.4,0.5,2.2,0.7c2.8,0.5,5.7-1.3,7.5-2.8
			c2.8-2.3,5.2-5.3,6.8-8.5c1-2,1.5-3.7,1.6-5.2c0.1-1.3-0.1-2.5-0.6-3.5C141.8,83.5,138.8,89.6,133.7,93z"/>
		<path class="st3" d="M131.9,72.3c-3,1.3-5.8,3.9-8.1,7.8l0,0l-0.2,0.3c-2,3.5-4,6.7-4.1,11c-0.1,5,2.1,7.9,6.6,8.6
			c0.4,0.1,0.9,0.1,1.3,0.1c2.6,0,5.4-1.2,8.2-3.4c3.1-2.5,5.7-5.8,7.4-9.3c1.1-2.3,1.7-4.3,1.8-6.2c0.1-2.5-0.5-4.8-1.9-6.5
			C140.3,71.2,135.4,70.9,131.9,72.3z M122.1,91.4c0.1-3.6,1.8-6.5,3.8-9.8l0.2-0.3c2-3.4,4.3-5.7,6.9-6.7c0.9-0.4,2.1-0.6,3.2-0.6
			c0.7,0,1.3,0.1,2,0.3c-0.2,0.1-0.4,0.3-0.7,0.5c-0.4,0.4-0.9,0.9-1.3,1.5c0,0,0,0,0,0.1c-0.1-0.1-0.1-0.1-0.2-0.2
			c-0.3-0.2-0.6-0.3-0.9-0.3s-0.4,0.1-0.4,0.2c0,0.1,0.1,0.2,0.3,0.3c0.1,0.1,0.3,0.2,0.5,0.4c0.1,0.1,0.2,0.2,0.3,0.3
			c0,0.1-0.1,0.2-0.1,0.3c-0.2,0.4-0.3,0.9-0.3,1.3c-0.1,0.8-0.1,1.5-0.1,2.3c-0.5,0.7-0.9,1.6-1.3,2.4c-0.2-0.3-0.5-0.5-0.9-0.7
			c-0.5-0.2-1-0.2-1.3-0.1c-0.3,0.1-0.5,0.3-0.5,0.4s0.2,0.2,0.5,0.2c0.3,0.1,0.6,0.1,1,0.3c0.4,0.1,0.7,0.3,0.9,0.4c0,0,0,0,0,0
			c-0.2,0.3-0.3,0.7-0.5,1c-0.6,1-1.3,1.9-2.1,2.7c0,0-0.1,0-0.1,0.1c-0.5,0.2-1.1,0.4-1.6,0.6c-0.1-0.1-0.3-0.3-0.5-0.4
			c-0.4-0.2-0.9-0.3-1.2-0.3c-0.3,0-0.5,0.1-0.5,0.2c0,0.2,0.6,0.5,1.3,0.8c0,0-0.1,0-0.1,0c-0.4,0.2-0.9,0.4-1.3,0.6
			s-0.8,0.5-1.2,0.8c-0.7,0.6-1.2,1.3-1.6,2c-0.7,1.4-0.9,2.6-0.8,3.4C122.4,94.6,122,93.3,122.1,91.4z M142.5,80.9
			c-0.1,1.6-0.6,3.3-1.6,5.2c-1.6,3.3-4,6.2-6.8,8.5c-1.9,1.5-4.7,3.3-7.5,2.8c-1.1-0.2-2.2-0.5-3-1.3c0-0.2,0.1-0.4,0.1-0.7
			c0.1-0.7,0.5-1.8,1.2-2.8c0.1-0.2,0.3-0.3,0.4-0.5c0.1,0.1,0.1,0.2,0.2,0.3c0.4,0.4,0.8,0.5,0.9,0.4c0.2-0.1,0-0.6-0.3-0.9
			c-0.1-0.1-0.2-0.2-0.3-0.3c0.2-0.1,0.3-0.3,0.5-0.4c0.3-0.2,0.6-0.4,1-0.6c0.4-0.2,0.8-0.3,1.2-0.5c0.8-0.3,1.8-0.5,2.8-0.9
			c0.5-0.2,1-0.4,1.5-0.7c0.5-0.3,1-0.7,1.4-1.1c0.5-0.5,0.9-1,1.3-1.6c0.1,0,0.2-0.1,0.4-0.1c0.3,0,0.5-0.1,0.8-0.1
			c0.1,0,0.2,0,0.4,0c0.1,0,0.2,0,0.3,0c0.4,0.1,0.6,0.1,0.7,0c0.1-0.1-0.1-0.4-0.5-0.6c-0.1-0.1-0.2-0.1-0.4-0.2
			c-0.1-0.1-0.3-0.1-0.4-0.1c-0.2,0-0.5,0-0.7,0c0.1-0.1,0.1-0.2,0.1-0.4c0.2-0.5,0.4-1.1,0.4-1.6c0.1-0.5,0.1-1.1,0.1-1.6
			c0-0.1,0-0.1,0-0.2c0.3,0.1,0.6,0.2,1,0.3c0.7,0.2,1.3,0.4,1.4,0.2c0.1-0.1,0-0.3-0.2-0.5s-0.5-0.4-1-0.5
			c-0.4-0.1-0.8-0.1-1.1-0.1c0,0-0.1,0-0.1,0c0-0.7-0.1-1.2,0-1.7c0.3,0,0.6-0.1,0.9-0.2c0.8-0.2,1.5-0.3,1.5-0.5
			c0-0.1-0.1-0.2-0.5-0.3c-0.3-0.1-0.7-0.1-1.2,0c-0.3,0.1-0.5,0.1-0.7,0.2c0-0.1,0-0.2,0.1-0.3c0.1-0.3,0.2-0.6,0.4-0.9
			c0.5-1.1,1.3-1.9,1.8-2.4c0.8,0.3,1.6,0.9,2.1,1.6C142.1,77.3,142.6,79.1,142.5,80.9z"/>
		<path class="st5" d="M134.6,90.5L134.6,90.5c0-0.1-0.1-0.1-0.1-0.1c-0.1-0.1-0.2-0.1-0.3-0.1c-0.1,0-0.2,0-0.3,0.1l0,0
			c0,0,0,0,0,0c-0.1,0-0.1,0.1-0.2,0.2c-0.1,0.1-0.1,0.1-0.1,0.2l0,0.2c0,0.1,0,0.2,0.1,0.3c0,0.1,0.1,0.1,0.1,0.2s0.1,0.1,0.2,0.1
			c0.1,0,0.2,0.1,0.3,0.1l0.2,0c0.1,0,0.1-0.1,0.2-0.1s0.1-0.1,0.2-0.2c0.1-0.1,0.1-0.3,0.1-0.5C134.7,90.7,134.7,90.6,134.6,90.5z"
			/>
		<path class="st5" d="M128.2,81.5L128.2,81.5L128.2,81.5C128.1,81.5,128.1,81.5,128.2,81.5c-0.1-0.1-0.3-0.2-0.4-0.2h0
			c-0.1,0-0.2,0-0.3,0.1c-0.1,0-0.1,0.1-0.1,0.2c0,0,0,0.1,0,0.1v0c0,0.2,0,0.4,0.1,0.5c0.1,0.1,0.2,0.2,0.4,0.3
			c0.1,0,0.3,0,0.5-0.1c0.1,0,0.1-0.1,0.2-0.2c0.1-0.1,0.1-0.2,0.1-0.3C128.5,81.7,128.3,81.6,128.2,81.5z"/>
		<path class="st4" d="M27.8,49.7c-1.7-3.5-3.1-6.5-6.1-8.5c-1.6-1.1-2.8-1.5-3.9-1.5c0.7,0.4,1.7,1.2,2.4,2.6
			c0.4,0.7,0.6,1.5,0.7,2.4c0,0.5,0,0.9,0,1.4s-0.1,1-0.2,1.4c0,0,0,0.1,0,0.1c0.7-0.4,1.2-0.8,1.4-0.6c0.1,0.1,0,0.3-0.1,0.5
			c-0.2,0.3-0.5,0.6-0.9,0.8c-0.2,0.1-0.4,0.2-0.6,0.2c-0.1,0.6-0.3,1.1-0.4,1.7c0,0.1,0,0.1,0,0.2c0.2,1.1,0.5,2.2,1.1,3.2
			c0.2,0.3,0.4,0.7,0.5,1h0c0.3-0.1,0.6-0.3,0.9-0.5s0.6-0.5,0.8-0.7c0.2-0.2,0.3-0.3,0.5-0.3c0.1,0,0.1,0.3,0,0.6
			c-0.1,0.3-0.4,0.7-0.8,1.1c-0.4,0.3-0.7,0.4-1.1,0.4c0.5,0.8,0.9,1.6,1.2,2.4c0.6,0.4,1.3,0.8,1.8,1.3c0.3,0.3,0.7,0.7,0.9,1
			c0.1,0.1,0.1,0.2,0.2,0.3c0.1,0,0.3-0.1,0.4-0.1c0.2-0.1,0.4-0.2,0.6-0.2c0.2-0.1,0.3-0.1,0.4,0c0.1,0.1,0.1,0.2,0,0.5
			c-0.1,0.2-0.4,0.4-0.7,0.6c-0.1,0-0.2,0-0.3,0.1c0,0,0,0,0,0.1c0.3,0.7,0.4,1.4,0.5,2c0,0.3,0.1,0.6,0.1,0.9
			c0.5-0.4,0.9-1,1.3-1.5c0.6-0.9,1.1-2,1.2-3c0.5-2.7-0.1-5.9-1.8-9.4L27.8,49.7z"/>
		<path class="st4" d="M24.8,61c-0.1-0.1-0.1-0.1-0.2-0.2c0,0.2-0.1,0.4-0.2,0.7c-0.2,0.4-0.4,0.8-0.7,1c-0.2,0.2-0.4,0.3-0.5,0.2
			c-0.2-0.1,0.1-0.8,0.4-1.5c0.1-0.3,0.3-0.7,0.4-0.9c-0.4-0.3-0.9-0.6-1.5-0.9c0,0,0,0.1,0,0.1c-0.1,0.3-0.3,0.6-0.7,0.9
			c-0.3,0.3-0.7,0.5-0.9,0.5s-0.5,0-0.5-0.1c-0.1-0.2,0.4-0.6,0.9-1.1c0.3-0.3,0.6-0.5,0.8-0.6c-0.1,0-0.1-0.1-0.2-0.1
			c-0.4-0.3-0.8-0.6-1.2-0.9s-0.8-0.8-1.1-1.3c-0.1-0.1-0.1-0.2-0.2-0.3c-0.1,0.2-0.3,0.4-0.4,0.6c-0.1,0.1-0.2,0.2-0.3,0.3
			c-0.1,0.1-0.2,0.1-0.3,0.2c-0.4,0.2-0.7,0.2-0.8,0.1s0.2-0.3,0.4-0.6c0.1-0.1,0.1-0.1,0.2-0.2c0.1-0.1,0.1-0.2,0.2-0.3
			c0.1-0.2,0.3-0.4,0.4-0.7c0-0.1,0.1-0.2,0.1-0.4c-0.3-0.6-0.5-1.3-0.6-2c-0.1-0.6-0.1-1.2-0.1-1.8s0.1-1.2,0.2-1.7
			c0.2-1.1,0.5-2,0.8-2.8c0.1-0.4,0.2-0.8,0.3-1.2s0.1-0.8,0.1-1.1c0-0.2,0-0.5-0.1-0.7c-0.1,0-0.3,0.1-0.4,0.1
			c-0.5,0.1-0.9,0-1-0.3c0-0.2,0.3-0.5,0.8-0.6c0.1,0,0.3,0,0.4,0c-0.1-0.2-0.1-0.4-0.2-0.6c-0.5-1.2-1.1-2-1.7-2.6
			c-0.2-0.2-0.3-0.3-0.5-0.5c-1.1,0.3-2,1-2.7,1.9c-1.9,2.1-2.1,5.4-1.8,7.8c0.4,3.6,1.5,7.2,3.4,10.3c1.1,1.9,2.3,3.3,3.5,4.2
			c1.5,1.1,3.2,1.7,4.7,1.5c0.9-0.1,1.8-0.4,2.5-0.9c-0.2-0.7-0.5-1.8-1.1-2.8C25.2,61.5,25,61.2,24.8,61z"/>
		<path class="st5" d="M13.9,50c0.4,0.2,0.9,0,1.1-0.4c0.2-0.4,0.2-0.8,0.2-1.3c0-0.5-0.1-1-0.5-1.3c-0.3-0.3-0.9,0-0.9,0.4
			c0,0.1,0,0.1,0,0.2c0-0.1,0-0.1,0-0.2c-0.8-2.5,0.1-5.5,2-7.3c-0.7,0.4-1.2,0.9-1.8,1.5c-1.9,2.1-2.1,5.4-1.8,7.8
			c0.4,3.6,1.5,7.2,3.4,10.3c1.1,1.9,2.3,3.3,3.5,4.2c1,0.8,2.1,1.3,3.2,1.5C17.4,62,14,56.1,13.9,50z"/>
		<path class="st3" d="M30.2,48.9L30,48.6c-1.7-3.6-3.4-7-6.9-9.5c-4.1-2.9-7.7-2.6-10.8,0.8c-0.3,0.3-0.6,0.7-0.8,1.1
			c-1.4,2.2-2,5.2-1.6,8.7c0.4,4,1.7,7.9,3.7,11.3c1.3,2.2,2.6,3.8,4.2,4.9c2,1.5,4.3,2.2,6.5,2c4.3-0.4,7.3-4.4,8-8
			C32.8,56.7,32.1,53,30.2,48.9L30.2,48.9z M23.9,65.5c-1.5,0.1-3.3-0.4-4.7-1.5c-1.3-0.9-2.4-2.3-3.5-4.2c-1.8-3.1-3-6.7-3.4-10.3
			c-0.3-2.4-0.1-5.7,1.8-7.8c0.8-0.8,1.6-1.6,2.7-1.9c0.1,0.1,0.3,0.3,0.5,0.5c0.5,0.5,1.2,1.4,1.7,2.6c0.1,0.2,0.1,0.4,0.2,0.6
			c-0.1,0-0.3,0-0.4,0c-0.5,0.1-0.9,0.3-0.8,0.6c0,0.2,0.5,0.3,1,0.3c0.1,0,0.3-0.1,0.4-0.1c0,0.2,0.1,0.4,0.1,0.7
			c0,0.4,0,0.7-0.1,1.1c-0.1,0.4-0.1,0.8-0.3,1.2c-0.2,0.9-0.5,1.8-0.8,2.8c-0.1,0.5-0.2,1.1-0.2,1.7s0,1.2,0.1,1.8
			c0.1,0.7,0.4,1.3,0.6,2c0,0.1-0.1,0.2-0.1,0.4c-0.1,0.3-0.3,0.5-0.4,0.7c-0.1,0.1-0.1,0.2-0.2,0.3s-0.1,0.2-0.2,0.2
			c-0.3,0.3-0.5,0.4-0.4,0.6c0,0.1,0.3,0.1,0.8-0.1c0.1-0.1,0.2-0.1,0.3-0.2c0.1-0.1,0.2-0.2,0.3-0.3c0.1-0.2,0.3-0.4,0.4-0.6
			c0.1,0.1,0.1,0.2,0.2,0.3c0.3,0.5,0.7,0.9,1.1,1.3s0.8,0.7,1.2,0.9c0.1,0,0.1,0.1,0.2,0.1c-0.2,0.1-0.5,0.4-0.8,0.6
			c-0.5,0.5-1,0.9-0.9,1.1c0,0.1,0.2,0.1,0.5,0.1c0.3-0.1,0.6-0.2,0.9-0.5c0.3-0.3,0.5-0.6,0.7-0.9c0,0,0-0.1,0-0.1
			c0.5,0.3,1.1,0.6,1.5,0.9c-0.1,0.3-0.2,0.5-0.4,0.9c-0.3,0.7-0.6,1.3-0.4,1.5c0.1,0.1,0.3,0,0.5-0.2c0.2-0.2,0.5-0.6,0.7-1
			c0.1-0.2,0.1-0.5,0.2-0.7c0.1,0.1,0.1,0.1,0.2,0.2c0.2,0.3,0.4,0.5,0.6,0.8c0.6,1,0.8,2.1,1.1,2.8C25.7,65.1,24.8,65.4,23.9,65.5z
			 M29.7,59.4c-0.2,1-0.6,2.1-1.2,3c-0.4,0.6-0.8,1.1-1.3,1.5c0-0.3,0-0.5-0.1-0.9c-0.1-0.6-0.2-1.2-0.5-2c0,0,0,0,0-0.1
			c0.1,0,0.2,0,0.3-0.1c0.4-0.1,0.6-0.4,0.7-0.6c0.1-0.2,0.1-0.4,0-0.5c-0.1-0.1-0.3,0-0.4,0c-0.1,0.1-0.4,0.1-0.6,0.2
			c-0.1,0-0.3,0.1-0.4,0.1c-0.1-0.1-0.1-0.2-0.2-0.3c-0.3-0.4-0.6-0.7-0.9-1c-0.6-0.5-1.2-0.9-1.8-1.3c-0.3-0.8-0.8-1.6-1.2-2.4
			c0.3,0,0.7-0.2,1.1-0.4c0.4-0.3,0.7-0.7,0.8-1.1c0.1-0.3,0.1-0.5,0-0.6c-0.1,0-0.3,0.1-0.5,0.3c-0.2,0.2-0.5,0.4-0.8,0.7
			s-0.6,0.4-0.9,0.5c0,0,0,0,0,0c-0.2-0.3-0.4-0.7-0.5-1c-0.5-1-0.9-2.1-1.1-3.2c0-0.1,0-0.1,0-0.2c0.1-0.5,0.3-1.1,0.4-1.7
			c0.2-0.1,0.4-0.1,0.6-0.2c0.4-0.2,0.8-0.5,0.9-0.8c0.2-0.3,0.2-0.5,0.1-0.5c-0.2-0.1-0.7,0.2-1.4,0.6c0,0,0-0.1,0-0.1
			c0.1-0.5,0.2-0.9,0.2-1.4c0-0.5,0-1,0-1.4c-0.1-0.9-0.4-1.7-0.7-2.4c-0.7-1.4-1.7-2.2-2.4-2.6c1.1,0,2.3,0.4,3.9,1.5
			c2.9,2.1,4.4,5.1,6.1,8.5l0.1,0.3C29.6,53.6,30.2,56.7,29.7,59.4z"/>
		<path class="st5" d="M16.1,51.2c0-0.1-0.1-0.1-0.1-0.2l-0.1-0.1c-0.1,0-0.1-0.1-0.2-0.1c-0.1,0-0.2,0-0.3,0s-0.2,0-0.2,0.1
			C15,51,15,51,14.9,51.1l-0.1,0.1c0,0.1,0,0.2,0,0.3c0,0.1,0,0.2,0.1,0.2c0.1,0.1,0.2,0.3,0.4,0.3c0.1,0,0.2,0,0.3,0l0,0
			c0.1,0,0.1,0,0.2,0c0.1,0,0.2-0.1,0.3-0.2c0-0.1,0.1-0.2,0.1-0.3c0,0,0,0,0,0s0,0,0,0C16.1,51.4,16.1,51.3,16.1,51.2z"/>
		<path class="st5" d="M26.9,51C26.9,51,26.9,50.9,26.9,51c-0.1-0.1-0.1-0.1-0.1-0.1c-0.1-0.1-0.3-0.2-0.5-0.2c-0.1,0-0.3,0-0.4,0.1
			c-0.1,0.1-0.2,0.3-0.2,0.4c0,0.1,0,0.2,0,0.3c0,0.1,0.1,0.2,0.2,0.2c0.2,0.1,0.4,0.1,0.5-0.1l0,0l0,0h0c0.1,0,0.2-0.1,0.3-0.2
			c0,0,0,0,0,0c0.1-0.1,0.1-0.2,0.1-0.3C27,51.2,27,51.1,26.9,51z"/>
		<path class="st3" d="M51.5,9.5L51.5,9.5c-1.9-1.7-3.3-1.4-4.1-1.1c-0.7,0.3-1.2,0.9-1.5,1.6c0,0.1-0.1,0.3-0.1,0.4
			c-0.2,0.8-0.1,1.8,0.3,2.6c0.3,0.7,0.8,1.2,1.1,1.7c0.2,0.3,0.4,0.5,0.6,0.8c0.2,0.3,0.2,0.7,0.2,0.8c-0.1,0.1-0.5,0.1-0.7,0.2
			c-0.6,0.1-1.5,0.3-2.2,1c-1.3,1.3-1,3.3-0.9,3.9c0.5,3.2,1.6,6.4,3.2,9.3c0.4,0.8,0.9,1.6,1.7,2.1c1.2,0.8,2.7,0.8,3.7,0
			c1.2-1,1.4-2.7,0.5-4.6l0-0.1c-0.1-0.3-0.5-1.2-0.5-1.4c0.1-0.1,0.5-0.3,0.7-0.4c0.4-0.2,0.8-0.4,1.3-0.7c1.2-1,1.9-2.5,2-4.3
			C57.1,16.8,53.6,11.3,51.5,9.5z M53.9,21.1c0,0.9-0.3,1.5-0.8,1.9c-0.2,0.1-0.4,0.3-0.7,0.4c-0.7,0.3-1.6,0.8-2.1,1.8
			c-0.8,1.5-0.1,3.1,0.4,4.1l0,0.1c0.1,0.3,0.2,0.5,0.2,0.7c-0.3-0.2-0.5-0.6-0.7-1c-1.4-2.6-2.4-5.4-2.9-8.3
			c-0.1-0.7-0.1-0.9,0-1.1c0,0,0-0.1,0-0.1c0.1-0.1,0.5-0.1,0.7-0.2c0.7-0.1,1.5-0.3,2.2-1c1.3-1.3,1-3.3,0.2-4.6
			c-0.3-0.4-0.6-0.8-0.8-1.1c-0.3-0.4-0.6-0.7-0.7-1.1c-0.1-0.1-0.1-0.3-0.1-0.4c0.1,0.1,0.3,0.2,0.6,0.4C51,13.2,54,17.9,53.9,21.1
			z"/>
		<path class="st5" d="M50.5,10.6c-0.7-0.6-1.6-1.2-2.4-0.8c-0.9,0.4-1,1.6-0.6,2.5c0.4,0.9,1.2,1.5,1.6,2.4c0.5,0.8,0.7,2,0,2.7
			c-0.8,0.8-2.1,0.5-2.9,1.2c-0.7,0.6-0.6,1.6-0.4,2.5c0.5,3,1.5,6,3,8.7c0.3,0.6,0.7,1.2,1.3,1.6s1.4,0.5,1.9,0.1
			c0.8-0.6,0.5-1.9,0.1-2.8c-0.4-0.9-0.9-2-0.5-2.8c0.5-0.9,1.6-1.1,2.4-1.7C57.9,21.2,53,12.9,50.5,10.6z"/>
		<path class="st4" d="M49.7,10c-0.5-0.3-1.1-0.4-1.6-0.2c-0.9,0.4-1,1.6-0.6,2.5c0.4,0.9,1.2,1.5,1.6,2.4c0.5,0.8,0.7,2,0,2.7
			c-0.8,0.8-2.1,0.5-2.9,1.2c-0.7,0.6-0.6,1.6-0.4,2.5c0.5,3,1.5,6,3,8.7c0.3,0.6,0.7,1.2,1.3,1.6s1.4,0.5,1.9,0.1
			c0.8-0.6,0.5-1.9,0.1-2.8c-0.4-0.9-0.9-2-0.5-2.8c0.1-0.1,0.1-0.2,0.2-0.3c-0.4-0.6-0.8-1.2-1.1-1.8c-0.4-0.6-0.7-1.2-0.8-1.9
			c-0.1-1.2,0.9-2.2,1.9-2.8c0.3-0.2,0.5-0.3,0.7-0.6c0.1-0.3,0.1-0.6,0-0.9C52,15,51,12.4,49.7,10z"/>
		<path class="st5" d="M47.7,11.5c-0.1-0.3-0.2-0.7-0.2-1c-0.3,0.5-0.3,1.3,0,1.9c0.4,0.9,1.2,1.5,1.6,2.4c0.5,0.8,0.7,2,0,2.7
			c-0.8,0.8-2.1,0.5-2.9,1.2c-0.7,0.6-0.6,1.6-0.4,2.5c0.5,3,1.5,6,3,8.7c0.1,0.3,0.3,0.5,0.5,0.8c-0.3-0.7-0.7-1.4-1-2.1
			c-1.1-2.4-1.9-5-2-7.7c0-0.7,0-1.5,0.5-2c0.4-0.4,1.1-0.5,1.7-0.6s1.3-0.4,1.5-0.9c0.1-0.3,0-0.7-0.1-1.1
			C49.3,14.6,48.3,13.1,47.7,11.5z"/>
		<path class="st6" d="M54,20.5c-0.1-0.1-0.1-0.2-0.2-0.3c-0.3-0.3-0.7-0.6-1.2-0.4c-1,0.4-0.7,1.7-0.1,2.3c0.8,0.7,2,0,1.8-1
			C54.3,20.9,54.2,20.7,54,20.5z"/>
		<path class="st6" d="M51.4,12.5c0-0.1-0.1-0.1-0.1-0.2c-0.1-0.1-0.3-0.2-0.5-0.2c-0.2,0-0.4,0.2-0.5,0.4c0,0.1,0,0.3,0,0.4
			s0.1,0.3,0.2,0.3c0.1,0.2,0.3,0.4,0.6,0.4c0.3,0,0.5-0.2,0.6-0.4C51.8,13.1,51.7,12.8,51.4,12.5C51.5,12.6,51.4,12.6,51.4,12.5z"
			/>
		
			<ellipse transform="matrix(0.1651 -0.9863 0.9863 0.1651 -32.8459 153.5649)" class="st3" cx="74.3" cy="96.2" rx="10.9" ry="28.6"/>
		<path class="st3" d="M115.8,26.7c-1.2-0.9-3-0.7-4.6,0.6l-0.1,0.1c-0.3,0.2-1,0.8-1.2,0.8c-0.1,0-0.4-0.4-0.6-0.6
			c-0.3-0.3-0.6-0.7-1-1.1c-1.3-1-2.9-1.3-4.6-0.9c-4.3,0.9-8.8,5.7-10.1,8.2l0,0c-1.2,2.2-0.5,3.6,0,4.2c0.5,0.6,1.2,1,2,1.1
			c0.1,0,0.3,0,0.4,0c0.9,0,1.7-0.3,2.4-0.9c0.6-0.5,1-1,1.4-1.5c0.2-0.3,0.4-0.6,0.7-0.8c0.3-0.3,0.6-0.4,0.7-0.4
			c0.1,0.1,0.2,0.4,0.3,0.6c0.3,0.6,0.7,1.4,1.5,1.9c1.6,1,3.4,0.2,4,0c3-1.3,5.8-3.1,8.2-5.3c0.7-0.6,1.3-1.3,1.6-2.2
			C117.2,29,116.8,27.5,115.8,26.7z M112.9,30.3c-2.2,2-4.6,3.6-7.3,4.8c-0.6,0.3-0.9,0.3-1,0.3c0,0-0.1,0-0.1,0
			c-0.1-0.1-0.3-0.4-0.4-0.6c-0.3-0.6-0.7-1.4-1.5-1.9c-1.6-0.9-3.4-0.2-4.5,0.9c-0.4,0.4-0.7,0.7-0.9,1.1c-0.3,0.4-0.6,0.7-0.8,1
			c-0.1,0.1-0.2,0.1-0.3,0.2c0-0.1,0.1-0.4,0.3-0.7c1-1.9,4.9-5.9,8-6.6c0.9-0.2,1.5-0.1,2.1,0.3c0.2,0.1,0.4,0.4,0.5,0.6
			c0.5,0.6,1.1,1.4,2.3,1.6c1.7,0.4,3-0.7,3.9-1.4l0.1-0.1c0.3-0.2,0.5-0.3,0.7-0.4C113.6,29.6,113.3,30,112.9,30.3z"/>
		<path class="st5" d="M114.8,28c-0.8-0.6-1.9-0.1-2.7,0.6c-0.8,0.6-1.7,1.4-2.6,1.1c-1-0.2-1.4-1.3-2.2-1.9
			c-3.8-3-10.8,3.8-12.3,6.8c-0.4,0.8-0.7,1.8-0.2,2.5c0.6,0.8,1.9,0.6,2.6,0c0.8-0.6,1.2-1.5,1.9-2.2c0.7-0.7,1.8-1.2,2.6-0.7
			c0.9,0.5,1,2,1.9,2.5c0.8,0.5,1.7,0.2,2.5-0.2c2.8-1.2,5.5-2.9,7.8-5c0.5-0.5,1-1,1.2-1.6C115.5,29.2,115.4,28.4,114.8,28z"/>
		<path class="st4" d="M114.8,28c-0.8-0.6-1.9-0.1-2.7,0.6c-0.8,0.6-1.7,1.4-2.6,1.1c-0.1,0-0.2-0.1-0.3-0.1c-0.5,0.5-1,1-1.5,1.5
			c-0.5,0.5-1,1-1.6,1.2c-1.1,0.3-2.3-0.4-3.2-1.2c-0.2-0.2-0.5-0.4-0.8-0.5c-0.3,0-0.6,0.1-0.9,0.2c-2.4,1.2-4.7,2.8-6.7,4.6
			c-0.1,0.5-0.1,1.1,0.2,1.6c0.6,0.8,1.9,0.6,2.6,0c0.8-0.6,1.2-1.5,1.9-2.2c0.7-0.7,1.8-1.2,2.6-0.7c0.9,0.5,1,2,1.9,2.5
			c0.8,0.5,1.7,0.2,2.5-0.2c2.8-1.2,5.5-2.9,7.8-5c0.5-0.5,1-1,1.2-1.6C115.5,29.2,115.4,28.4,114.8,28z"/>
		<path class="st5" d="M105.9,36.1c-0.7,0.2-1.4,0.4-2,0c-0.5-0.3-0.7-0.9-1-1.5c-0.3-0.5-0.7-1.1-1.2-1.2c-0.4,0-0.7,0.1-1,0.3
			c-1.5,0.9-2.7,2.3-4.2,3.3c-0.3,0.2-0.6,0.4-0.9,0.4c0.6,0.1,1.3-0.1,1.9-0.5c0.8-0.6,1.2-1.5,1.9-2.2c0.7-0.7,1.8-1.2,2.6-0.7
			c0.9,0.5,1,2,1.9,2.5c0.8,0.5,1.7,0.2,2.5-0.2c2.8-1.2,5.5-2.9,7.8-5c0.2-0.2,0.4-0.4,0.7-0.7c-0.6,0.5-1.2,1-1.8,1.5
			C110.7,33.9,108.4,35.3,105.9,36.1z"/>
		<path class="st6" d="M104.2,28.2c-0.2,0.1-0.4,0.3-0.5,0.4c-0.1,0.1-0.1,0.2-0.2,0.3c-0.3,0.4-0.4,0.8-0.1,1.2
			c0.6,0.8,1.8,0.3,2.2-0.5C106.1,28.8,105.1,27.7,104.2,28.2z"/>
		<path class="st6" d="M97.3,32.7c-0.3,0-0.5,0.1-0.7,0.3c0,0,0,0.1,0,0.1c0,0-0.1,0.1-0.1,0.1c-0.1,0.2-0.1,0.4-0.1,0.5
			c0.1,0.2,0.3,0.4,0.5,0.4c0.1,0,0.3-0.1,0.4-0.1c0.1-0.1,0.2-0.1,0.3-0.3c0.2-0.2,0.3-0.4,0.2-0.7C97.7,32.9,97.5,32.7,97.3,32.7z
			"/>
		<path class="st2" d="M84.2,36.7c-3.9-0.8-7.9-1.2-11.8-1.2c-11.2,0-21.7,3.4-29.6,9.9c-1.6,1.3-2.8,3.1-3.5,5.2l-0.1,0.2
			c-0.3,0.8-0.4,1.6-0.5,2.4c-0.3,3.2-0.8,11.5,0.4,20.3C40.8,84.3,44.4,92,50,96.2c8.2,6.2,21.8,8.3,33.8,5.1
			c8.7-2.3,15-6.9,17.5-12.7c7.9-18.5,9-33.3,7.5-36.4C105.4,45.2,95.9,39.2,84.2,36.7z M96.6,62.5C90.5,65,82.5,66.3,74,66.3
			S57.4,65,51.3,62.5c-6.4-2.6-10-6.2-10-10.2c0-8.2,15.2-15.4,32.6-15.4c10.5,0,18.8,3.6,22.8,5.8c4.5,2.4,9.8,6.4,9.8,9.7
			C106.6,56.3,103,59.9,96.6,62.5z"/>
		<path class="st1" d="M42.2,55.1c-0.8-2.7-0.5-5.6,0.7-8.1c0.2-0.5,0.5-0.9,0.7-1.3c0.1-0.2,0.2-0.5,0.1-0.7
			c-0.1-0.1-0.3-0.1-0.4-0.1c-5.1-0.4-4.9,8.2-3.3,11.1c1.5,2.7,3.8,5.5,8.3,7C46,61.4,43,57.7,42.2,55.1z"/>
		<path class="st2" d="M107.9,55.9c0.1,6.9-2.7,20.7-7.5,34.6c0.4-0.6,0.7-1.2,1-1.9c6.6-15.4,8.5-28.3,8-34
			C109,55.7,108.7,54.9,107.9,55.9z"/>
		<path class="st1" d="M95.6,44.9c-3.8-2-11.7-5.5-21.6-5.5c-17,0-30.1,7-30.1,13c0,5.6,12.1,11.5,30.1,11.5s30.1-5.9,30.1-11.5
			C104.1,51.3,101.6,48.1,95.6,44.9z"/>
		<path class="st7" d="M91.4,45.7c-1.7-0.9-3.5-1.9-5.4-2.4c-4.6-1.2-9.4,0-14.2-0.2c-1.1,0-2.2-0.1-3.2-0.5
			c-1.3-0.5-2.5-1.5-3.2-2.7c-12.6,1.8-21.5,7.4-21.5,12.3c0,5.6,12.1,11.5,30.1,11.5c16.4,0,28-4.9,29.9-10
			c-0.7-0.2-1.4-0.5-2.1-0.8C97.6,51.3,95.2,47.7,91.4,45.7z"/>
		<path class="st2" d="M120.5,49.7c-3.5-2.4-8-0.8-10,0.2c0.2,0.4,0.4,0.8,0.6,1.2c0.5,1,0.8,2.6,0.8,4.6c1.6-0.5,3.9-0.8,6,0.5
			c4.3,2.8,4.5,8.5,2.4,12.7c-1.6,3.3-4.7,6-8.7,6c-0.9,0-1.7-0.1-2.7-0.4c-0.5,1.7-1,3.6-1.6,5.4c7.4,2.1,13.1-2.9,15.9-8.4
			C126.9,64.4,127.2,54.3,120.5,49.7z"/>
		<path class="st1" d="M116.2,52.6c-1.6-0.1-3,0.2-4.5,0.8c0.1,0.7,0.1,1.4,0.2,2.2c1.6-0.5,3.9-0.8,6,0.5c4.3,2.8,4.5,8.5,2.4,12.7
			c-1.6,3.3-4.7,6-8.7,6c-0.9,0-1.7-0.1-2.7-0.4c-0.3,1-0.6,2.1-0.9,3.1c4.3,1.1,9.3-0.5,12-4c1.1-1.4,1.9-3,2.4-4.7
			c1.1-3.2,1.7-6.7,0.8-9.9C122.2,55.8,119.6,53,116.2,52.6z"/>
		<path class="st3" d="M121.8,47.7c-4.8-3.3-10.5-1-12.8,0.1c-4.7-6.2-13.7-11.3-24.3-13.5c-7.4-1.6-15.2-1.7-22.4-0.4
			c-8.1,1.5-15.2,4.7-21.1,9.6c-2,1.7-3.5,3.8-4.3,6.3L37,50c-0.3,0.9-0.5,1.9-0.6,2.9c-0.3,3.3-0.8,11.8,0.4,20.9
			c1.6,11.5,5.6,19.7,11.7,24.4c4.5,3.4,10.4,5.7,17.1,6.6c2.2,0.3,4.4,0.4,6.6,0.4c4.2,0,8.3-0.5,12.3-1.6
			c9.4-2.5,16.4-7.6,19.2-14.1c1.1-2.5,2-4.9,2.8-7.3c1.4,0.4,2.8,0.6,4.2,0.6c2.3,0,4.5-0.6,6.6-1.7c3.3-1.7,6.1-4.7,8.1-8.6
			C129.6,64.6,129.8,53.1,121.8,47.7z M101.4,88.6c-2.5,5.8-8.8,10.4-17.5,12.7c-12.1,3.2-25.7,1.1-33.8-5.1
			c-5.6-4.3-9.2-11.9-10.7-22.8c-1.2-8.8-0.7-17.1-0.4-20.3c0.1-0.8,0.2-1.6,0.5-2.4l0.1-0.2c0.7-2,1.9-3.8,3.5-5.2
			c7.8-6.5,18.3-9.9,29.6-9.9c3.9,0,7.8,0.4,11.8,1.2c11.7,2.5,21.2,8.4,24.6,15.4C110.4,55.3,109.2,70.1,101.4,88.6z M123.2,71.5
			c-2.9,5.6-8.5,10.5-15.9,8.4c0.6-1.8,1.2-3.6,1.6-5.4c0.9,0.3,1.8,0.4,2.7,0.4c4,0,7.1-2.8,8.7-6c2.1-4.2,1.9-10-2.4-12.7
			c-2-1.3-4.4-1-6-0.5c-0.1-2-0.3-3.6-0.8-4.6c-0.2-0.4-0.4-0.8-0.6-1.2c2-1,6.5-2.6,10-0.2C127.2,54.3,126.9,64.4,123.2,71.5z
			 M109.6,72.1c1.3-5.3,2.1-10,2.3-13.8c1.1-0.4,3.1-1.1,4.7-0.1c3.1,2,3.1,6.3,1.5,9.5C116.7,70.6,113.7,73.4,109.6,72.1z"/>
		<path class="st3" d="M96.7,42.7c-4-2.1-12.3-5.8-22.8-5.8c-17.4,0-32.6,7.2-32.6,15.4c0,3.9,3.5,7.6,10,10.2
			c6.1,2.5,14.1,3.8,22.7,3.8s16.6-1.4,22.7-3.8c6.4-2.6,10-6.2,10-10.2C106.6,49.1,101.3,45.1,96.7,42.7z M74,63.8
			c-18,0-30.1-5.9-30.1-11.5c0-6,13.2-13,30.1-13c10,0,17.8,3.4,21.6,5.5c6,3.2,8.5,6.5,8.5,7.5C104.1,57.9,92,63.8,74,63.8z"/>
		<path class="st3" d="M106.1,80.3c0,0.1-0.1,0.3,0,0.4c0.1,0.1,0.2,0.1,0.3,0.2c1.1,0.3,2.2,0.5,3.3,0.8c0.4,0.1-0.6-7.9-1.2-8.7
			C107.5,75.2,106.9,77.9,106.1,80.3z"/>
		<path class="st3" d="M87.4,43.8c-3.3-0.4-6.7-0.1-9.9,0.1c-2.1,0.1-4.4,0.3-6.5,0.3c-1.5,0-3.5-0.1-5.2-0.9
			c-0.5-0.2-1-0.5-1.4-0.9c-1.1-1.8-1.7-4-1.6-6.1c0-0.4,0.1-0.8,0.1-1.3c0.1-0.8,0.2-1.7,0.1-2.7c-0.1-2-1-3.7-2.4-4.6
			c-1.1-0.7-2.4-0.9-3.9-0.7c-2.3,0.3-4.2,1.5-5.4,2.4c-4.3,3-7.6,7.5-9.2,12.5c-0.9,2.7-1.3,5.3-1.1,7.7c0.2,2.2,0.7,4,1.6,5.3
			c1.4,2.9,5.2,5.6,10.7,7.5c5.7,2,12.9,3.1,20.6,3.1c7.8,0,14.9-1.1,20.7-3.1c5.6-2,9.3-4.7,10.7-7.7l0.5-1.1l-0.8-0.8
			C100.4,47.9,94,44.6,87.4,43.8z M74,63.8c-16.1,0-27.4-4.7-29.7-9.7c-0.9-1.4-1.2-3.1-1.4-4.6c-0.2-2.4,0.2-4.8,1-7
			c1.6-4.6,4.6-8.7,8.6-11.6c1.4-1,2.9-1.9,4.6-2.1c0.9-0.1,1.9,0,2.7,0.5c1.1,0.7,1.5,2,1.6,3.3c0.1,1.3-0.2,2.5-0.3,3.8
			c-0.1,2.6,0.6,5.2,2,7.3c0.6,0.5,1.3,1,2,1.3c1.8,0.8,3.9,1.1,5.9,1.1c5.4,0.1,10.9-1,16.3-0.4c6.3,0.7,12.3,3.8,16.6,8.5
			C101.5,59.1,90.1,63.8,74,63.8z"/>
		<path class="st4" d="M87.2,45.6C81.8,45,76.3,46,70.9,46c-2,0-4.1-0.2-5.9-1.1c-0.7-0.3-1.4-0.8-2-1.3c-1.4-2.1-2.1-4.8-2-7.3
			c0.1-1.3,0.3-2.5,0.3-3.8c-0.1-1.3-0.5-2.6-1.6-3.3c-0.8-0.5-1.8-0.6-2.7-0.5c-1.7,0.2-3.2,1.1-4.6,2.1c-4,2.9-7,7-8.6,11.6
			c-0.8,2.3-1.2,4.6-1,7c0.1,1.5,0.5,3.3,1.4,4.6c2.3,5,13.7,9.7,29.7,9.7c16.2,0,27.6-4.8,29.8-9.8C99.4,49.4,93.5,46.3,87.2,45.6z
			"/>
		<path class="st8" d="M87.2,45.6C81.8,45,76.3,46,70.9,46c-2,0-4.1-0.2-5.9-1.1c-0.7-0.3-1.4-0.8-2-1.3c-1.4-2.1-2.1-4.8-2-7.3
			c0-0.1,0-0.1,0-0.2c-0.1,0.2-0.1,0.4-0.2,0.6c-1.1,4.1-1.2,8.4-0.5,12.6c0.3,1.7,0.8,3.4,1.9,4.8c0.9,1.1,2.1,1.8,3.3,2.4
			c1.7,0.9,3.4,1.9,5.4,2.2c2.9,0.5,5.9-0.7,8.9-0.3c1.6,0.2,3.1,0.8,4.6,1.2c3.2,0.9,6.7,1.1,10,0.4c1.9-0.4,3.8-1,5.3-2.2
			c1.4-1.1,2.5-2.6,3.5-4c0-0.1,0.1-0.1,0.1-0.2C99.1,49.2,93.3,46.3,87.2,45.6z"/>
		<path class="st8" d="M72.7,61.7c-1.9,0.2-3.8,0.5-5.6,0.3c-2.4-0.3-4.7-1.4-6.3-3.2c-1-1.1-1.8-2.4-2.8-3.5
			c-1-1.1-2.3-2.1-3.8-2.2c-1.6-0.1-3.1,0.8-4.6,0.4c-1.9-0.5-2.8-2.7-3.2-4.7c-1.1-6.8,1.7-14,6.8-18.6c-0.3,0.2-0.5,0.4-0.8,0.5
			c-4,2.9-7,7-8.6,11.6c-0.8,2.3-1.2,4.6-1,7c0.1,1.5,0.5,3.3,1.4,4.6c2.3,5,13.7,9.7,29.7,9.7c5.3,0,10.1-0.5,14.2-1.4
			C83,62,77.8,61.3,72.7,61.7z"/>
		<path class="st4" d="M51.9,56.5c-1.1-0.3-2.2-0.5-3.2-0.9c-2.5-1-4.1-3.5-4.8-6.1c-0.5-1.9-0.5-3.9-0.4-5.8
			c-0.5,1.9-0.8,3.9-0.7,5.9c0.1,1.5,0.5,3.3,1.4,4.6c1.7,3.6,8.1,7.1,17.8,8.7c-0.7-0.4-1.3-0.8-1.9-1.3
			C57.5,59.7,55,57.4,51.9,56.5z"/>
		<path class="st3" d="M58.7,49.8c-3.9-1.7-13.1,0.1-11.8,6.1c0.5,2.1,2.6,3.6,4.7,3.6c2-0.1,3.8-1.3,5.7-1.7c1.7-0.3,3.4,0,5,0.5
			c0.6,0.2,1.4,0.3,1.7-0.2c0.2-0.3,0.2-0.6,0.1-1C63.7,54,61.5,51.1,58.7,49.8z"/>
		<path class="st2" d="M92.6,75.4c-1.1-0.3-2.2-0.4-3.3-0.1c-0.7,0.2-1.4,0.6-1.8,1.2c-0.4,0.5-0.1,1.2,0.5,1.3c0.1,0,0.3,0,0.4,0
			c-2,1.2-4.2,2-6.4,2.9c-3.5,1.4-7,2.7-10.7,3.3c-2.7,0.4-5.4,0.3-8.1,0.2c-4.3-0.1-8.9-0.3-12.6-2.4c0.4,0.6,0.6,0.9,1.3,1.2
			c1.4,0.6,2.7,1.1,4.1,1.6c1.4,0.5,2.8,1.1,4.3,1.4c1.8,0.4,3.6,0.4,5.4,0.4c2-0.1,4-0.3,5.9-0.6c2.5-0.4,4.9-1.1,7.3-1.8
			c3.3-0.9,6.6-2,9.4-3.8c1.7-1.1,3.4-2.6,5.5-2.5c0.4,0,0.9,0,1.1-0.3c0-0.1,0-0.2,0-0.3C94.7,76.2,93.6,75.7,92.6,75.4z"/>
		<path class="st2" d="M72.4,94.8c-2.2,0.4-4.5,0.7-6.6,0.3c-2.5-0.5-4.7-1.9-6.9-3.2l-0.2,0c1.5,1.5,0.5,4,1.6,5.8
			c0.8,1.3,2.5,1.8,4.1,2.1c4.6,0.8,9.7,0.7,13.9-1.3c2.5-1.2,5.8-3.8,7.6-5.9c1.8-2.1,2.3-4.6,3.2-7.4
			C84.7,89.7,78.7,93.6,72.4,94.8z"/>
		<path class="st3" d="M91.2,77.7c-1.1,0.4-2.7,1.1-4.5,1.9c-1.9,0.8-4.1,1.8-6.7,2.7c-1.3,0.5-2.6,0.9-4,1.4
			c-1.4,0.4-2.9,0.8-4.4,1.1c-3,0.6-5.9,0.8-8.6,0.6c-1.3-0.1-2.5-0.3-3.7-0.5c-0.6-0.1-1.1-0.3-1.6-0.4c-0.3-0.1-0.5-0.1-0.8-0.2
			c-0.3-0.1-0.5-0.2-0.7-0.3c-1.9-0.7-3.4-1.4-4.4-1.9c-0.3-0.1-0.5-0.2-0.7-0.3s-0.4-0.2-0.5-0.2c-0.3-0.1-0.5-0.1-0.5-0.1
			c-0.1,0.1,0,0.2,0.2,0.5c0.1,0.1,0.2,0.3,0.4,0.4c0.1,0.2,0.3,0.4,0.5,0.5c0.9,0.8,2.3,1.8,4.2,2.7c0.3,0.1,0.5,0.2,0.8,0.4
			c0.3,0.1,0.5,0.2,0.8,0.3c0.5,0.2,1.2,0.4,1.8,0.6c1.2,0.3,2.6,0.7,4.1,0.8c2.9,0.4,6.2,0.2,9.4-0.4c1.6-0.3,3.2-0.8,4.7-1.2
			s2.9-1,4.1-1.6c2.6-1.1,4.8-2.3,6.6-3.3c1.8-1.1,3.2-2,4.1-2.7c0.9-0.7,1.4-1.1,1.3-1.3C93,77.1,92.3,77.3,91.2,77.7z"/>
		<path class="st3" d="M93.6,76.4c-0.4-0.1-0.9-0.3-1.4-0.3c-0.5,0-1,0-1.4,0.2c-0.4,0.1-0.8,0.3-1,0.5c-0.5,0.4-0.7,0.9-0.5,1.2
			c0.2,0.3,0.6,0.5,1.1,0.6s1.1,0.1,1.7,0.2c0.6,0,1.2,0,1.7,0c0.5-0.1,0.9-0.2,1.2-0.5c0.2-0.3,0.1-0.8-0.4-1.2
			C94.4,76.7,94,76.5,93.6,76.4z"/>
		<path class="st3" d="M51.1,80.1c-0.5-0.1-1.3-0.1-2,0.3c-0.7,0.4-1.2,0.9-1.3,1.4c-0.1,0.5,0,0.9,0.3,1.1c0.3,0.2,0.7,0.2,1.2,0.2
			s0.8-0.2,1.2-0.4c0.4-0.2,0.7-0.4,1-0.7c0.3-0.3,0.5-0.6,0.5-1C51.9,80.6,51.6,80.2,51.1,80.1z"/>
		<path class="st3" d="M53.4,83.7c2.5,2.6,5.3,5.3,6,8.7c0.2,1.2,0.2,2.4,0.8,3.6c1.3,2.5,5,3.4,8.2,3.3c2.5,0,5-0.4,7.3-1.3
			c2.4-0.9,4.5-2.2,6.4-3.7c5-3.8,8-10,8.5-15.7C68.7,90.1,53.4,83.7,53.4,83.7z"/>
		<path class="st9" d="M80.8,88.1c-0.6-0.2-1.3,0-1.8,0.3c-1.3,0.7-2.4,1.7-3,3c-0.5-1.3-2.4-1.8-3.9-1.3s-2.5,1.7-3.2,2.9
			c-0.8,1.2-1.5,2.7-1.7,4.1c1.9,0.5,5.7-1,7.4-1.6c2.4-0.9,4.7-2.2,6.2-4.1c0.4-0.5,0.7-1.1,0.8-1.7S81.4,88.3,80.8,88.1z"/>
		<path class="st10" d="M80.8,88.1c-0.5-0.2-1.1-0.1-1.5,0.1c0,0,0.1,0,0.1,0.1c0.4,0.3,0.3,0.8,0.2,1.3c-0.3,1.1-0.8,2.1-1.6,2.8
			c-0.6,0.5-1.4,0.9-2.1,1.2c-2.7,1.1-5.5,1.9-8.4,2.2c-0.1,0.4-0.2,0.8-0.3,1.2c1.9,0.5,5.7-1,7.4-1.6c2.4-0.9,4.7-2.2,6.2-4.1
			c0.4-0.5,0.7-1.1,0.8-1.7C81.7,89,81.4,88.3,80.8,88.1z"/>
		<path class="st10" d="M74.6,90.1c-0.2,1.1-0.1,2.3,0.3,3.4c0.3-0.8,0.7-1.5,1.1-2.2C75.7,90.7,75.2,90.3,74.6,90.1z"/>
		<path class="st2" d="M59.5,87.5c0,0,3.1,2.6,12.4,1.9c0.4,0,0.7-0.1,1.1-0.2c1.8-0.5,7.3-2.1,12.6-6.4
			C85.6,82.8,73.3,88.2,59.5,87.5z"/>
		<path class="st11" d="M59.5,87.5c0,0,0.4,0.4,1.4,0.8c1,0.2,2.1,0.2,3.2,0.2c2.6,0,5.2-0.1,7.8-0.5c1.3-0.2,2.6-0.6,3.8-0.9
			c0.8-0.2,1.6-0.4,2.4-0.7c-0.2,0.5-0.5,1-0.8,1.5c2.4-1,5.4-2.6,8.3-4.9C85.6,82.8,73.3,88.2,59.5,87.5z"/>
		<path class="st12" d="M71.9,90.9c0,0-0.1,0-0.1-0.1c-0.1,0-0.2,0-0.2,0c-0.1,0-0.1,0-0.1,0c-0.1,0-0.1,0.1-0.2,0.1
			c0,0,0,0-0.1,0.1c0,0,0,0-0.1,0.1c0,0,0,0.1-0.1,0.1c0,0.1,0,0.1,0,0.2c0,0,0,0.1,0,0.1c0,0.1,0.1,0.1,0.1,0.2l0,0
			c0.1,0.1,0.2,0.1,0.3,0.1c0,0,0.1,0,0.1,0h0c0,0,0,0,0,0s0,0,0.1,0c0.1,0,0.3-0.1,0.4-0.2c0.1-0.1,0.1-0.1,0.1-0.2
			c0,0,0-0.1,0-0.2C72.2,91.3,72.1,91,71.9,90.9z"/>
		<path class="st3" d="M75.5,51.4c-2.8,1.2-4.7,3.7-5,6.5c0,0.3,0,0.6,0.1,0.9c0.4,0.4,1.1,0.3,1.7,0.1c1.6-0.4,3.2-0.8,4.8-0.5
			c1.9,0.3,3.7,1.4,5.7,1.4c2.1,0,4.1-1.4,4.4-3.3C88.3,51.1,79.3,49.7,75.5,51.4z"/>
		<path class="st3" d="M110.6,61.5c-1.1-0.3-2.3,0-3.3,0.6L89.6,72.5l0.8,3.7l18.9-11l1.2,0.8c0.6,0.4,1.3-0.1,1.3-0.8l-0.1-2.2
			C111.7,62.3,111.3,61.7,110.6,61.5z"/>
		<path class="st3" d="M94.8,70c-9.6-3.6-20.5-3.4-25.7-3l0,0c-1,0.1-1.8,0.1-2.4,0.2c-0.1,0-0.3,0-0.4,0.1c-1.9,0.1-6-0.7-6.2-0.8
			c-2.7-1.1-13.1-4.7-22.9-2.5c-0.5,0.1-0.8,0.5-0.8,1l0.1,1.7c0,0.4,0.3,0.7,0.6,1c0.3,0.2,0.4,0.4,0.4,0.7
			c0,2.3,0.5,12.8,7.5,15.1c7.6,2.5,15.9-0.5,15.5-8.3l0-1.5c0.5-1.4,1.1-2.8,2.7-2.2c2.2,0.8,2.2,4.2,2.2,4.2
			c-0.3,8.5,9.5,12.3,19,11.3c8.5-0.9,9.5-10.7,9.6-12.9c0-0.3,0.2-0.5,0.5-0.6c0.4-0.1,0.7-0.4,0.8-0.8l0.2-1.6
			C95.7,70.7,95.4,70.3,94.8,70z M55,81.9c0,0-14.6,5-15.5-13.7c0-0.7,0.2-1.3,0.7-1.6c2-0.9,7.4-2.5,16.3,1.1
			c1,0.4,1.8,1.5,1.9,2.8C58.6,74,58.6,80.9,55,81.9z M72.8,83.6c-4.9-1.7-5.1-8.4-4.9-11.9c0.1-1.2,1-2.2,2.4-2.4
			c11.4-1.9,18.4,0.7,20.9,2c0.7,0.3,1,1,0.9,1.7C91.6,90.7,72.8,83.6,72.8,83.6z"/>
		<path class="st13" d="M91.1,71.3c-2.5-1.3-9.5-3.8-20.9-2c-1.3,0.2-2.3,1.2-2.4,2.4c-0.2,3.5,0.1,10.2,4.9,11.9
			c0,0,18.8,7,19.3-10.7C92,72.3,91.7,71.6,91.1,71.3z"/>
		<path class="st5" d="M72.4,82.6c-1.3-0.4-2.2-1.2-2.9-2.2c-0.1,0-0.2,0-0.2,0c0.8,1.4,1.9,2.6,3.6,3.2c0,0,18.8,7,19.3-10.7
			c0-0.4-0.1-0.8-0.3-1.1C91.2,89.7,72.4,82.6,72.4,82.6z"/>
		<path class="st13" d="M56.5,67.7c-8.9-3.6-14.3-2-16.3-1.1c-0.5,0.3-0.8,0.9-0.7,1.6C40.5,86.9,55,81.9,55,81.9
			c3.6-1.1,3.6-7.9,3.4-11.5C58.3,69.2,57.5,68.1,56.5,67.7z"/>
		<path class="st5" d="M55.2,80.9c-3,0.8-4.2,1.2-8,0.6c-0.9-0.1-4.2-2.6-5-3.2c4.3,6.6,12.8,3.7,12.8,3.7c3.1-0.9,3.5-6,3.4-9.7
			C58.1,73.7,57.5,80.3,55.2,80.9z"/>
		<path class="st2" d="M94.3,70.8l-0.8-0.1c-0.3,0-0.5,0.1-0.5,0.4l0,0.2c0,0.2,0.1,0.5,0.4,0.5l0.8,0.1c0.3,0,0.5-0.1,0.5-0.4
			l0-0.2C94.8,71,94.6,70.8,94.3,70.8z"/>
		<path class="st2" d="M38.3,65.4c0-0.3-0.1-0.5-0.3-0.5l-0.4,0c-0.1,0-0.3,0.2-0.2,0.4l0,0.2c0,0.3,0.1,0.5,0.3,0.5l0.4,0
			c0.1,0,0.3-0.2,0.2-0.4L38.3,65.4z"/>
		<path class="st5" d="M72.5,70.4c-1.2,0-2.6,0.2-3,1.2l-0.1,0.1c-0.1,2.2,0.2,4.3,0.9,6.4c0.6,0,1.2-0.3,1.6-0.6
			c3.5-2.3,7.3-4.4,11.3-6.3C79.6,70.6,76.1,70.3,72.5,70.4z"/>
		<path class="st5" d="M43.2,66.5c-1.2,0-2.7,0.2-3,1.3l-0.1,0.1c0.2,2.3,0.7,4.5,1.7,6.7c0.7,0,1.2-0.3,1.6-0.6
			c3.4-2.4,7.1-4.6,11.1-6.6C50.8,66.7,47,66.4,43.2,66.5z"/>
		<path class="st5" d="M90,47.9c-1.9-0.9-7.9,0.9-5,3.1c1.7,1.3,3.9,2.1,6,2.7c0.7,0.2,1.4,0.3,2.1,0.1C97.2,52.9,91.5,48.6,90,47.9
			z"/>
		<path class="st4" d="M53.8,33.9c-0.7,1.1-1.1,2.3-1.4,3.6c-0.1,0.4-0.1,0.8,0,1.2c0.6,2.4,3-1.1,3.3-2
			C56.2,35.6,55,32.2,53.8,33.9z"/>
		<path class="st4" d="M58.7,32.7L58.7,32.7c-0.4-0.4-0.8-0.3-1.1-0.1c-0.4,0.1-0.7,0.5-0.7,1c0,0,0,0.1,0,0.1
			c0,0.1-0.1,0.2-0.1,0.4c0,0.2-0.1,0.4-0.1,0.6c0,0.4,0.2,0.7,0.5,1.1c0.1,0.1,0.4,0.2,0.5,0.1c0.3-0.1,0.5-0.3,0.7-0.4
			c0,0,0.1,0,0.1,0c0.5-0.3,0.8-1,0.8-1.5C59.2,33.4,59.1,32.9,58.7,32.7z"/>
		<path class="st5" d="M89.3,54.5c-0.4-0.5-1.3-0.9-1.7-0.2c-0.2,0.4-0.1,0.8,0.2,1.1c0,0.1,0.1,0.1,0.2,0.2
			c0.1,0.1,0.3,0.2,0.4,0.3c0.3,0.1,0.7,0.2,1-0.1c0.1-0.1,0.2-0.2,0.2-0.3c0,0,0-0.1,0-0.1c0,0,0-0.1,0.1-0.1
			C89.7,54.9,89.5,54.6,89.3,54.5z"/>
	</g>
</g>
<g>
	<path class="st4" d="M172.2,83.5c-3.9,0-6.7-1-8.6-2.9c-1.8-2-2.7-5.2-2.7-9.7l0,0c0-3.6,0.6-7.5,1.8-11.7s3.2-7.7,5.9-10.7
		c2.7-3,6.1-4.5,10.3-4.5l0,0c2.6,0,4.7,0.6,6.2,1.7c1.6,1.1,2.4,2.9,2.4,5.2l0,0c0,1.5-0.3,2.6-0.9,3.5c-0.6,0.8-1.5,1.3-2.7,1.3
		l0,0c-1.2,0-2.2-0.4-2.9-1.3l0,0c0.6-0.3,1.2-0.9,1.6-1.9s0.7-1.9,0.7-2.9l0,0c0-0.9-0.2-1.7-0.8-2.3c-0.5-0.6-1.3-0.9-2.4-0.9l0,0
		c-1.8,0-3.6,1.2-5.2,3.7c-1.7,2.5-3,5.6-4,9.4c-1,3.8-1.5,7.4-1.5,10.9l0,0c0,2.6,0.4,4.6,1.3,6c0.9,1.4,2.5,2.1,4.8,2.1l0,0
		c2,0,3.9-0.4,5.6-1.3s3.2-2.2,4.4-3.8l0,0l1.2,0.5c-0.9,2.2-2.1,4-3.8,5.4c-1.7,1.4-3.5,2.5-5.4,3.2
		C175.7,83.1,173.9,83.5,172.2,83.5L172.2,83.5z M190.6,83c-1.6,0-3-0.5-4-1.6s-1.5-2.6-1.5-4.6l0,0c0-0.9,0.1-2,0.4-3.3l0,0
		l3.5-16.6h7.4l-3.7,17.5c-0.1,0.5-0.2,1-0.2,1.4l0,0c0,1.4,0.5,2.1,1.6,2.1l0,0c1,0,1.8-0.4,2.5-1.2c0.7-0.8,1.2-1.9,1.6-3.3l0,0
		l3.5-16.6h7.4l-3.7,17.5c-0.1,0.5-0.2,1.1-0.2,1.7l0,0c0,0.7,0.2,1.2,0.5,1.5c0.3,0.3,0.9,0.4,1.6,0.4l0,0c1,0,1.8-0.4,2.5-1.2
		c0.7-0.8,1.3-1.9,1.7-3.3l0,0h2.2c-1.3,3.7-2.8,6.2-4.7,7.5c-1.9,1.3-3.8,2-5.6,2l0,0c-1.5,0-2.7-0.4-3.5-1.2
		c-0.9-0.8-1.4-2-1.6-3.7l0,0c-1.2,1.9-2.4,3.2-3.7,3.9C193.3,82.6,192,83,190.6,83L190.6,83z M206.9,95.5l8.6-40.6h7.4l-0.8,3.9
		c1.7-1.5,3.7-2.2,6-2.2l0,0c1.9,0,3.5,0.6,4.6,1.9c1.1,1.3,1.7,3.4,1.7,6.2l0,0c0,2.7-0.4,5.5-1.2,8.2c-0.8,2.8-2.1,5.1-4,7.1
		c-1.9,1.9-4.4,2.9-7.5,2.9l0,0c-2.2,0-3.7-0.6-4.4-1.9l0,0l-2.7,12.6L206.9,95.5z M220.1,78.5c1.7,0,3-0.8,4.1-2.3
		c1.1-1.5,1.9-3.4,2.4-5.5c0.5-2.2,0.8-4.2,0.8-6l0,0c0-2.9-0.9-4.3-2.6-4.3l0,0c-0.6,0-1.2,0.2-1.9,0.7s-1.2,1.1-1.7,1.9l0,0
		l-3,14.4C218.5,78.1,219.1,78.5,220.1,78.5L220.1,78.5z M264.5,95.5c-1.5,0-3.1-0.4-4.6-1.3c-1.5-0.9-3.4-2.2-5.7-4l0,0
		c-1.7-1.4-3.2-2.5-4.4-3.3c-1.2-0.8-2.5-1.6-4-2.1c-1.4-0.6-2.9-0.9-4.4-0.9l0,0c-0.5,0-0.9,0-1.2,0.1l0,0l7.7-35.7
		c-2.3,0.9-4.1,2.3-5.3,4.2c-1.3,1.9-1.9,4.2-1.9,7l0,0c0,1.3,0.1,2.2,0.4,2.7c0.2,0.5,0.4,0.8,0.4,0.9l0,0c-1.9,0-3.2-0.4-4.1-1.2
		s-1.4-2.1-1.4-3.8l0,0c0-2.2,0.9-4.3,2.7-6.4c1.8-2.1,4.1-3.8,6.9-5c2.8-1.3,5.6-1.9,8.4-1.9l0,0c0.5,0,1.2,0,2.1,0.1l0,0l-7.9,37
		c1,0.2,1.9,0.6,3,1.1c1,0.5,2.2,1.1,3.7,1.9l0,0c2.2,1.2,4.1,2.1,5.7,2.8c1.6,0.6,3.2,1,5,1l0,0c1.5,0,3-0.3,4.3-0.8l0,0
		c-0.3,2.5-0.9,4.5-1.8,5.9C267.1,94.8,265.9,95.5,264.5,95.5L264.5,95.5z M262.8,82.8c-2.5,0-4.6-0.7-6-2c-1.5-1.3-2.2-3.4-2.2-6.2
		l0,0c0-2.3,0.5-4.9,1.4-7.8c1-2.9,2.5-5.3,4.6-7.4s4.8-3.1,8.1-3.1l0,0c4.4,0,6.6,2.8,6.6,8.2l0,0v0.1c0.1,0,0.3,0,0.6,0l0,0
		c1.1,0,2.4-0.3,3.9-0.9c1.5-0.6,2.8-1.3,4-2.2l0,0l0.5,1.4c-1,1.1-2.3,2-3.9,2.7c-1.6,0.7-3.3,1.3-5.2,1.6l0,0
		c-0.3,3.1-1,5.9-2.1,8.2c-1.1,2.3-2.6,4.1-4.4,5.4C266.8,82.2,264.9,82.8,262.8,82.8L262.8,82.8z M264.8,78.2
		c0.8,0,1.7-0.5,2.5-1.4c0.8-0.9,1.5-2.2,2.2-3.9c0.6-1.6,1.1-3.4,1.3-5.4l0,0c-0.9-0.2-1.4-0.9-1.4-2.2l0,0c0-1.4,0.5-2.3,1.6-2.8
		l0,0c-0.1-1.1-0.2-1.9-0.5-2.3c-0.3-0.4-0.8-0.6-1.4-0.6l0,0c-1.1,0-2.2,0.8-3.3,2.5c-1.1,1.7-1.9,3.6-2.6,5.9
		c-0.7,2.3-1,4.3-1,6.1l0,0c0,1.6,0.2,2.8,0.6,3.3C263.2,77.9,263.8,78.2,264.8,78.2L264.8,78.2z M287,95.5c-1.6,0-3-0.4-4.1-1.3
		s-1.6-2.1-1.6-3.7l0,0c0-2,0.8-3.5,2.4-4.7c1.6-1.2,3.6-2.2,6-3l0,0l0.6-2.7c-1.8,1.9-3.8,2.8-6.2,2.8l0,0c-2,0-3.6-0.7-4.9-2
		c-1.3-1.3-2-3.4-2-6.3l0,0c0-2.5,0.5-5.2,1.5-8c1-2.8,2.5-5.2,4.5-7.1c2-1.9,4.4-2.9,7.2-2.9l0,0c1.4,0,2.5,0.2,3.1,0.7
		c0.7,0.5,1,1.1,1,1.9l0,0v0.3l0.6-2.7h7.4l-5.1,23.9c1.7-0.5,3-1.4,4-2.5c1-1.1,1.8-2.7,2.5-4.9l0,0h2.2c-0.9,3.1-2.2,5.3-3.8,6.7
		c-1.6,1.4-3.4,2.4-5.4,2.9l0,0l-0.8,3.7c-0.7,3.3-1.9,5.6-3.6,6.9C291.1,94.9,289.2,95.5,287,95.5L287,95.5z M287.4,77.9
		c0.8,0,1.6-0.4,2.4-1.1s1.4-1.7,1.7-2.9l0,0l2.6-12.2c0-0.4-0.2-0.8-0.5-1.3c-0.3-0.4-0.9-0.7-1.6-0.7l0,0c-1.4,0-2.6,0.8-3.7,2.4
		s-2,3.5-2.6,5.8c-0.6,2.2-0.9,4.2-0.9,5.9l0,0c0,1.7,0.2,2.8,0.8,3.3C286.1,77.7,286.7,77.9,287.4,77.9L287.4,77.9z M285.8,91.5
		c0.6,0,1.1-0.4,1.7-1.2c0.5-0.8,1-1.9,1.3-3.4l0,0l0.3-1.5c-3.4,1.2-5.1,2.7-5.1,4.4l0,0c0,0.4,0.2,0.8,0.5,1.2
		C284.9,91.3,285.3,91.5,285.8,91.5L285.8,91.5z"/>
</g>
</svg>
