<?xml version="1.0" encoding="utf-8"?>
<!-- Generator: Adobe Illustrator 26.3.1, SVG Export Plug-In . SVG Version: 6.00 Build 0)  -->
<svg version="1.1" id="Layer_1" xmlns="http://www.w3.org/2000/svg" xmlns:xlink="http://www.w3.org/1999/xlink" x="0px" y="0px"
	 viewBox="0 0 230 230" style="enable-background:new 0 0 230 230;" xml:space="preserve">
<style type="text/css">
	.st0{fill:#010101;fill-opacity:0.1;}
	.st1{fill:#FFFFFF;}
	.st2{fill:#EBEDF1;}
	.st3{fill:#4B2512;}
	.st4{fill:#89431F;}
	.st5{fill:#F09FC5;}
	.st6{fill:#B6572B;}
</style>
<g>
	<path class="st0" d="M196.4,205.2c-4.4,2.8-9.1,4.9-14,6.6c0.5-2.4,1.1-4.7,2.3-6.9c2.9-5-1.9-11.9-7.8-10.1
		c-6.1,1.9-11.7,4.7-17,8c0-4.8-6.3-7.6-10.5-5.6c-2.5,1.2-5,2.7-7.5,4.2c1.2-4.8-2.6-10.8-8.2-8.6c-9.5,3.7-18.8,8-27.8,12.8
		c1.9-5.1-1.7-11.5-7.9-9.8c-13.3,3.8-26.4,8.3-39.2,13.4c-3.4,1.4-5.9,4.6-4.8,8.5c0.9,3.3,5,6.2,8.5,4.8c8.1-3.3,16.4-6.3,24.7-9
		c-1,2-2.1,4-3.2,6c-3.1,5.7,3.4,13.3,9.4,9.4c5.5-3.6,11.1-7,16.8-10.1c-0.1,3.7,2.5,7.5,6.7,7.1c9.4-0.8,17.5-4.8,25.5-9.2
		c-5,6,4.2,14.6,10.5,8.9c4.6-4.2,9.5-8.3,14.8-11.6c-0.5,1.4-1.3,2.8-2.6,4c-4.9,4.7,0.1,13.5,6.7,11.5c10.8-3.3,22-6.3,31.6-12.5
		C210.8,212.3,203.9,200.4,196.4,205.2L196.4,205.2z"/>
	<path id="body" class="st1" d="M82.9,113.2c-8.7-19.8-30.2-29.5-48-21.7s-25.1,30.2-16.4,50s30.2,29.5,48,21.7S91.6,133,82.9,113.2
		z M58.6,145.3c-8.9,3.9-19.7-0.9-24-10.9c-4.4-9.9-0.7-21.1,8.2-25.1c8.9-3.9,19.7,0.9,24,10.9C71.2,130.2,67.5,141.4,58.6,145.3z"
		/>
	<path id="body_00000161618859951788483950000008914625659892521097_" class="st2" d="M82.9,113.2c-8.7-19.8-30.2-29.5-48-21.7
		c-0.6,0.3-1.2,0.5-1.7,0.8c0.5,4.9,1.5,12.8,3.2,22.1c1.6-2.2,3.8-3.9,6.4-5c8.9-3.9,19.7,0.9,24,10.9c4.4,9.9,0.7,21.1-8.2,25.1
		c-4.7,2.1-9.9,1.7-14.4-0.6c2.6,7.5,5.7,14.8,9.5,21.1c4.3,0,8.6-0.9,12.7-2.7C84.3,155.4,91.6,133,82.9,113.2L82.9,113.2z"/>
	<path id="body_00000033337872667335939610000017172729801179973525_" class="st3" d="M53.6,169.2c-5.3,0-10.6-1.2-15.8-3.5
		c-9.8-4.4-17.7-12.6-22.2-22.9c-9.5-21.4-1.4-45.8,18-54.3s42.9,1.9,52.3,23.4l0,0c9.4,21.4,1.3,45.8-18.1,54.3
		C63.3,168.2,58.4,169.2,53.6,169.2L53.6,169.2z M47.8,92.1c-3.9,0-7.8,0.8-11.6,2.4c-16,7.1-22.6,27.6-14.7,45.7
		c3.9,8.8,10.6,15.8,18.9,19.5c8.2,3.7,17,3.9,24.7,0.5c16.1-7.1,22.7-27.6,14.7-45.7C73.8,100.6,60.8,92.1,47.8,92.1z M52.1,150
		c-2.9,0-5.8-0.6-8.6-1.9c-5.3-2.4-9.5-6.8-12-12.3c-5.1-11.6-0.6-24.7,9.9-29.4c5.2-2.3,11-2.2,16.4,0.3c5.3,2.4,9.5,6.8,12,12.3
		c5.1,11.6,0.6,24.7-9.9,29.4C57.4,149.4,54.8,150,52.1,150L52.1,150z M49.3,111.3c-1.8,0-3.5,0.4-5.2,1.1
		c-7.2,3.2-10.2,12.5-6.5,20.7c1.8,4.1,4.9,7.2,8.7,9c3.7,1.7,7.6,1.7,11,0.2c7.2-3.2,10.2-12.5,6.5-20.7c-1.8-4.1-4.9-7.2-8.7-9
		C53.2,111.8,51.3,111.3,49.3,111.3L49.3,111.3z"/>
	<path id="body_00000078744188268709250420000013031162921189021864_" class="st3" d="M162.6,212.5c-0.5,0-1.1-0.1-1.6-0.2
		c-1.7-0.5-3-1.7-3.7-3.2l-14.6-32.6c-1.3-2.9,0-6.4,2.9-7.7s6.4,0,7.7,2.9L165,198l3.3-2.2c2.7-1.8,6.3-1.1,8.1,1.5
		c1.8,2.7,1.1,6.3-1.5,8.1l-9.1,6.2C164.9,212.2,163.7,212.5,162.6,212.5L162.6,212.5z"/>
	<path id="body_00000043424688942872193750000003211238201231180716_" class="st3" d="M105.2,214c-3,0-5.5-2.3-5.8-5.3l-0.8-9.6
		c-0.2-1.8,0.5-3.6,1.9-4.8s3.2-1.7,5-1.4c3.5,0.7,6.1,0.3,7.6-1.1c2.8-2.5,3-8.4,2.8-9.8c-0.3-3.2,2.1-6,5.3-6.3
		c3.2-0.3,6,2.1,6.3,5.3c0.1,1.3,0.8,12.8-6.7,19.5c-2.1,1.9-5.3,3.8-10.1,4.3l0.2,2.9c0.3,3.2-2.1,6-5.3,6.3
		C105.5,214,105.4,214,105.2,214L105.2,214z"/>
	<path id="body_00000108306095909477988680000016008784562823367099_" class="st3" d="M192.4,133.9c-2,0-3.9-1-5-2.9
		c-1.6-2.8-0.7-6.4,2-8l20.2-12c2.8-1.6,6.4-0.7,8,2s0.7,6.4-2,8l-20.2,12C194.4,133.6,193.4,133.9,192.4,133.9L192.4,133.9z"/>
	<path id="body_00000005263740324231060790000006746188907989581702_" class="st1" d="M195.5,61.6L46.3,76.2c0,0,1.5,32.3,11.7,62.7
		c8.8,26.5,34,44.3,61.9,43.5c3.7-0.1,7.8-0.4,12-0.8c4.3-0.4,8.3-1,12-1.6c27.6-4.7,48.7-26.9,52.3-54.7
		C200.2,93.6,195.5,61.6,195.5,61.6L195.5,61.6z"/>
	<path id="body_00000113320432228022020330000004756170108121367700_" class="st2" d="M152,166.7c-3.7,0.6-7.7,1.2-12,1.6
		c-4.3,0.4-8.3,0.7-12,0.8c-27.9,0.8-53-17-61.9-43.5c-6.2-18.6-9.2-38-10.6-50.2l-9.2,0.9c0,0,1.5,32.3,11.7,62.7
		c8.8,26.5,34,44.3,61.9,43.5c3.7-0.1,7.8-0.4,12-0.8c4.3-0.4,8.3-1,12-1.6c21.4-3.6,38.9-17.8,47.3-36.9
		C181.8,155.3,167.9,164,152,166.7L152,166.7z"/>
	
		<ellipse id="body_00000044894612205512083250000010385761100556728499_" transform="matrix(0.9953 -9.723176e-02 9.723176e-02 0.9953 -6.129 12.0813)" class="st1" cx="120.9" cy="68.9" rx="75" ry="26.8"/>
	<path id="body_00000005971731451839270340000011714236553672668830_" class="st3" d="M103.6,99.8c-12.7,0-24.5-1.3-34.4-3.7
		c-16-4-25.3-11-26.2-19.6l0,0c-0.8-8.6,6.9-17.2,21.9-24.3c13.9-6.6,32.8-11.3,53.1-13.3s39.7-1,54.6,2.7c16,4,25.3,11,26.2,19.6
		c0.8,8.6-6.9,17.2-21.9,24.3c-13.9,6.6-32.8,11.3-53.1,13.3C116.9,99.5,110.2,99.8,103.6,99.8L103.6,99.8z M138.3,44.6
		c-6.3,0-12.9,0.3-19.6,1C99.1,47.5,81.1,52,67.8,58.3c-12,5.5-18.8,12.1-18.2,17.6l0,0c0.5,5.5,8.5,10.6,21.2,13.8
		c14.2,3.6,32.8,4.5,52.4,2.6c42-4.1,70.1-19.3,69.1-30.3c-0.5-5.5-8.5-10.6-21.2-13.8C161.7,45.8,150.4,44.6,138.3,44.6L138.3,44.6
		z"/>
	<path id="body_00000119832292437014238680000001578144962793074588_" class="st3" d="M118.1,185.8c-13.7,0-26.9-4.2-38.2-12.2
		c-11.8-8.3-20.4-19.9-25-33.6C44.7,109.5,43.1,77.7,43,76.4c-0.1-1.8,1.3-3.3,3.1-3.4s3.3,1.3,3.4,3.1c0,0.3,1.6,32.2,11.5,61.8
		c4.1,12.4,11.9,22.8,22.6,30.3s23.2,11.3,36.1,10.9c3.8-0.1,7.8-0.4,11.8-0.8c1.8-0.2,3.4,1.1,3.6,2.9c0.2,1.8-1.1,3.4-2.9,3.6
		c-4.2,0.4-8.3,0.7-12.3,0.8C119.4,185.7,118.7,185.8,118.1,185.8L118.1,185.8z"/>
	<path id="body_00000077319592089551838460000016310613442689372819_" class="st3" d="M131.9,185c-1.7,0-3.1-1.3-3.3-3
		c-0.2-1.8,1.1-3.4,2.9-3.6c4-0.4,8-0.9,11.7-1.6c12.8-2.2,24.3-8.3,33.3-17.7s14.6-21.2,16.3-34.1c4-31-0.6-62.6-0.7-62.9
		c-0.3-1.8,1-3.5,2.8-3.7s3.5,1,3.7,2.8c0.2,1.3,4.8,32.8,0.7,64.7c-1.8,14.3-8.1,27.4-18,37.8c-10,10.5-22.8,17.3-37,19.7
		c-3.9,0.7-8,1.2-12.2,1.6C132.1,185,132,185,131.9,185L131.9,185z"/>
	
		<ellipse id="body_00000029013774513266367900000004131826950813831840_" transform="matrix(0.9953 -9.723175e-02 9.723175e-02 0.9953 -6.129 12.0813)" class="st4" cx="120.9" cy="68.9" rx="53.8" ry="11"/>
	<path class="st5" d="M155,135.2l-33,3.8c0,0,0.9,18.1,18.2,16.3C157.1,153.6,155,135.2,155,135.2z"/>
	<path class="st3" d="M137.8,158.7c-4.8,0-8.8-1.4-12-4.2c-6.6-5.7-7.1-15-7.1-15.4c-0.1-1.7,1.2-3.2,2.9-3.4l33-3.8
		c1.8-0.2,3.4,1.1,3.6,2.9c0,0.4,1.1,10.1-4.5,17c-3.1,3.9-7.6,6.1-13.2,6.7C139.6,158.7,138.7,158.7,137.8,158.7L137.8,158.7z
		 M125.7,141.9c0.6,2.3,1.8,5.5,4.4,7.7c2.4,2,5.7,2.9,9.7,2.5c3.9-0.4,6.8-1.8,8.8-4.3c2.2-2.7,2.9-6.3,3.1-8.9L125.7,141.9z"/>
	<path id="body_00000056416766102306301910000010752273233092214421_" class="st3" d="M100,130.1c-1.6,0-3.1-1.2-3.3-2.9
		c-0.9-7.2,4.3-13.8,11.5-14.6c7.2-0.9,13.8,4.3,14.6,11.5c0.2,1.8-1.1,3.4-2.9,3.7c-1.8,0.2-3.4-1.1-3.7-2.9
		c-0.2-1.8-1.1-3.3-2.5-4.4s-3.1-1.6-4.9-1.4c-3.6,0.4-6.2,3.7-5.7,7.3c0.2,1.8-1.1,3.4-2.9,3.7C100.2,130.1,100.1,130.1,100,130.1
		L100,130.1z"/>
	<path id="body_00000073709549217452539040000015659960147554220201_" class="st3" d="M152,123.3c-1.6,0-3.1-1.2-3.3-2.9
		c-0.9-7.2,4.3-13.8,11.5-14.6s13.8,4.3,14.6,11.5c0.2,1.8-1.1,3.4-2.9,3.7c-1.8,0.2-3.4-1.1-3.7-2.9c-0.4-3.6-3.7-6.2-7.3-5.7
		c-3.6,0.4-6.2,3.7-5.7,7.3c0.2,1.8-1.1,3.4-2.9,3.7C152.3,123.3,152.2,123.3,152,123.3L152,123.3z"/>
	<path id="body_00000152957072481710817070000004753290870497906305_" class="st3" d="M69.3,178.7c-0.9,0-1.9-0.2-2.7-0.7
		c-2.8-1.5-3.9-5.1-2.4-7.9l11.1-20.7c1.5-2.8,5.1-3.9,7.9-2.4s3.9,5.1,2.4,7.9l-11.1,20.7C73.4,177.6,71.4,178.7,69.3,178.7z"/>
	<path id="body_00000151508138566519608040000004301000907606034845_" class="st6" d="M174.5,63.7c-0.6-6.1-25.1-8.6-54.7-5.7
		S66.7,68.1,67.3,74.2c0.1,0.8,0.5,1.4,1.3,2.1c8.2-4.6,26.4-8.9,47.8-11c25.9-2.5,48-0.9,53.4,3.7C173,67.2,174.7,65.4,174.5,63.7
		L174.5,63.7z"/>
	<path id="body_00000166647467365204842120000017530138901306156447_" class="st3" d="M98.8,84.4c-5.6,0-10.8-0.2-15.4-0.7
		c-12.7-1.3-18.9-4.3-19.4-9.2l0,0c-0.5-4.9,5-9,17.2-12.8c10.1-3.1,23.7-5.6,38.2-7.1c5.8-0.6,56.9-5.2,58.3,8.7
		c1.4,13.9-49.6,19.2-55.5,19.8C114.1,84,106.1,84.4,98.8,84.4L98.8,84.4z M70.8,73.8c3,2.7,21.4,5.7,50.9,2.8
		c29.5-2.9,47-9.4,49.4-12.6c-3-2.7-21.4-5.7-50.9-2.8C90.6,64.1,73.2,70.6,70.8,73.8z M70.6,73.9L70.6,73.9L70.6,73.9z"/>
	<path class="st4" d="M37.8,20.3c-1-0.4-2.1-0.7-3.3-0.9h-0.1l0,0c-2.3-0.3-4.6,0-6.9,1c-6.6,2.9-9.6,10.6-6.6,17.1
		c2.9,6.6,10.6,9.5,17.2,6.6c9.8-4,21.5-6.8,21.5-6.8C51.8,26.2,42.6,21.9,37.8,20.3L37.8,20.3z"/>
	<path class="st3" d="M32.8,48.6c-6.2,0-12.2-3.6-14.9-9.7c-1.8-4-1.9-8.4-0.3-12.4c1.6-4.1,4.6-7.3,8.6-9c2.6-1.2,5.6-1.6,8.4-1.3
		c0.1,0,0.2,0,0.3,0l0,0c1.3,0.2,2.7,0.5,3.9,1C44,19,53.9,23.6,62.2,35.5c0.6,0.9,0.8,2,0.4,3c-0.4,1-1.2,1.8-2.3,2
		c-0.1,0-11.6,2.8-21,6.6C37.2,48.1,35,48.6,32.8,48.6L32.8,48.6z M32.8,22.6c-1.4,0-2.7,0.3-3.9,0.8c-2.4,1.1-4.2,3-5.2,5.4
		c-0.9,2.4-0.9,5,0.2,7.4c2.2,4.9,7.9,7.1,12.9,4.9h0.1c6-2.5,12.7-4.5,17.1-5.7c-6.5-7.5-13.4-10.7-17.3-12c-0.1,0-0.1-0.1-0.2-0.1
		c-0.8-0.3-1.6-0.5-2.4-0.6l0,0l0,0C33.6,22.6,33.2,22.6,32.8,22.6L32.8,22.6z"/>
	<path class="st4" d="M83.7,9.6C84,8.8,84.5,8,85,7.3l0.1-0.1l0,0c1.1-1.4,2.6-2.6,4.4-3.3c5.3-2.1,11.3,0.5,13.4,5.9
		c2.1,5.3-0.6,11.3-5.9,13.4c-7.7,3.3-15.8,8.3-15.8,8.3C79.2,20.8,81.9,13.2,83.7,9.6L83.7,9.6z"/>
	<path class="st3" d="M81.2,34.7c-0.5,0-0.9-0.1-1.3-0.3c-1-0.4-1.7-1.3-1.9-2.4c-2.1-11.5,0.8-19.8,2.8-23.8c0.4-1,1-2,1.7-2.9l0,0
		c0-0.1,0.1-0.2,0.1-0.2c1.5-1.9,3.5-3.4,5.7-4.2c3.4-1.3,7.1-1.2,10.4,0.2c3.3,1.5,5.9,4.1,7.2,7.5c2.7,7-0.8,14.8-7.7,17.6
		c-7.4,3.1-15.3,8-15.3,8C82.4,34.5,81.8,34.7,81.2,34.7z M87.7,9.2C87.7,9.2,87.7,9.3,87.7,9.2c-0.4,0.5-0.7,1.1-0.9,1.6
		c0,0.1-0.1,0.1-0.1,0.2c-1.3,2.7-3.2,7.8-2.8,15c3.1-1.8,7.6-4.1,11.9-6h0.1c3.6-1.4,5.4-5.5,4-9.1c-0.7-1.7-2-3.1-3.7-3.9
		s-3.6-0.8-5.4-0.1C89.5,7.4,88.5,8.2,87.7,9.2L87.7,9.2L87.7,9.2z"/>
</g>
</svg>
