<?xml version="1.0" encoding="utf-8"?>
<!-- Generator: Adobe Illustrator 26.3.1, SVG Export Plug-In . SVG Version: 6.00 Build 0)  -->
<svg version="1.1" id="Layer_1" xmlns="http://www.w3.org/2000/svg" xmlns:xlink="http://www.w3.org/1999/xlink" x="0px" y="0px"
	 viewBox="0 0 471.1 230" style="enable-background:new 0 0 471.1 230;" xml:space="preserve">
<style type="text/css">
	.st0{fill-opacity:0.1;}
	.st1{fill:#FFFFFF;}
	.st2{fill:#EBEDF2;}
	.st3{fill:#4C230C;}
	.st4{fill:#89421F;}
	.st5{fill:#F29FC5;}
	.st6{fill:#B5562B;}
</style>
<path class="st0" d="M184.8,205.3c-4.4,2.8-9.1,4.9-14,6.6c0.5-2.4,1.1-4.7,2.3-6.9c2.9-5-1.9-11.9-7.8-10.1c-6.1,1.9-11.7,4.7-17,8
	c0-4.8-6.3-7.6-10.5-5.6c-2.5,1.2-5,2.7-7.5,4.2c1.2-4.8-2.6-10.8-8.2-8.6c-9.5,3.7-18.8,8-27.8,12.8c1.9-5.1-1.7-11.5-7.9-9.8
	c-13.3,3.8-26.4,8.3-39.2,13.4c-3.4,1.4-5.9,4.6-4.8,8.5c0.9,3.3,5,6.2,8.5,4.8c8.1-3.3,16.4-6.3,24.7-9c-1,2-2.1,4-3.2,6
	c-3.1,5.7,3.4,13.3,9.4,9.4c5.5-3.6,11.1-7,16.8-10.1c-0.1,3.7,2.5,7.5,6.7,7.1c9.4-0.8,17.5-4.8,25.5-9.2c-5,6,4.2,14.6,10.5,8.9
	c4.6-4.2,9.5-8.3,14.8-11.6c-0.5,1.4-1.3,2.8-2.6,4c-4.9,4.7,0.1,13.5,6.7,11.5c10.8-3.3,22-6.3,31.6-12.5
	C199.2,212.4,192.3,200.5,184.8,205.3L184.8,205.3z"/>
<path id="body" class="st1" d="M71.3,113.3c-8.7-19.8-30.2-29.5-48-21.7s-25.1,30.2-16.4,50c8.7,19.8,30.2,29.5,48,21.7
	S80,133.1,71.3,113.3z M47,145.4c-8.9,3.9-19.7-0.9-24-10.9c-4.4-9.9-0.7-21.1,8.2-25.1c8.9-3.9,19.7,0.9,24,10.9
	C59.6,130.3,55.9,141.5,47,145.4z"/>
<path id="body_00000161618859951788483950000008914625659892521097_" class="st2" d="M71.3,113.3c-8.7-19.8-30.2-29.5-48-21.7
	c-0.6,0.3-1.2,0.5-1.7,0.8c0.5,4.9,1.5,12.8,3.2,22.1c1.6-2.2,3.8-3.9,6.4-5c8.9-3.9,19.7,0.9,24,10.9c4.4,9.9,0.7,21.1-8.2,25.1
	c-4.7,2.1-9.9,1.7-14.4-0.6c2.6,7.5,5.7,14.8,9.5,21.1c4.3,0,8.6-0.9,12.7-2.7C72.7,155.5,80,133.1,71.3,113.3L71.3,113.3z"/>
<path id="body_00000033337872667335939610000017172729801179973525_" class="st3" d="M42,169.3c-5.3,0-10.6-1.2-15.8-3.5
	c-9.8-4.4-17.7-12.6-22.2-22.9C-5.5,121.5,2.6,97.1,22,88.6c19.4-8.5,42.9,1.9,52.3,23.4l0,0c9.4,21.4,1.3,45.8-18.1,54.3
	C51.7,168.3,46.8,169.3,42,169.3L42,169.3z M36.2,92.2c-3.9,0-7.8,0.8-11.6,2.4C8.6,101.7,2,122.2,9.9,140.3
	c3.9,8.8,10.6,15.8,18.9,19.5c8.2,3.7,17,3.9,24.7,0.5c16.1-7.1,22.7-27.6,14.7-45.7C62.2,100.7,49.2,92.2,36.2,92.2z M40.5,150.1
	c-2.9,0-5.8-0.6-8.6-1.9c-5.3-2.4-9.5-6.8-12-12.3c-5.1-11.6-0.6-24.7,9.9-29.4c5.2-2.3,11-2.2,16.4,0.3c5.3,2.4,9.5,6.8,12,12.3
	c5.1,11.6,0.6,24.7-9.9,29.4C45.8,149.5,43.2,150.1,40.5,150.1L40.5,150.1z M37.7,111.4c-1.8,0-3.5,0.4-5.2,1.1
	c-7.2,3.2-10.2,12.5-6.5,20.7c1.8,4.1,4.9,7.2,8.7,9c3.7,1.7,7.6,1.7,11,0.2c7.2-3.2,10.2-12.5,6.5-20.7c-1.8-4.1-4.9-7.2-8.7-9
	C41.6,111.9,39.7,111.4,37.7,111.4L37.7,111.4z"/>
<path id="body_00000078744188268709250420000013031162921189021864_" class="st3" d="M151,212.6c-0.5,0-1.1-0.1-1.6-0.2
	c-1.7-0.5-3-1.7-3.7-3.2l-14.6-32.6c-1.3-2.9,0-6.4,2.9-7.7s6.4,0,7.7,2.9l11.7,26.3l3.3-2.2c2.7-1.8,6.3-1.1,8.1,1.5
	c1.8,2.7,1.1,6.3-1.5,8.1l-9.1,6.2C153.3,212.3,152.1,212.6,151,212.6L151,212.6z"/>
<path id="body_00000043424688942872193750000003211238201231180716_" class="st3" d="M93.6,214.1c-3,0-5.5-2.3-5.8-5.3l-0.8-9.6
	c-0.2-1.8,0.5-3.6,1.9-4.8c1.4-1.2,3.2-1.7,5-1.4c3.5,0.7,6.1,0.3,7.6-1.1c2.8-2.5,3-8.4,2.8-9.8c-0.3-3.2,2.1-6,5.3-6.3
	c3.2-0.3,6,2.1,6.3,5.3c0.1,1.3,0.8,12.8-6.7,19.5c-2.1,1.9-5.3,3.8-10.1,4.3l0.2,2.9c0.3,3.2-2.1,6-5.3,6.3
	C93.9,214.1,93.8,214.1,93.6,214.1L93.6,214.1z"/>
<path id="body_00000108306095909477988680000016008784562823367099_" class="st3" d="M180.8,134c-2,0-3.9-1-5-2.9
	c-1.6-2.8-0.7-6.4,2-8l20.2-12c2.8-1.6,6.4-0.7,8,2s0.7,6.4-2,8l-20.2,12C182.8,133.7,181.8,134,180.8,134L180.8,134z"/>
<path id="body_00000005263740324231060790000006746188907989581702_" class="st1" d="M183.9,61.7L34.7,76.3c0,0,1.5,32.3,11.7,62.7
	c8.8,26.5,34,44.3,61.9,43.5c3.7-0.1,7.8-0.4,12-0.8c4.3-0.4,8.3-1,12-1.6c27.6-4.7,48.7-26.9,52.3-54.7
	C188.6,93.7,183.9,61.7,183.9,61.7L183.9,61.7z"/>
<path id="body_00000113320432228022020330000004756170108121367700_" class="st2" d="M140.4,166.8c-3.7,0.6-7.7,1.2-12,1.6
	c-4.3,0.4-8.3,0.7-12,0.8c-27.9,0.8-53-17-61.9-43.5c-6.2-18.6-9.2-38-10.6-50.2l-9.2,0.9c0,0,1.5,32.3,11.7,62.7
	c8.8,26.5,34,44.3,61.9,43.5c3.7-0.1,7.8-0.4,12-0.8c4.3-0.4,8.3-1,12-1.6c21.4-3.6,38.9-17.8,47.3-36.9
	C170.2,155.4,156.3,164.1,140.4,166.8L140.4,166.8z"/>
<ellipse id="body_00000044894612205512083250000010385761100556728499_" transform="matrix(0.9953 -9.723549e-02 9.723549e-02 0.9953 -6.1957 10.9555)" class="st1" cx="109.3" cy="69" rx="75" ry="26.8"/>
<path id="body_00000005971731451839270340000011714236553672668830_" class="st3" d="M92,99.9c-12.7,0-24.5-1.3-34.4-3.7
	c-16-4-25.3-11-26.2-19.6l0,0c-0.8-8.6,6.9-17.2,21.9-24.3c13.9-6.6,32.8-11.3,53.1-13.3c20.3-2,39.7-1,54.6,2.7
	c16,4,25.3,11,26.2,19.6c0.8,8.6-6.9,17.2-21.9,24.3c-13.9,6.6-32.8,11.3-53.1,13.3C105.3,99.6,98.6,99.9,92,99.9L92,99.9z
	 M126.7,44.7c-6.3,0-12.9,0.3-19.6,1c-19.6,1.9-37.6,6.4-50.9,12.7C44.2,63.9,37.4,70.5,38,76l0,0c0.5,5.5,8.5,10.6,21.2,13.8
	c14.2,3.6,32.8,4.5,52.4,2.6c42-4.1,70.1-19.3,69.1-30.3c-0.5-5.5-8.5-10.6-21.2-13.8C150.1,45.9,138.8,44.7,126.7,44.7L126.7,44.7z
	"/>
<path id="body_00000119832292437014238680000001578144962793074588_" class="st3" d="M106.5,185.9c-13.7,0-26.9-4.2-38.2-12.2
	c-11.8-8.3-20.4-19.9-25-33.6c-10.2-30.5-11.8-62.3-11.9-63.6c-0.1-1.8,1.3-3.3,3.1-3.4c1.8-0.1,3.3,1.3,3.4,3.1
	c0,0.3,1.6,32.2,11.5,61.8c4.1,12.4,11.9,22.8,22.6,30.3c10.7,7.5,23.2,11.3,36.1,10.9c3.8-0.1,7.8-0.4,11.8-0.8
	c1.8-0.2,3.4,1.1,3.6,2.9c0.2,1.8-1.1,3.4-2.9,3.6c-4.2,0.4-8.3,0.7-12.3,0.8C107.8,185.8,107.1,185.9,106.5,185.9L106.5,185.9z"/>
<path id="body_00000077319592089551838460000016310613442689372819_" class="st3" d="M120.3,185.1c-1.7,0-3.1-1.3-3.3-3
	c-0.2-1.8,1.1-3.4,2.9-3.6c4-0.4,8-0.9,11.7-1.6c12.8-2.2,24.3-8.3,33.3-17.7c9-9.4,14.6-21.2,16.3-34.1c4-31-0.6-62.6-0.7-62.9
	c-0.3-1.8,1-3.5,2.8-3.7s3.5,1,3.7,2.8c0.2,1.3,4.8,32.8,0.7,64.7c-1.8,14.3-8.1,27.4-18,37.8c-10,10.5-22.8,17.3-37,19.7
	c-3.9,0.7-8,1.2-12.2,1.6C120.5,185.1,120.4,185.1,120.3,185.1L120.3,185.1z"/>
<ellipse id="body_00000029013774513266367900000004131826950813831840_" transform="matrix(0.9953 -9.723549e-02 9.723549e-02 0.9953 -6.1957 10.9555)" class="st4" cx="109.3" cy="69" rx="53.8" ry="11"/>
<path class="st5" d="M143.4,135.3l-33,3.8c0,0,0.9,18.1,18.2,16.3C145.5,153.7,143.4,135.3,143.4,135.3z"/>
<path class="st3" d="M126.2,158.8c-4.8,0-8.8-1.4-12-4.2c-6.6-5.7-7.1-15-7.1-15.4c-0.1-1.7,1.2-3.2,2.9-3.4l33-3.8
	c1.8-0.2,3.4,1.1,3.6,2.9c0,0.4,1.1,10.1-4.5,17c-3.1,3.9-7.6,6.1-13.2,6.7C128,158.8,127.1,158.8,126.2,158.8L126.2,158.8z
	 M114.1,142c0.6,2.3,1.8,5.5,4.4,7.7c2.4,2,5.7,2.9,9.7,2.5c3.9-0.4,6.8-1.8,8.8-4.3c2.2-2.7,2.9-6.3,3.1-8.9L114.1,142z"/>
<path id="body_00000056416766102306301910000010752273233092214421_" class="st3" d="M88.4,130.2c-1.6,0-3.1-1.2-3.3-2.9
	c-0.9-7.2,4.3-13.8,11.5-14.6c7.2-0.9,13.8,4.3,14.6,11.5c0.2,1.8-1.1,3.4-2.9,3.7c-1.8,0.2-3.4-1.1-3.7-2.9
	c-0.2-1.8-1.1-3.3-2.5-4.4s-3.1-1.6-4.9-1.4c-3.6,0.4-6.2,3.7-5.7,7.3c0.2,1.8-1.1,3.4-2.9,3.7C88.6,130.2,88.5,130.2,88.4,130.2
	L88.4,130.2z"/>
<path id="body_00000073709549217452539040000015659960147554220201_" class="st3" d="M140.4,123.4c-1.6,0-3.1-1.2-3.3-2.9
	c-0.9-7.2,4.3-13.8,11.5-14.6s13.8,4.3,14.6,11.5c0.2,1.8-1.1,3.4-2.9,3.7c-1.8,0.2-3.4-1.1-3.7-2.9c-0.4-3.6-3.7-6.2-7.3-5.7
	c-3.6,0.4-6.2,3.7-5.7,7.3c0.2,1.8-1.1,3.4-2.9,3.7C140.7,123.4,140.6,123.4,140.4,123.4L140.4,123.4z"/>
<path id="body_00000152957072481710817070000004753290870497906305_" class="st3" d="M57.7,178.8c-0.9,0-1.9-0.2-2.7-0.7
	c-2.8-1.5-3.9-5.1-2.4-7.9l11.1-20.7c1.5-2.8,5.1-3.9,7.9-2.4c2.8,1.5,3.9,5.1,2.4,7.9l-11.1,20.7C61.8,177.7,59.8,178.8,57.7,178.8
	z"/>
<path id="body_00000151508138566519608040000004301000907606034845_" class="st6" d="M162.9,63.8c-0.6-6.1-25.1-8.6-54.7-5.7
	S55.1,68.2,55.7,74.3c0.1,0.8,0.5,1.4,1.3,2.1c8.2-4.6,26.4-8.9,47.8-11c25.9-2.5,48-0.9,53.4,3.7C161.4,67.3,163.1,65.5,162.9,63.8
	L162.9,63.8z"/>
<path id="body_00000166647467365204842120000017530138901306156447_" class="st3" d="M87.2,84.5c-5.6,0-10.8-0.2-15.4-0.7
	c-12.7-1.3-18.9-4.3-19.4-9.2l0,0c-0.5-4.9,5-9,17.2-12.8c10.1-3.1,23.7-5.6,38.2-7.1c5.8-0.6,56.9-5.2,58.3,8.7
	c1.4,13.9-49.6,19.2-55.5,19.8C102.5,84.1,94.5,84.5,87.2,84.5L87.2,84.5z M59.2,73.9c3,2.7,21.4,5.7,50.9,2.8
	c29.5-2.9,47-9.4,49.4-12.6c-3-2.7-21.4-5.7-50.9-2.8C79,64.2,61.6,70.7,59.2,73.9z M59,74L59,74L59,74z"/>
<path class="st4" d="M26.2,20.4c-1-0.4-2.1-0.7-3.3-0.9c0,0-0.1,0-0.1,0l0,0c-2.3-0.3-4.6,0-6.9,1c-6.6,2.9-9.6,10.6-6.6,17.1
	c2.9,6.6,10.6,9.5,17.2,6.6c9.8-4,21.5-6.8,21.5-6.8C40.2,26.3,31,22,26.2,20.4L26.2,20.4z"/>
<path class="st3" d="M21.2,48.7C15,48.7,9,45.1,6.3,39C4.5,35,4.4,30.6,6,26.6c1.6-4.1,4.6-7.3,8.6-9c2.6-1.2,5.6-1.6,8.4-1.3
	c0.1,0,0.2,0,0.3,0h0c1.3,0.2,2.7,0.5,3.9,1c5.2,1.8,15.1,6.4,23.4,18.3c0.6,0.9,0.8,2,0.4,3c-0.4,1-1.2,1.8-2.3,2
	c-0.1,0-11.6,2.8-21,6.6C25.6,48.2,23.4,48.7,21.2,48.7L21.2,48.7z M21.2,22.7c-1.4,0-2.7,0.3-3.9,0.8c-2.4,1.1-4.2,3-5.2,5.4
	c-0.9,2.4-0.9,5,0.2,7.4c2.2,4.9,7.9,7.1,12.9,4.9l0.1,0c6-2.5,12.7-4.5,17.1-5.7C35.9,28,29,24.8,25.1,23.5c-0.1,0-0.1-0.1-0.2-0.1
	c-0.8-0.3-1.6-0.5-2.4-0.6c0,0,0,0,0,0c0,0,0,0,0,0C22,22.7,21.6,22.7,21.2,22.7L21.2,22.7z"/>
<path class="st4" d="M72.1,9.7c0.3-0.8,0.8-1.6,1.3-2.3c0,0,0.1-0.1,0.1-0.1l0,0c1.1-1.4,2.6-2.6,4.4-3.3c5.3-2.1,11.3,0.5,13.4,5.9
	c2.1,5.3-0.6,11.3-5.9,13.4c-7.7,3.3-15.8,8.3-15.8,8.3C67.6,20.9,70.3,13.3,72.1,9.7L72.1,9.7z"/>
<path class="st3" d="M69.6,34.8c-0.5,0-0.9-0.1-1.3-0.3c-1-0.4-1.7-1.3-1.9-2.4c-2.1-11.5,0.8-19.8,2.8-23.8c0.4-1,1-2,1.7-2.9l0,0
	C70.9,5.3,71,5.2,71,5.2c1.5-1.9,3.5-3.4,5.7-4.2c3.4-1.3,7.1-1.2,10.4,0.2c3.3,1.5,5.9,4.1,7.2,7.5c2.7,7-0.8,14.8-7.7,17.6
	c-7.4,3.1-15.3,8-15.3,8C70.8,34.6,70.2,34.8,69.6,34.8z M76.1,9.3C76.1,9.3,76.1,9.4,76.1,9.3c-0.4,0.5-0.7,1.1-0.9,1.6
	c0,0.1-0.1,0.1-0.1,0.2c-1.3,2.7-3.2,7.8-2.8,15c3.1-1.8,7.6-4.1,11.9-6c0,0,0.1,0,0.1,0c3.6-1.4,5.4-5.5,4-9.1
	c-0.7-1.7-2-3.1-3.7-3.9c-1.7-0.8-3.6-0.8-5.4-0.1C77.9,7.5,76.9,8.3,76.1,9.3C76.1,9.3,76.1,9.3,76.1,9.3L76.1,9.3z"/>
<g>
	<path class="st3" d="M267.8,142.6L267.8,142.6c-0.9-0.4-2-0.9-3.2-1.5c-1.2-0.7-2.4-1.5-3.5-2.5c-1.1-1-2-2.3-2.6-3.8l0,0
		c-0.6-1.8-1-3.5-1.2-5.2c-0.2-1.7-0.3-3.7-0.2-6l0,0c0-3.2,0.2-6,0.7-8.3c0.5-2.4,1.2-4.8,2.2-7.2l0,0c0.1-0.2,0.4-0.7,0.7-1.6
		c0.3-0.9,0.7-1.9,1.2-2.9c0.5-1,0.8-1.8,1-2.4l0,0c0.5-1,1.2-2.4,2.3-4.2c1-1.7,2.1-3.4,3.3-5.1l0,0c1.8-2.6,3.3-4.8,4.5-6.5
		c1.2-1.7,2.4-3.1,3.6-4.3c1.1-1.2,2.4-2.3,3.8-3.4c1.4-1.1,3.1-2.4,5.2-3.8l0,0c1.4-1,3.1-1.6,5.2-1.8c2.1-0.2,4.2,0.1,6.2,1
		c2,0.9,3.5,2.6,4.5,5l0,0c0.7,1.3,1,2.9,0.9,4.8c-0.1,1.9-0.4,4-1.1,6.2c-0.7,2.2-1.5,4.2-2.6,6.1c-1,1.9-2.2,3.4-3.5,4.6l0,0
		c-0.8,0.7-1.9,0.9-3.2,0.4c-1.3-0.5-2.4-1.1-3.3-1.9l0,0c-0.6-1-0.8-1.7-0.9-1.8c0-0.2,0.1-0.3,0.3-0.4l0,0
		c0.4-0.4,0.9-1.2,1.5-2.2c0.6-1,1.2-2.2,1.8-3.4c0.6-1.2,1-2.2,1.3-2.9l0,0c0.5-2.6,0.8-4.3,1-5.1c0.2-0.8,0-1.5-0.6-2.1l0,0
		c-0.2-0.2-0.6-0.3-1-0.3c-0.5,0.1-1.2,0.4-2.3,0.9l0,0c-1.4,0.6-3.1,1.9-5,3.7c-1.9,1.9-3.9,4.1-5.8,6.7l0,0
		c-2.5,3.3-4.5,6.1-6.2,8.7c-1.7,2.5-2.9,5.1-3.8,7.7l0,0c-0.1,0.2-0.3,0.7-0.6,1.4c-0.3,0.7-0.4,1-0.4,1l0,0c0.1,0.2,0,0.8-0.3,1.8
		c-0.2,0.9-0.5,1.8-0.8,2.4l0,0c-0.7,2.8-1.1,5.5-1.2,8.2c-0.1,2.6,0,4.9,0.5,6.8c0.5,1.9,1.1,3.4,2.1,4.3l0,0
		c0.8,0.6,1.8,0.7,3,0.6c1.2-0.2,2.6-0.6,4.2-1.3c1.6-0.7,3.3-1.4,5.2-2.2l0,0c1.5-0.6,2.8-1.3,4.1-2c1.2-0.7,2.1-1.4,2.8-1.9l0,0
		c0.5-0.4,1.1-0.8,1.9-1.2c0.8-0.4,1.4-0.6,2-0.6l0,0c0.9-0.3,1.5-0.1,1.9,0.7s0.6,1.8,0.6,3l0,0c0,0.9-0.6,1.9-1.8,3.1
		c-1.2,1.2-2.6,2.3-4.1,3.1l0,0c-0.5,0.5-1.1,0.9-2,1.3c-0.8,0.4-1.7,0.7-2.5,1l0,0c-1.3,1-2.9,1.9-4.8,2.9
		c-1.9,0.9-3.8,1.6-5.7,2.1C271.1,142.9,269.4,142.9,267.8,142.6z M321.3,136.4L321.3,136.4c-0.6-0.6-1.1-1.5-1.5-2.5
		c-0.4-1.1-0.7-2.3-1.1-3.7l0,0c-0.1-0.5-0.2-1-0.1-1.7c0-0.6,0-1.1-0.1-1.5l0,0c-0.2,0.4-0.5,1-0.9,1.7c-0.4,0.7-0.8,1.2-1.2,1.5
		l0,0c-0.2,0.2-0.8,0.7-1.7,1.4c-0.9,0.7-1.7,1.3-2.6,1.7l0,0c-2,1.3-3.8,1.9-5.4,1.8c-1.6-0.1-2.9-0.9-4.1-2.3l0,0
		c-1-0.8-1.8-1.8-2.4-3c-0.6-1.2-0.7-2.7-0.4-4.4l0,0c0.1-2.1,0.4-4.3,0.9-6.3c0.5-2.1,1.5-4.8,3-8.2l0,0c1.3-2.5,2.3-4.5,2.9-5.9
		c0.7-1.4,1.1-2.2,1.3-2.5l0,0c0.9-0.3,2.1-0.3,3.4,0.1c1.4,0.3,2.1,0.9,2.2,1.8l0,0c0.4,0.6,0.4,1.8,0,3.4
		c-0.4,1.7-1.1,3.6-2.2,5.8l0,0c-0.9,2.1-1.7,4.1-2.4,6.1c-0.8,2-1.2,3.6-1.4,5c-0.2,1.4,0.2,2.2,1,2.5l0,0c0.6,0.3,1.4,0.3,2.4-0.1
		c1.1-0.4,2.3-1.5,3.8-3.3c1.5-1.8,3-4.8,4.7-8.7l0,0c0.5-1.2,0.9-2.3,1.1-3.3c0.2-1,0.4-2,0.5-3.2l0,0c-0.1-0.7,0.1-1.5,0.6-2.3
		c0.5-0.8,1.1-1.4,1.9-1.8l0,0c0.2-0.3,0.6-0.6,1-0.9c0.4-0.3,0.7-0.3,0.8,0l0,0l1.5-0.1c0.2-0.1,0.5,0.2,0.8,0.7
		c0.3,0.6,0.6,1,0.9,1.2l0,0c0.7,0.6,1,1.7,0.9,3.6c-0.1,1.8-0.8,4.4-2.2,7.7l0,0c-1.2,2.5-1.9,4.4-2.3,5.7
		c-0.4,1.3-0.6,2.5-0.7,3.8l0,0c0,1.1,0.1,2,0.3,2.8c0.2,0.8,0.7,1.6,1.7,2.4l0,0c0.7,0.4,1.1,1.2,1.2,2.2c0.1,1,0.1,1.9,0,2.6l0,0
		c-0.1,0.6-0.6,0.9-1.4,1.1c-0.8,0.2-1.7,0.3-2.7,0.1C322.7,137.1,322,136.8,321.3,136.4z M330.1,137.1L330.1,137.1
		c0-0.5,0.1-1.1,0.3-1.8c0.2-0.7,0.3-1.2,0.3-1.5l0,0c0.2-0.9,0.6-2.4,1.3-4.6c0.6-2.2,1.4-4.6,2.4-7.4c0.9-2.8,1.9-5.5,2.8-8.1
		c0.9-2.6,1.7-4.9,2.5-6.7l0,0c0.7-1.7,1.4-3.3,1.8-4.8c0.5-1.5,0.7-2.5,0.7-3.1l0,0c0-0.2,0.1-0.4,0.2-0.6c0.1-0.1,0.4-0.5,0.8-1
		l0,0c0.6-0.6,1.4-0.8,2.4-0.7c1,0.2,1.8,0.5,2.5,1l0,0c0.5,0.8,0.8,1.5,1.1,2.2c0.2,0.6,0.2,1.6-0.1,3l0,0c0,0.9-0.2,1.8-0.6,2.5
		c-0.4,0.8-0.8,1.4-1.1,1.8c-0.3,0.5-0.5,0.7-0.3,0.6l0,0c2.7-1.7,5.1-2.6,7.3-2.7c2.2-0.1,4,0.2,5.5,1.1c1.5,0.9,2.6,2.1,3.4,3.6
		c0.8,1.5,1.2,3.2,1.2,5l0,0c0,0.7-0.2,1.7-0.7,2.9c-0.5,1.2-1,2.4-1.7,3.5c-0.6,1.1-1.1,1.8-1.5,2.2l0,0c-0.2,0-0.5,0.2-0.7,0.6
		c-0.2,0.4-0.5,0.8-0.7,1.3l0,0c-0.5,0.6-1.3,1.3-2.4,2.1c-1.1,0.8-2.3,1.4-3.4,1.8c-1.2,0.5-2,0.6-2.5,0.4l0,0c0,0-0.1,0.1-0.2,0.2
		c-0.2,0.1-0.2,0.3-0.2,0.6l0,0c0,0.1-0.4,0.4-1.3,0.7c-0.9,0.4-1.9,0.7-3,1s-2.2,0.5-3.2,0.5l0,0c-1.3,0-2.2-0.2-2.8-0.7l0,0
		c-0.1,0.1-0.3,0.3-0.4,0.6c-0.2,0.2-0.2,0.5-0.2,0.6l0,0c0,0.4-0.1,1-0.4,1.7c-0.3,0.8-0.6,1.5-1,2.2c-0.4,0.6-0.7,1-1,1l0,0
		c0,0-0.1,0.1-0.2,0.3c-0.1,0.2-0.1,0.4,0.2,0.7l0,0c0,0,0,0.4,0,1.1c0,0.7-0.2,1.3-0.5,1.8l0,0c0,0.5-0.1,1.2-0.3,2.2
		s-0.4,1.7-0.6,2.2l0,0c0,0.7-0.1,1.5-0.3,2.2c-0.2,0.7-0.5,1.1-0.7,1.1l0,0c-0.2,0.1-0.4,0.4-0.5,1.2c-0.1,0.7-0.1,1.2-0.1,1.5l0,0
		c-0.1,1.5-0.6,2.9-1.5,4c-0.9,1.1-1.7,1.7-2.5,1.7l0,0c-0.2,0-0.6,0-1,0c-0.5,0-0.9-0.2-1.2-0.8l0,0c-0.2-0.3-0.6-0.9-1.1-1.8
		c-0.5-0.9-0.6-2.1-0.3-3.7l0,0c0.3-1,0.6-2.1,0.7-3.1c0.2-1,0.3-1.8,0.3-2.3l0,0c0-0.2,0.1-0.7,0.2-1.4c0.1-0.7,0.2-1.2,0.2-1.5
		l0,0c0.3-0.5,0.6-1.2,0.7-2 M341.9,125.8L341.9,125.8c0.5,0,1.4-0.2,2.7-0.6c1.3-0.4,2.6-1,4.1-1.6c1.4-0.6,2.5-1.3,3.3-2l0,0
		c1.6-1.4,2.8-2.8,3.7-4.1c0.9-1.4,0.8-2.9-0.2-4.5l0,0c-0.5-0.9-1.3-1.2-2.3-1c-1.1,0.1-2.3,0.7-3.6,1.5s-2.6,1.9-4,3.2l0,0
		c-0.7,0.8-1.4,1.7-2,2.8c-0.6,1-1.1,2.1-1.5,3c-0.4,1-0.6,1.8-0.7,2.4C341.3,125.5,341.4,125.8,341.9,125.8z M377.1,142.2
		L377.1,142.2c-2.5-0.6-4.4-1.9-5.9-3.8c-1.5-1.9-2.7-4.3-3.6-7l0,0c-0.1-0.8-0.1-1.9-0.1-3.3c0-1.4,0.1-2.7,0.2-4
		c0.1-1.2,0.2-1.9,0.4-2.1l0,0c0.2-0.1,0.3-0.5,0.3-1.1l0,0c-0.1-0.2,0-0.7,0.1-1.2c0.1-0.6,0.3-1.2,0.5-1.8l0,0
		c0.3-0.7,0.5-1.3,0.5-1.8c0-0.5,0-0.8-0.1-1.1l0,0c0,0,0.1-0.2,0.3-0.6c0.2-0.4,0.4-0.7,0.6-1l0,0c0.4-0.4,0.5-0.7,0.5-1.1
		c0-0.4-0.1-0.6-0.1-0.6l0,0c-0.1-0.2,0-0.6,0.2-1s0.4-0.8,0.6-1l0,0c0.1-0.1,0.3-0.4,0.5-0.8c0.2-0.4,0.3-0.6,0.3-0.6l0,0
		c0-0.2,0.1-0.7,0.4-1.5c0.3-0.8,0.6-1.7,1-2.6c0.4-0.9,0.7-1.8,1-2.6c0.3-0.8,0.6-1.3,0.8-1.6l0,0v-0.2c0.2-0.6,0.6-1.3,1-1.9l0,0
		c0.1-0.3,0.2-0.8,0.5-1.5c0.2-0.7,0.5-1.4,0.8-2.1l0,0c0.7-1.5,1.5-3.1,2.5-5c1-1.9,2.1-3.8,3.3-5.6c1.2-1.9,2.3-3.6,3.4-5.1
		c1.1-1.5,2-2.6,2.8-3.4l0,0c1-1.2,2.1-2,3.2-2.5c1.1-0.5,2.1-0.3,3,0.6l0,0c0.4,0.4,0.8,1.1,1.1,1.9c0.3,0.8,0.4,1.6,0.4,2.3
		c0,0.7-0.3,1.1-0.8,1.1l0,0c-0.4,0.2-1,0.9-1.7,2.1c-0.7,1.1-1.5,2.5-2.4,4c-0.9,1.5-1.8,3.1-2.6,4.7c-0.9,1.6-1.7,3.1-2.4,4.4l0,0
		c-0.8,1.8-1.5,3.3-2.2,4.7c-0.7,1.3-1,2-1,2l0,0c-0.1,0.2-0.1,0.3-0.2,0.5s-0.1,0.2-0.2,0.4l0,0c-0.9,1.9-1.7,3.6-2.3,5.2
		c-0.6,1.6-1.2,3.2-1.8,4.9l0,0c-0.4,0.4-0.6,0.9-0.6,1.3s-0.1,0.6-0.1,0.6l0,0c-0.1-0.1-0.2,0.1-0.3,0.4c-0.1,0.3-0.2,0.7-0.4,1.2
		l0,0c-0.3,0.2-0.5,0.6-0.6,1.1c-0.1,0.5-0.1,1-0.1,1.5l0,0c-0.4,1.1-0.8,2.4-1.2,4c-0.4,1.6-0.6,3.1-0.8,4.5
		c-0.1,1.4-0.2,2.6-0.1,3.4l0,0c0.1,1,0.4,1.9,0.9,2.6c0.5,0.7,1.1,1.3,2,1.7l0,0c0.7,0.3,1.3,0.6,1.8,0.8c0.6,0.2,1,0.3,1.5,0.3
		l0,0c0.5,0.1,1.1,0,1.9,0c0.8-0.1,1.8-0.3,3.2-0.5l0,0h-0.1c0.8-0.1,1.6-0.3,2.5-0.5c0.9-0.2,1.7-0.4,2.5-0.6l0,0
		c0.7-0.1,1.4-0.3,2.1-0.4c0.7-0.1,1.2-0.3,1.6-0.4l0,0c1.4-0.4,2.4-0.7,3.3-0.9c0.8-0.2,1.4-0.2,1.7,0l0,0c0.3,0.2,0.6,0.7,1,1.4
		c0.4,0.7,0.5,1.3,0.3,1.8l0,0c-0.1,0.3-0.7,0.9-1.8,1.9c-1.1,0.9-2.4,1.9-3.8,2.9c-1.4,0.9-2.7,1.6-3.9,2l0,0
		c-1.2,0.6-2.9,0.9-4.9,1.2c-2.1,0.2-4,0.3-5.9,0.1C379.6,142.7,378.1,142.5,377.1,142.2z M414,135.9L414,135.9
		c-0.8,0-1.4-0.2-1.9-0.5c-0.5-0.3-1-0.7-1.7-1.3l0,0c-1.2-1.2-2.1-2.5-2.8-4c-0.7-1.4-1-2.6-0.8-3.7l0,0c0.2-0.5,0.3-1,0.2-1.4
		c0-0.5,0-0.7,0-0.7l0,0c-0.3-0.3-0.4-0.5-0.3-0.6c0.1-0.1,0.2-0.3,0.4-0.5l0,0c0.4,0,0.5-0.3,0.4-1l0,0c-0.1-0.5,0.1-1.6,0.6-3.2
		c0.5-1.6,1.3-3.2,2.2-4.6l0,0c0.4-0.6,0.9-1.4,1.7-2.4c0.7-1,1.6-2,2.4-3c0.9-1,1.7-1.8,2.4-2.4l0,0c1.5-1.3,3-2.3,4.3-3.1
		c1.3-0.8,2.6-1.4,4-1.7l0,0c1.4-0.3,2.7-0.5,4.2-0.5c1.4,0,2.6,0.5,3.6,1.5l0,0c1.4,0.6,2.4,1.4,3,2.5c0.6,1,1,2.4,1.1,4.1l0,0
		c0.2,1.8,0,4.1-0.6,6.8c-0.6,2.7-2.1,5.7-4.5,9.2l0,0c-1.5,2.2-3,3.9-4.5,5.2c-1.5,1.2-3.1,2.4-4.9,3.4l0,0
		c-1.3,0.9-2.7,1.4-4.1,1.6C416.8,135.6,415.4,135.8,414,135.9z M423.4,124.7L423.4,124.7c1.4-1.2,2.3-2.5,2.9-3.9
		c0.6-1.4,1.2-3.1,1.9-5l0,0c0.2-0.4,0.4-1,0.5-1.8c0.1-0.9,0.1-1.7,0.1-2.5c-0.1-0.8-0.3-1.3-0.6-1.4l0,0c-0.6-0.4-1.1-0.5-1.7-0.3
		c-0.6,0.2-1.3,0.6-2.1,1.3l0,0c-1.8,1.5-3.5,3.3-5.1,5.3c-1.6,2-2.7,4.4-3.3,7.3l0,0c-0.2,1.5,0,2.7,0.5,3.5c0.5,0.8,1.4,1,2.6,0.6
		C420.2,127.3,421.6,126.3,423.4,124.7z M451.5,155L451.5,155c-1.7,0.7-3.5,0.6-5.4-0.3c-1.9-0.9-3.5-2.3-4.8-4.2l0,0
		c-0.2-0.4-0.6-1-1.1-2c-0.5-1-1-2-1.4-3.1c-0.5-1.1-0.8-2.1-1-2.9c-0.2-0.8-0.2-1.3-0.1-1.4l0,0c0.2-0.7,0.8-1.1,1.7-1.2
		s1.7-0.1,2.6,0.1c0.9,0.2,1.4,0.5,1.5,0.9l0,0c0.2,0.4,0.4,0.9,0.6,1.3c0.2,0.5,0.4,0.9,0.7,1.3c0.3,0.4,0.5,0.7,0.8,1l0,0
		c0.7,1,1.4,1.8,2.2,2.2c0.8,0.4,1.4,0.4,1.8,0.1l0,0c1-0.8,1.8-1.7,2.4-2.8c0.5-1.1,1.2-3,2.1-5.7l0,0c0.7-2.3,1.3-4.2,1.7-5.9
		c0.5-1.7,1-3.2,1.6-4.6l0,0c0.2-0.7,0.4-1.4,0.7-1.9c0.3-0.5,0.5-0.9,0.8-1.2l0,0h0.6c-1.4,0.9-2.5,1.7-3.4,2.6
		c-0.9,0.9-2.2,1.6-3.8,2.3l0,0c-0.4,0.4-1.3,0.7-2.7,0.8c-1.4,0.1-2.8-0.1-4.2-0.5l0,0c-0.9-0.5-1.5-1-2.1-1.5
		c-0.5-0.5-1-1.1-1.3-1.8c-0.3-0.7-0.7-1.5-1.1-2.4l0,0c-0.4-0.9-0.5-2.4-0.2-4.5c0.3-2.1,0.9-4.2,1.7-6.3l0,0
		c0.7-1.5,1.8-3.2,3.2-5c1.4-1.8,2.9-3.4,4.5-4.8c1.6-1.4,3-2.3,4.3-2.7l0,0c0.5-0.2,1.4-0.5,2.6-0.9c1.2-0.3,2.4-0.3,3.5,0l0,0
		c1,0.1,1.8,0.4,2.4,0.7c0.6,0.3,1.4,1,2.7,2.1l0,0c0.8,0.8,1.8,1.8,2.9,3.1c1.2,1.3,1.9,2.3,2.2,3.2l0,0c0.4,0.9,0.5,1.9,0.3,3
		c-0.2,1.1-0.7,2-1.3,2.8l0,0c-0.6,0.8-1.1,1.6-1.7,2.4c-0.6,0.8-1.1,1.9-1.4,3.3l0,0c-0.3,1.8-0.9,3.9-1.7,6.2
		c-0.9,2.3-1.5,4.4-2,6.4l0,0l-1.5,5.7c-1.5,5.2-3.2,9-5.1,11.4C454.3,152.8,452.8,154.3,451.5,155z M449.6,123.3L449.6,123.3
		c1.2-0.1,2.3-0.2,3.2-0.4c0.9-0.2,1.7-0.7,2.5-1.5c0.8-0.8,1.7-1.9,2.8-3.5l0,0c1-1.5,1.8-2.8,2.2-4.1c0.4-1.2,0.6-2.6,0.5-4.1l0,0
		c-0.1-1-0.3-1.6-0.8-1.9s-1.1-0.4-1.9-0.3l0,0c-1.2,0.2-2.2,0.7-3.1,1.4c-0.9,0.8-2,1.9-3.2,3.5l0,0c-0.9,1.2-1.7,2.7-2.3,4.4l0,0
		c-0.6,1.8-0.9,3.3-0.8,4.4C448.6,122.4,449,123.1,449.6,123.3z"/>
</g>
</svg>
