<?xml version="1.0" encoding="utf-8"?>
<!-- Generator: Adobe Illustrator 26.3.1, SVG Export Plug-In . SVG Version: 6.00 Build 0)  -->
<svg version="1.1" id="Layer_1" xmlns="http://www.w3.org/2000/svg" xmlns:xlink="http://www.w3.org/1999/xlink" x="0px" y="0px"
	 viewBox="0 0 145 145" style="enable-background:new 0 0 145 145;" xml:space="preserve">
<style type="text/css">
	.st0{fill:#E5E1CF;}
	.st1{fill:#A09D92;}
	.st2{fill:#FFFFFF;}
	.st3{fill:#21110B;}
	.st4{fill:#684730;}
	.st5{fill:#936648;}
	.st6{fill:#D59570;}
	.st7{fill:#7A776E;}
	.st8{fill:#342215;}
	.st9{fill:#D74229;}
	.st10{fill:#911F1D;}
	.st11{fill:#B8B7B4;}
	.st12{fill:#F26758;}
	.st13{fill:#24150D;}
</style>
<g>
	<path class="st0" d="M70.7,4.6L70.7,4.6c39,0,70.6,30.4,70.6,67.9l0,0c0,37.5-31.6,67.9-70.6,67.9l0,0c-39,0-70.6-30.4-70.6-67.9
		l0,0C0.1,35,31.7,4.6,70.7,4.6z"/>
	<g>
		<path class="st0" d="M97.7,97.3c-6.4-5.6-15.8-11-26.4-15.2s-21.1-6.7-29.6-7c-0.6,0-1.2,0-1.8,0c-7.1,0-11.8,1.7-13.1,4.8
			c-1.3,3.4,1.4,8.3,7.5,13.7c6.4,5.6,15.8,11,26.4,15.2s21.1,6.7,29.6,7c8.1,0.3,13.5-1.5,14.8-4.8c0.2-0.6,0.3-1.2,0.3-1.8
			C105.5,106,102.8,101.8,97.7,97.3z"/>
		<path class="st1" d="M93.3,98.2c-5.4-4.7-13.4-9.3-22.3-12.8c-9-3.6-17.8-5.7-25-5.9c-0.5,0-1,0-1.5,0c-6,0-10,1.5-11,4.1
			c-1.1,2.8,1.2,7.1,6.4,11.6c5.3,4.6,13.2,9.1,22.2,12.7s17.8,5.7,25,5.9c6.9,0.3,11.4-1.2,12.6-4.1c0.2-0.5,0.3-1,0.3-1.5
			C99.9,105.5,97.6,101.9,93.3,98.2z"/>
		<path class="st2" d="M114,97.9c-9-9-22.5-17.4-37.9-23.5c-14.5-5.8-29.1-8.9-41.4-8.9c-0.8,0-1.5,0-2.3,0
			c-6.1,0.3-11.3,1.3-15.2,3c-4,1.8-6.6,4.3-7.8,7.4s-1,6.7,0.7,10.7s4.7,8.3,9,12.6c9,9,22.5,17.4,37.9,23.5s31,9.3,43.7,8.8
			c6.1-0.2,11.3-1.2,15.2-3c4-1.8,6.6-4.3,7.8-7.4c1.2-3.1,1-6.7-0.7-10.7C121.4,106.5,118.3,102.2,114,97.9z M25.4,79.4
			c1.6-4.1,7.5-6.2,16.4-5.8c8.7,0.3,19.4,2.8,30.1,7.1c10.7,4.2,20.3,9.7,26.8,15.5c6.8,5.9,9.6,11.4,8,15.5
			c-0.8,1.9-2.4,3.4-4.9,4.4s-5.7,1.5-9.7,1.5c-0.6,0-1.2,0-1.9,0c-8.7-0.3-19.4-2.9-30.1-7.1S39.8,100.8,33.3,95
			C26.6,89,23.8,83.5,25.4,79.4z M120.7,122.2c0,0.1-0.1,0.3-0.1,0.4c-0.1,0.2-0.1,0.4-0.2,0.5c-0.4,0.8-1.2,2-2.6,3
			s-3.3,2.1-5.6,2.8c-2.3,0.7-5.1,1.2-8.1,1.4c-6.1,0.4-13.4-0.1-21.2-1.6c-7.9-1.5-16.4-4-24.9-7.4c-8.6-3.4-16.5-7.4-23.3-11.7
			c-6.8-4.3-12.5-8.8-16.6-13.3c-2.1-2.3-3.7-4.5-4.9-6.6s-1.9-4.2-2.2-5.9c-0.3-1.7,0-3.1,0.2-4c0.1-0.2,0.1-0.4,0.2-0.6
			c0.1-0.2,0.1-0.3,0.2-0.4c0.1-0.2,0.2-0.3,0.2-0.3c0.1,0,0,0.5-0.2,1.3c-0.1,0.9-0.2,2.1,0.2,3.7s1.2,3.4,2.4,5.4s2.9,4.1,5,6.2
			c4.1,4.2,9.8,8.6,16.6,12.7c6.7,4.1,14.5,8,23,11.3s16.8,5.9,24.5,7.5s14.8,2.3,20.7,2.1c3-0.1,5.6-0.5,7.9-1.1s4.1-1.4,5.4-2.3
			s2.2-1.9,2.7-2.6s0.7-1.1,0.8-1.1C120.8,121.9,120.7,122,120.7,122.2z"/>
		<path class="st1" d="M119.5,124.5c-0.4,0.6-1,1.2-1.7,1.7c-1.4,1.1-3.3,2.1-5.6,2.8c-2.3,0.7-5.1,1.2-8.1,1.4
			c-6.1,0.4-13.4-0.1-21.2-1.6c-7.9-1.5-16.4-4-24.9-7.4c-8.6-3.4-16.5-7.4-23.3-11.7c-6.8-4.3-12.5-8.8-16.6-13.3
			c-2.1-2.3-3.7-4.5-4.9-6.6c-0.9-1.6-1.5-3.1-1.9-4.5c-0.2-0.3-0.3-0.7-0.5-1c-1.2-3-1.7-5.7-1.3-8.2c-1.2,3.1-1,6.7,0.7,10.7
			s4.7,8.3,9,12.6c9,9,22.5,17.4,37.9,23.5c15.4,6.1,31,9.3,43.7,8.8c6.1-0.2,11.3-1.2,15.2-3c4-1.8,6.6-4.3,7.8-7.4
			c0.3-0.8,0.5-1.7,0.7-2.5l0,0C123.5,121,121.8,122.9,119.5,124.5z"/>
		<path class="st1" d="M17.9,96.4c-2.1-2.3-3.7-4.5-4.9-6.6c-0.9-1.6-1.5-3.1-1.9-4.5c-0.2-0.3-0.3-0.7-0.5-1
			c-1.2-3-1.7-5.7-1.3-8.2c-1.2,3.1-1,6.7,0.7,10.7s4.7,8.3,9,12.6c9,9,22.4,17.3,37.7,23.4c0.2-0.5,0.3-1,0.4-1.5
			c-8.3-3.3-16-7.3-22.7-11.4C27.8,105.5,22.1,100.9,17.9,96.4z"/>
		<path class="st3" d="M77,72.1c-15.7-6.2-31.6-9.4-44.7-9C18.9,63.5,9.9,67.8,7,75c-2.9,7.3,0.8,16.5,10.3,26
			c9.3,9.3,23,17.8,38.7,24c14.8,5.9,29.7,9,42.4,9c0.8,0,1.6,0,2.4,0c13.4-0.4,22.4-4.7,25.3-11.9c2.9-7.3-0.8-16.5-10.3-26
			C106.5,86.9,92.8,78.3,77,72.1z M123.7,121.3c-1.2,3.1-3.9,5.6-7.8,7.4c-4,1.8-9.1,2.8-15.2,3C88,132.1,72.4,129,57,122.9
			c-15.4-6.1-28.9-14.4-37.9-23.5c-4.3-4.3-7.4-8.6-9-12.6c-1.7-4-1.9-7.6-0.7-10.7s3.9-5.6,7.8-7.4c4-1.8,9.1-2.8,15.2-3
			c0.8,0,1.5,0,2.3,0c12.3,0,26.9,3.1,41.4,8.9C91.5,80.7,105,89.1,114,98.1c4.3,4.3,7.4,8.6,9,12.6
			C124.7,114.5,124.9,118.1,123.7,121.3z"/>
		<path class="st1" d="M98.8,96.1C92.2,90.4,82.7,84.9,72,80.6c-10.7-4.2-21.5-6.8-30.1-7.1c-9-0.3-14.8,1.7-16.4,5.8
			c-1.6,4.1,1.2,9.6,8,15.5c6.5,5.7,16.1,11.2,26.8,15.5c10.7,4.2,21.5,6.8,30.1,7.1c0.6,0,1.3,0,1.9,0c4,0,7.2-0.5,9.7-1.5
			s4.1-2.5,4.9-4.4C108.4,107.5,105.5,102,98.8,96.1z M105.2,111c-1.3,3.4-6.7,5.1-14.8,4.8c-8.5-0.3-19-2.8-29.6-7
			s-19.9-9.6-26.4-15.2c-6.1-5.3-8.9-10.3-7.5-13.7c1.2-3.1,6-4.8,13.1-4.8c0.6,0,1.2,0,1.8,0c8.5,0.3,19,2.8,29.6,7
			s19.9,9.6,26.4,15.2c5.1,4.4,7.8,8.6,7.8,11.9C105.5,109.8,105.4,110.4,105.2,111z"/>
		<path class="st3" d="M119.9,123c-0.5,0.7-1.3,1.7-2.7,2.6c-1.3,0.9-3.2,1.7-5.4,2.3c-2.3,0.6-4.9,0.9-7.9,1.1
			c-5.9,0.2-13-0.5-20.7-2.1c-7.7-1.6-16-4.1-24.5-7.5s-16.3-7.2-23-11.3C29,104,23.3,99.7,19.1,95.4c-2.1-2.1-3.8-4.2-5-6.2
			s-2-3.8-2.4-5.4s-0.3-2.9-0.2-3.7c0.1-0.9,0.3-1.3,0.2-1.3c0,0-0.1,0.1-0.2,0.3c-0.1,0.1-0.1,0.2-0.2,0.4
			c-0.1,0.2-0.1,0.3-0.2,0.6c-0.3,0.9-0.5,2.3-0.2,4s1,3.8,2.2,5.9s2.9,4.4,4.9,6.6c4.1,4.5,9.8,9.1,16.6,13.3
			c6.8,4.3,14.7,8.3,23.3,11.7c8.6,3.4,17.1,5.9,24.9,7.4s15.1,2.1,21.2,1.6c3-0.2,5.8-0.7,8.1-1.4c2.3-0.7,4.2-1.7,5.6-2.8
			c1.4-1.1,2.2-2.2,2.6-3c0.1-0.2,0.2-0.4,0.2-0.5c0.1-0.2,0.1-0.3,0.1-0.4c0.1-0.2,0.1-0.3,0-0.4
			C120.6,121.8,120.4,122.2,119.9,123z"/>
		<path class="st4" d="M128.7,49.9c-0.8-1.8-2.5-3.3-5-4.6l-0.2-0.1c-2.4-1.3-4.5-2.4-7.1-2.3c-1.4,0-2.3,0.3-2.9,0.8
			c0.6-0.1,1.5,0,2.5,0.5c0.5,0.3,1,0.6,1.5,1.1c0.2,0.3,0.4,0.5,0.6,0.8s0.3,0.6,0.5,0.9v0.1c0.2-0.5,0.4-0.9,0.5-0.9
			s0.1,0.1,0.1,0.4c0,0.2,0,0.5-0.2,0.9c-0.1,0.1-0.1,0.3-0.2,0.4c0.1,0.4,0.3,0.8,0.5,1.1v0.1c0.6,0.5,1.2,1,2,1.4
			c0.2,0.1,0.5,0.2,0.7,0.3l0,0c0.1-0.2,0.2-0.4,0.3-0.7c0.1-0.3,0.1-0.5,0.1-0.7s0.1-0.3,0.1-0.4s0.2,0.1,0.3,0.3
			c0.1,0.2,0.1,0.6,0,0.9c-0.1,0.3-0.3,0.5-0.4,0.7c0.6,0.3,1.2,0.5,1.7,0.9c0.5,0,1.1,0,1.6,0c0.3,0,0.7,0.1,0.9,0.2
			c0.1,0,0.1,0.1,0.2,0.1c0.1-0.1,0.1-0.1,0.2-0.2c0.1-0.1,0.2-0.3,0.3-0.4c0.1-0.1,0.1-0.2,0.2-0.2s0.2,0.1,0.2,0.3s0,0.4-0.2,0.6
			c0,0.1-0.1,0.1-0.1,0.1l0,0c0.5,0.3,0.8,0.6,1.1,0.9c0.1,0.2,0.3,0.3,0.4,0.5c0.1-0.5,0.1-0.9,0.1-1.4
			C129.2,51.3,129,50.5,128.7,49.9z"/>
		<path class="st4" d="M126.5,52.8c-0.1,0-0.1,0-0.2,0c0.1,0.1,0.1,0.3,0.2,0.5c0.1,0.3,0.1,0.6,0,0.8s-0.1,0.3-0.2,0.3
			c-0.2,0-0.3-0.5-0.4-1c-0.1-0.3-0.1-0.5-0.2-0.7c-0.4,0-0.8,0-1.2,0.1v0.1c0,0.2,0.1,0.5,0,0.8s-0.2,0.5-0.3,0.7
			c-0.1,0.1-0.3,0.2-0.3,0.2c-0.1-0.1,0-0.5,0.1-1c0.1-0.3,0.1-0.5,0.2-0.7c-0.1,0-0.1,0-0.1,0c-0.3,0-0.7,0-1.1,0s-0.8-0.1-1.2-0.3
			c-0.1,0-0.2-0.1-0.3-0.1c0,0.2,0,0.4,0,0.5s0,0.2-0.1,0.3s-0.1,0.2-0.1,0.3c-0.1,0.3-0.3,0.4-0.4,0.4s0-0.2,0-0.5
			c0-0.1,0-0.1,0-0.2c0-0.1,0-0.2,0-0.3c0-0.2,0-0.4-0.1-0.5c0-0.1,0-0.2-0.1-0.3c-0.4-0.2-0.8-0.5-1.2-0.8c-0.3-0.3-0.6-0.6-0.8-1
			c-0.2-0.4-0.4-0.7-0.6-1.1c-0.3-0.7-0.5-1.4-0.8-2c-0.1-0.3-0.2-0.6-0.4-0.8c-0.1-0.3-0.3-0.5-0.4-0.7c-0.1-0.1-0.2-0.3-0.3-0.4
			c0,0.1-0.1,0.1-0.2,0.2c-0.3,0.3-0.5,0.4-0.7,0.3c-0.1-0.1,0-0.4,0.2-0.7c0.1-0.1,0.1-0.1,0.2-0.2c-0.1-0.1-0.2-0.2-0.4-0.3
			c-0.8-0.5-1.5-0.7-2-0.8c-0.2,0-0.3,0-0.5-0.1c-0.5,0.6-0.7,1.4-0.8,2.2c-0.2,2,1.1,4,2.3,5.2c1.7,1.9,3.9,3.4,6.3,4.5
			c1.4,0.6,2.7,0.9,3.8,0.9c1.3,0,2.5-0.4,3.3-1.1c0.5-0.4,0.8-1,1.1-1.6c-0.4-0.3-1-0.8-1.8-1.2C127,52.9,126.8,52.9,126.5,52.8z"
			/>
		<path class="st5" d="M115.7,51.2c0.3,0,0.5-0.4,0.4-0.7s-0.2-0.6-0.4-0.8c-0.2-0.3-0.5-0.6-0.8-0.5c-0.3,0-0.5,0.4-0.4,0.6
			c0,0,0.1,0,0.1,0.1c0,0-0.1,0-0.1-0.1c-1.5-1.1-2.3-3.2-1.9-5c-0.2,0.5-0.3,1-0.4,1.6c-0.2,2,1.1,4,2.3,5.2
			c1.7,1.9,3.9,3.4,6.3,4.5c1.4,0.6,2.7,0.9,3.8,0.9c0.9,0,1.7-0.2,2.5-0.5C122.7,56.5,118.3,54.6,115.7,51.2z"/>
		<path class="st3" d="M124.5,43.7L124.5,43.7l-0.2-0.1c-2.5-1.3-4.9-2.6-7.9-2.5c-3.5,0.1-5.5,1.8-5.9,5c0,0.3,0,0.6,0,0.9
			c0.1,1.9,1,3.8,2.8,5.7c1.9,2.1,4.3,3.8,6.9,4.9c1.6,0.7,3.1,1.1,4.5,1.1c1.8,0,3.4-0.5,4.5-1.6c2.3-2.1,2.3-5.6,1.2-8
			C129.3,47,127.3,45.2,124.5,43.7z M127.9,55.8c-0.8,0.7-2,1.1-3.3,1.1c-1.1,0-2.4-0.3-3.8-0.9c-2.4-1-4.5-2.6-6.3-4.5
			c-1.2-1.3-2.5-3.2-2.3-5.2c0.1-0.8,0.3-1.6,0.8-2.2c0.1,0,0.3,0,0.5,0.1c0.5,0.1,1.3,0.3,2,0.8c0.1,0.1,0.2,0.2,0.4,0.3
			c-0.1,0-0.1,0.1-0.2,0.2c-0.3,0.3-0.4,0.6-0.2,0.7c0.1,0.1,0.4,0,0.7-0.3c0.1-0.1,0.1-0.1,0.2-0.2c0.1,0.1,0.2,0.2,0.3,0.4
			c0.1,0.2,0.3,0.4,0.4,0.7s0.3,0.5,0.4,0.8c0.2,0.6,0.4,1.2,0.8,2c0.1,0.4,0.3,0.7,0.6,1.1c0.2,0.4,0.5,0.7,0.8,1
			c0.4,0.3,0.8,0.6,1.2,0.8c0,0.1,0.1,0.2,0.1,0.3c0,0.2,0.1,0.4,0.1,0.5s0,0.2,0,0.3s0,0.1,0,0.2c0,0.3-0.1,0.5,0,0.5
			s0.3-0.1,0.4-0.4c0-0.1,0.1-0.2,0.1-0.3s0-0.2,0.1-0.3c0-0.2,0-0.3,0-0.5c0.1,0,0.2,0.1,0.3,0.1c0.4,0.1,0.8,0.2,1.2,0.3
			c0.4,0,0.8,0,1.1,0c0.1,0,0.1,0,0.1,0c-0.1,0.2-0.1,0.4-0.2,0.7c-0.1,0.5-0.2,0.9-0.1,1c0.1,0,0.2,0,0.3-0.2
			c0.1-0.1,0.3-0.4,0.3-0.7s0.1-0.6,0-0.8v-0.1c0.5,0,0.9-0.1,1.2-0.1c0,0.2,0.1,0.4,0.2,0.7c0.1,0.5,0.3,1,0.4,1s0.2-0.1,0.2-0.3
			s0-0.5,0-0.8c0-0.2-0.1-0.3-0.2-0.5c0.1,0,0.1,0,0.2,0c0.2,0.1,0.4,0.1,0.7,0.2c0.8,0.3,1.4,0.8,1.8,1.2
			C128.8,54.8,128.4,55.3,127.9,55.8z M129.2,53.5c-0.1-0.1-0.3-0.3-0.4-0.5c-0.3-0.3-0.7-0.6-1.1-0.9l0,0l0.1-0.1
			c0.1-0.2,0.2-0.5,0.2-0.6s-0.1-0.3-0.2-0.3s-0.1,0.1-0.2,0.2c-0.1,0.1-0.1,0.2-0.3,0.4c-0.1,0.1-0.1,0.2-0.2,0.2s-0.1-0.1-0.2-0.1
			c-0.3-0.1-0.6-0.2-0.9-0.2c-0.5,0-1.1,0-1.6,0c-0.5-0.4-1.1-0.6-1.7-0.9c0.2-0.1,0.3-0.4,0.4-0.7c0.1-0.4,0.1-0.7,0-0.9
			s-0.2-0.3-0.3-0.3c-0.1,0-0.1,0.2-0.1,0.4s-0.1,0.4-0.1,0.7c-0.1,0.3-0.2,0.5-0.3,0.7l0,0c-0.3-0.1-0.5-0.2-0.7-0.3
			c-0.7-0.4-1.4-0.8-2-1.4v-0.1c-0.2-0.4-0.3-0.7-0.5-1.1c0.1-0.1,0.2-0.2,0.2-0.4c0.1-0.3,0.2-0.6,0.2-0.9c0-0.2-0.1-0.4-0.1-0.4
			c-0.2,0-0.3,0.4-0.5,0.9v-0.1c-0.1-0.3-0.3-0.6-0.5-0.9c-0.2-0.3-0.4-0.6-0.6-0.8c-0.4-0.5-1-0.8-1.5-1.1c-1-0.5-1.9-0.5-2.5-0.5
			c0.6-0.4,1.5-0.7,2.9-0.8c2.5-0.1,4.6,1,7.1,2.3l0.2,0.1c2.5,1.3,4.2,2.9,5,4.6c0.3,0.7,0.5,1.5,0.6,2.3
			C129.3,52.6,129.2,53.1,129.2,53.5z"/>
		<path class="st5" d="M117.6,51.1L117.6,51.1c0-0.1-0.1-0.1-0.1-0.2c0,0-0.1-0.1-0.2-0.1h-0.2c-0.1,0-0.1,0-0.2,0s-0.1,0.1-0.1,0.1
			l-0.1,0.1c0,0.1,0,0.1,0,0.2v0.1c0,0.1,0,0.1,0.1,0.1l0.1,0.1c0.1,0,0.2,0.1,0.4,0c0.1,0,0.1,0,0.1-0.1l0,0l0.1-0.1
			C117.5,51.2,117.6,51.2,117.6,51.1C117.6,51.3,117.6,51.2,117.6,51.1L117.6,51.1z"/>
		<path class="st5" d="M123.7,46.5c0-0.1,0-0.1-0.1-0.2l-0.1-0.1c0,0,0,0-0.1,0l0,0c-0.1,0-0.3,0-0.3,0.1c-0.1,0.1-0.1,0.1-0.2,0.3
			s0,0.2,0.1,0.3l0.1,0.1c0.1,0,0.1,0,0.2,0s0.3-0.1,0.3-0.3l0,0l0,0l0,0C123.7,46.7,123.8,46.6,123.7,46.5L123.7,46.5z"/>
		<path class="st4" d="M46.4,41.5c-0.8-1.8-2.5-3.3-5-4.6l-0.2-0.1c-2.4-1.3-4.5-2.4-7.1-2.3c-1.4,0-2.3,0.3-2.9,0.8
			c0.6-0.1,1.5,0,2.5,0.5c0.5,0.3,1,0.6,1.5,1.1c0.2,0.3,0.4,0.5,0.6,0.8s0.3,0.6,0.5,0.9v0.1c0.2-0.5,0.4-0.9,0.5-0.9
			s0.1,0.1,0.1,0.4s0,0.5-0.2,0.9c-0.1,0.1-0.1,0.3-0.2,0.4c0.1,0.4,0.3,0.8,0.5,1.1v0.1c0.6,0.5,1.2,1,2,1.4
			c0.2,0.1,0.5,0.2,0.7,0.3l0,0c0.1-0.2,0.2-0.4,0.3-0.7s0.1-0.5,0.1-0.7s0.1-0.3,0.1-0.4c0.1,0,0.2,0.1,0.3,0.3s0.1,0.6,0,0.9
			c-0.1,0.3-0.3,0.5-0.4,0.7c0.6,0.3,1.2,0.5,1.7,0.9c0.5,0,1.1,0,1.6,0c0.3,0,0.7,0.1,0.9,0.2c0.1,0,0.1,0.1,0.2,0.1
			c0.1-0.1,0.1-0.1,0.2-0.2c0.1-0.1,0.2-0.3,0.3-0.4c0.1-0.1,0.1-0.2,0.2-0.2s0.2,0.1,0.2,0.3s0,0.4-0.2,0.6c0,0.1-0.1,0.1-0.1,0.1
			l0,0c0.5,0.3,0.8,0.6,1.1,0.9c0.1,0.2,0.3,0.3,0.4,0.5c0.1-0.5,0.1-0.9,0.1-1.4C46.9,42.9,46.7,42.2,46.4,41.5z"/>
		<path class="st4" d="M44.2,44.4c-0.1,0-0.1,0-0.2,0c0.1,0.1,0.1,0.3,0.2,0.5c0.1,0.3,0.1,0.6,0,0.8c0,0.2-0.1,0.3-0.2,0.3
			c-0.2,0-0.3-0.5-0.4-1c-0.1-0.3-0.1-0.5-0.2-0.7c-0.4,0-0.8,0-1.2,0.1v0.1c0,0.2,0.1,0.5,0,0.8S42,45.8,41.9,46
			c-0.1,0.1-0.3,0.2-0.3,0.2c-0.1-0.1,0-0.5,0.1-1c0.1-0.3,0.1-0.5,0.2-0.7c-0.1,0-0.1,0-0.1,0c-0.3,0-0.7,0-1.1,0
			c-0.4,0-0.8-0.1-1.2-0.3c-0.1,0-0.2-0.1-0.3-0.1c0,0.2,0,0.4,0,0.5s0,0.2-0.1,0.3S39,45.1,39,45.2c-0.1,0.3-0.3,0.4-0.4,0.4
			c-0.1,0,0-0.2,0-0.5c0-0.1,0-0.1,0-0.2c0-0.1,0-0.2,0-0.3c0-0.2,0-0.4-0.1-0.5c0-0.1,0-0.2-0.1-0.3c-0.4-0.2-0.8-0.5-1.2-0.8
			c-0.3-0.3-0.6-0.6-0.8-1s-0.4-0.7-0.6-1.1c-0.3-0.7-0.5-1.4-0.8-2c-0.1-0.3-0.2-0.6-0.4-0.8c-0.1-0.3-0.3-0.5-0.4-0.7
			c-0.1-0.1-0.2-0.3-0.3-0.4c0,0.1-0.1,0.1-0.2,0.2c-0.3,0.3-0.5,0.4-0.7,0.3c-0.1-0.1,0-0.4,0.2-0.7c0.1-0.1,0.1-0.1,0.2-0.2
			c-0.1-0.1-0.2-0.2-0.4-0.3c-0.8-0.5-1.5-0.7-2-0.8c-0.2,0-0.3,0-0.5-0.1c-0.5,0.6-0.7,1.4-0.8,2.2c-0.2,2,1.1,4,2.3,5.2
			c1.7,1.9,3.9,3.4,6.3,4.5c1.4,0.6,2.7,0.9,3.8,0.9c1.3,0,2.5-0.4,3.3-1.1c0.5-0.4,0.8-1,1.1-1.6c-0.4-0.3-1-0.8-1.8-1.2
			C44.7,44.6,44.5,44.5,44.2,44.4z"/>
		<path class="st5" d="M33.4,42.8c0.3,0,0.5-0.4,0.4-0.7s-0.2-0.6-0.4-0.8c-0.2-0.3-0.5-0.6-0.8-0.5c-0.3,0-0.5,0.4-0.4,0.6
			c0,0,0.1,0,0.1,0.1c0,0-0.1,0-0.1-0.1c-1.5-1.1-2.3-3.2-1.9-5c-0.2,0.5-0.3,1-0.4,1.6c-0.2,2,1.1,4,2.3,5.2
			c1.7,1.9,3.9,3.4,6.3,4.5c1.4,0.6,2.7,0.9,3.8,0.9c0.9,0,1.7-0.2,2.5-0.5C40.4,48.2,36,46.2,33.4,42.8z"/>
		<path class="st3" d="M42.2,35.3L42.2,35.3L42,35.2c-2.5-1.3-4.9-2.6-7.9-2.5c-3.5,0.1-5.5,1.8-5.9,5c0,0.3,0,0.6,0,0.9
			c0.1,1.9,1,3.8,2.8,5.7c1.9,2.1,4.3,3.8,6.9,4.9c1.6,0.7,3.1,1.1,4.5,1.1c1.8,0,3.4-0.5,4.5-1.6c2.3-2.1,2.3-5.6,1.2-8
			C47,38.6,45,36.8,42.2,35.3z M45.6,47.4c-0.8,0.7-2,1.1-3.3,1.1c-1.1,0-2.4-0.3-3.8-0.9c-2.4-1-4.5-2.6-6.3-4.5
			c-1.2-1.3-2.5-3.2-2.3-5.2c0.1-0.8,0.3-1.6,0.8-2.2c0.1,0,0.3,0,0.5,0.1c0.5,0.1,1.3,0.3,2,0.8c0.1,0.1,0.2,0.2,0.4,0.3
			c-0.1,0-0.1,0.1-0.2,0.2c-0.3,0.3-0.4,0.6-0.2,0.7c0.1,0.1,0.4,0,0.7-0.3c0.1-0.1,0.1-0.1,0.2-0.2c0.1,0.1,0.2,0.2,0.3,0.4
			s0.3,0.4,0.4,0.7c0.1,0.3,0.3,0.5,0.4,0.8c0.2,0.6,0.4,1.2,0.8,2c0.1,0.4,0.3,0.7,0.6,1.1c0.2,0.4,0.5,0.7,0.8,1
			c0.4,0.3,0.8,0.6,1.2,0.8c0,0.1,0.1,0.2,0.1,0.3c0,0.2,0.1,0.4,0.1,0.5s0,0.2,0,0.3s0,0.1,0,0.2c0,0.3-0.1,0.5,0,0.5
			s0.3-0.1,0.4-0.4c0-0.1,0.1-0.2,0.1-0.3s0-0.2,0.1-0.3c0-0.2,0-0.3,0-0.5c0.1,0,0.2,0.1,0.3,0.1c0.4,0.1,0.8,0.2,1.2,0.3
			c0.4,0,0.8,0,1.1,0c0.1,0,0.1,0,0.1,0C42,45,42,45.2,41.9,45.5c-0.1,0.5-0.2,0.9-0.1,1c0.1,0,0.2,0,0.3-0.2s0.3-0.4,0.3-0.7
			c0.1-0.3,0.1-0.6,0-0.8v-0.1c0.5,0,0.9-0.1,1.2-0.1c0,0.2,0.1,0.4,0.2,0.7c0.1,0.5,0.3,1,0.4,1c0.1,0,0.2-0.1,0.2-0.3s0-0.5,0-0.8
			c0-0.2-0.1-0.3-0.2-0.5c0.1,0,0.1,0,0.2,0c0.2,0.1,0.4,0.1,0.7,0.2c0.8,0.3,1.4,0.8,1.8,1.2C46.5,46.4,46.1,46.9,45.6,47.4z
			 M46.9,45.2c-0.1-0.1-0.3-0.3-0.4-0.5c-0.3-0.3-0.7-0.6-1.1-0.9l0,0l0.1-0.1c0.1-0.2,0.2-0.5,0.2-0.6s-0.1-0.3-0.2-0.3
			s-0.1,0.1-0.2,0.2c-0.1,0.1-0.1,0.2-0.3,0.4c-0.1,0.1-0.1,0.2-0.2,0.2c-0.1,0-0.1-0.1-0.2-0.1c-0.3-0.1-0.6-0.2-0.9-0.2
			c-0.5,0-1.1,0-1.6,0c-0.5-0.4-1.1-0.6-1.7-0.9c0.2-0.1,0.3-0.4,0.4-0.7c0.1-0.4,0.1-0.7,0-0.9s-0.2-0.3-0.3-0.3s-0.1,0.2-0.1,0.4
			s-0.1,0.4-0.1,0.7c-0.1,0.3-0.2,0.5-0.3,0.7l0,0c-0.3-0.1-0.5-0.2-0.7-0.3c-0.7-0.4-1.4-0.8-2-1.4v-0.1c-0.2-0.4-0.3-0.7-0.5-1.1
			c0.1-0.1,0.2-0.2,0.2-0.4c0.1-0.3,0.2-0.6,0.2-0.9c0-0.2-0.1-0.4-0.1-0.4c-0.2,0-0.3,0.4-0.5,0.9v-0.1c-0.1-0.3-0.3-0.6-0.5-0.9
			c-0.2-0.3-0.4-0.6-0.6-0.8c-0.4-0.5-1-0.8-1.5-1.1c-1-0.5-1.9-0.5-2.5-0.5c0.6-0.4,1.5-0.7,2.9-0.8c2.5-0.1,4.6,1,7.1,2.3l0.2,0.1
			c2.5,1.3,4.2,2.9,5,4.6c0.3,0.7,0.5,1.5,0.6,2.3C47,44.2,47,44.7,46.9,45.2z"/>
		<path class="st5" d="M35.3,42.7L35.3,42.7c0-0.1-0.1-0.1-0.1-0.2c0,0-0.1-0.1-0.2-0.1h-0.1c-0.1,0-0.1,0-0.2,0
			c-0.1,0-0.1,0.1-0.1,0.1l-0.1,0.1c0,0.1,0,0.1,0,0.2v0.1c0,0.1,0,0.1,0.1,0.1s0.1,0.1,0.1,0.1c0.1,0,0.2,0.1,0.4,0
			c0.1,0,0.1,0,0.1-0.1l0,0l0.1-0.1C35.3,42.8,35.4,42.8,35.3,42.7C35.3,42.9,35.3,42.8,35.3,42.7L35.3,42.7z"/>
		<path class="st5" d="M41.5,38.1c0-0.1,0-0.1-0.1-0.2l-0.1-0.1c0,0,0,0-0.1,0l0,0c-0.1,0-0.3,0-0.3,0.1c-0.1,0.1-0.1,0.1-0.2,0.3
			s0,0.2,0.1,0.3l0.1,0.1c0.1,0,0.1,0,0.2,0c0.1,0,0.3-0.1,0.3-0.3l0,0l0,0l0,0C41.4,38.3,41.5,38.2,41.5,38.1L41.5,38.1z"/>
		<path class="st4" d="M133,77.4c-2.5,1.1-4.9,3.3-6.9,6.7l-0.2,0.3c-2,3.3-3.7,6.2-3.8,9.8c-0.1,1.9,0.3,3.2,0.9,4.1
			c-0.1-0.8,0.1-2.1,0.8-3.4c0.4-0.7,0.9-1.4,1.6-2c0.4-0.3,0.8-0.6,1.2-0.8c0.4-0.2,0.9-0.4,1.3-0.6h0.1c-0.7-0.4-1.3-0.6-1.3-0.8
			c0-0.1,0.2-0.2,0.5-0.2s0.8,0.1,1.2,0.3c0.2,0.1,0.4,0.2,0.5,0.4c0.5-0.2,1.1-0.4,1.6-0.6c0,0,0.1,0,0.1-0.1
			c0.8-0.8,1.5-1.7,2.1-2.7c0.2-0.3,0.4-0.7,0.5-1l0,0c-0.3-0.1-0.5-0.3-0.9-0.4s-0.7-0.2-1-0.3s-0.5-0.1-0.5-0.2s0.1-0.3,0.5-0.4
			c0.3-0.1,0.8-0.1,1.3,0.1c0.4,0.1,0.7,0.4,0.9,0.7c0.4-0.8,0.8-1.7,1.3-2.4c0-0.7,0-1.5,0.1-2.3c0.1-0.4,0.2-0.9,0.3-1.3
			c0-0.1,0.1-0.2,0.1-0.3c-0.1-0.1-0.2-0.2-0.3-0.3c-0.2-0.1-0.4-0.3-0.5-0.4s-0.3-0.2-0.3-0.3c0-0.1,0.1-0.2,0.4-0.2
			c0.3,0,0.6,0.1,0.9,0.3c0.1,0.1,0.1,0.1,0.2,0.2c0,0,0,0,0-0.1c0.4-0.7,0.9-1.1,1.3-1.5c0.2-0.2,0.5-0.4,0.7-0.5
			c-0.7-0.2-1.3-0.3-2-0.3C135.1,76.8,134,77,133,77.4z"/>
		<path class="st4" d="M139.1,77.4c-0.5,0.6-1.2,1.4-1.8,2.4c-0.1,0.3-0.3,0.6-0.4,0.9c0,0.1,0,0.2-0.1,0.3c0.2-0.1,0.4-0.2,0.7-0.2
			c0.5-0.1,0.9-0.1,1.2,0s0.5,0.2,0.5,0.3c0,0.2-0.7,0.3-1.5,0.5c-0.4,0.1-0.7,0.1-0.9,0.2c0,0.5,0,1.1,0,1.7h0.1
			c0.3-0.1,0.7-0.1,1.1,0.1c0.4,0.1,0.8,0.3,1,0.5s0.3,0.4,0.2,0.5c-0.1,0.2-0.7,0-1.4-0.2c-0.4-0.1-0.7-0.2-1-0.3
			c0,0.1,0,0.1,0,0.2c0,0.5,0,1-0.1,1.6s-0.2,1.1-0.4,1.6c0,0.1-0.1,0.2-0.1,0.4c0.3,0,0.5,0,0.7,0c0.1,0,0.3,0.1,0.4,0.1
			c0.1,0,0.3,0.1,0.4,0.2c0.4,0.3,0.6,0.5,0.5,0.6s-0.3,0-0.7,0c-0.1,0-0.2,0-0.3,0s-0.2,0-0.4,0c-0.3,0-0.5,0-0.8,0.1
			c-0.1,0-0.3,0.1-0.4,0.1c-0.4,0.6-0.8,1.1-1.3,1.6c-0.4,0.4-0.9,0.8-1.4,1.1c-0.5,0.3-1,0.5-1.5,0.7c-1,0.4-2,0.6-2.8,0.9
			c-0.4,0.1-0.8,0.3-1.2,0.5c-0.4,0.2-0.7,0.4-1,0.6c-0.2,0.1-0.4,0.3-0.5,0.4c0.1,0.1,0.2,0.1,0.3,0.3c0.4,0.4,0.5,0.8,0.3,0.9
			c-0.2,0.2-0.6,0-0.9-0.4c-0.1-0.1-0.2-0.2-0.2-0.3c-0.1,0.1-0.3,0.3-0.4,0.5c-0.7,1-1.1,2.1-1.2,2.8c-0.1,0.3-0.1,0.5-0.1,0.7
			c0.8,0.8,1.9,1.1,3,1.3c2.8,0.5,5.7-1.3,7.5-2.8c2.8-2.3,5.2-5.3,6.8-8.5c1-2,1.5-3.7,1.6-5.2c0.1-1.8-0.4-3.6-1.3-4.8
			C140.6,78.2,139.9,77.7,139.1,77.4z"/>
		<path class="st5" d="M133.8,95.8c0-0.4-0.5-0.7-1-0.7c-0.4,0-0.8,0.3-1.2,0.5c-0.4,0.3-0.8,0.6-0.8,1.1c0,0.4,0.5,0.8,0.8,0.5
			l0.1-0.1c0,0.1-0.1,0.1-0.1,0.1c-1.7,2-4.6,2.9-7.2,2.3c0.7,0.4,1.4,0.5,2.2,0.7c2.8,0.5,5.7-1.3,7.5-2.8c2.8-2.3,5.2-5.3,6.8-8.5
			c1-2,1.5-3.7,1.6-5.2c0.1-1.3-0.1-2.5-0.6-3.5C141.9,86.3,138.9,92.4,133.8,95.8z"/>
		<path class="st3" d="M132,75.1c-3,1.3-5.8,3.9-8.1,7.8l0,0l-0.2,0.3c-2,3.5-4,6.7-4.1,11c-0.1,5,2.1,7.9,6.6,8.6
			c0.4,0.1,0.9,0.1,1.3,0.1c2.6,0,5.4-1.2,8.2-3.4c3.1-2.5,5.7-5.8,7.4-9.3c1.1-2.3,1.7-4.3,1.8-6.2c0.1-2.5-0.5-4.8-1.9-6.5
			C140.4,74,135.5,73.7,132,75.1z M122.2,94.2c0.1-3.6,1.8-6.5,3.8-9.8l0.2-0.3c2-3.4,4.3-5.7,6.9-6.7c0.9-0.4,2.1-0.6,3.2-0.6
			c0.7,0,1.3,0.1,2,0.3c-0.2,0.1-0.4,0.3-0.7,0.5c-0.4,0.4-0.9,0.9-1.3,1.5c0,0,0,0,0,0.1c-0.1-0.1-0.1-0.1-0.2-0.2
			c-0.3-0.2-0.6-0.3-0.9-0.3s-0.4,0.1-0.4,0.2s0.1,0.2,0.3,0.3c0.1,0.1,0.3,0.2,0.5,0.4c0.1,0.1,0.2,0.2,0.3,0.3
			c0,0.1-0.1,0.2-0.1,0.3c-0.2,0.4-0.3,0.9-0.3,1.3c-0.1,0.8-0.1,1.5-0.1,2.3c-0.5,0.7-0.9,1.6-1.3,2.4c-0.2-0.3-0.5-0.5-0.9-0.7
			c-0.5-0.2-1-0.2-1.3-0.1s-0.5,0.3-0.5,0.4s0.2,0.2,0.5,0.2c0.3,0.1,0.6,0.1,1,0.3c0.4,0.1,0.7,0.3,0.9,0.4l0,0
			c-0.2,0.3-0.3,0.7-0.5,1c-0.6,1-1.3,1.9-2.1,2.7c0,0-0.1,0-0.1,0.1c-0.5,0.2-1.1,0.4-1.6,0.6c-0.1-0.1-0.3-0.3-0.5-0.4
			c-0.4-0.2-0.9-0.3-1.2-0.3c-0.3,0-0.5,0.1-0.5,0.2c0,0.2,0.6,0.5,1.3,0.8h-0.1c-0.4,0.2-0.9,0.4-1.3,0.6s-0.8,0.5-1.2,0.8
			c-0.7,0.6-1.2,1.3-1.6,2c-0.7,1.4-0.9,2.6-0.8,3.4C122.5,97.4,122.1,96.1,122.2,94.2z M142.6,83.7c-0.1,1.6-0.6,3.3-1.6,5.2
			c-1.6,3.3-4,6.2-6.8,8.5c-1.9,1.5-4.7,3.3-7.5,2.8c-1.1-0.2-2.2-0.5-3-1.3c0-0.2,0.1-0.4,0.1-0.7c0.1-0.7,0.5-1.8,1.2-2.8
			c0.1-0.2,0.3-0.3,0.4-0.5c0.1,0.1,0.1,0.2,0.2,0.3c0.4,0.4,0.8,0.5,0.9,0.4c0.2-0.1,0-0.6-0.3-0.9c-0.1-0.1-0.2-0.2-0.3-0.3
			c0.2-0.1,0.3-0.3,0.5-0.4c0.3-0.2,0.6-0.4,1-0.6s0.8-0.3,1.2-0.5c0.8-0.3,1.8-0.5,2.8-0.9c0.5-0.2,1-0.4,1.5-0.7
			c0.5-0.3,1-0.7,1.4-1.1c0.5-0.5,0.9-1,1.3-1.6c0.1,0,0.2-0.1,0.4-0.1c0.3,0,0.5-0.1,0.8-0.1c0.1,0,0.2,0,0.4,0c0.1,0,0.2,0,0.3,0
			c0.4,0.1,0.6,0.1,0.7,0c0.1-0.1-0.1-0.4-0.5-0.6c-0.1-0.1-0.2-0.1-0.4-0.2c-0.1-0.1-0.3-0.1-0.4-0.1c-0.2,0-0.5,0-0.7,0
			c0.1-0.1,0.1-0.2,0.1-0.4c0.2-0.5,0.4-1.1,0.4-1.6c0.1-0.5,0.1-1.1,0.1-1.6c0-0.1,0-0.1,0-0.2c0.3,0.1,0.6,0.2,1,0.3
			c0.7,0.2,1.3,0.4,1.4,0.2c0.1-0.1,0-0.3-0.2-0.5s-0.5-0.4-1-0.5c-0.4-0.1-0.8-0.1-1.1-0.1h-0.1c0-0.7-0.1-1.2,0-1.7
			c0.3,0,0.6-0.1,0.9-0.2c0.8-0.2,1.5-0.3,1.5-0.5c0-0.1-0.1-0.2-0.5-0.3c-0.3-0.1-0.7-0.1-1.2,0c-0.3,0.1-0.5,0.1-0.7,0.2
			c0-0.1,0-0.2,0.1-0.3c0.1-0.3,0.2-0.6,0.4-0.9c0.5-1.1,1.3-1.9,1.8-2.4c0.8,0.3,1.6,0.9,2.1,1.6C142.2,80.1,142.7,81.9,142.6,83.7
			z"/>
		<path class="st5" d="M134.7,93.3L134.7,93.3c0-0.1-0.1-0.1-0.1-0.1c-0.1-0.1-0.2-0.1-0.3-0.1s-0.2,0-0.3,0.1l0,0l0,0
			c-0.1,0-0.1,0.1-0.2,0.2c-0.1,0.1-0.1,0.1-0.1,0.2v0.2c0,0.1,0,0.2,0.1,0.3c0,0.1,0.1,0.1,0.1,0.2s0.1,0.1,0.2,0.1
			c0.1,0,0.2,0.1,0.3,0.1h0.2c0.1,0,0.1-0.1,0.2-0.1s0.1-0.1,0.2-0.2c0.1-0.1,0.1-0.3,0.1-0.5C134.8,93.5,134.8,93.4,134.7,93.3z"/>
		<path class="st5" d="M128.3,84.3L128.3,84.3L128.3,84.3C128.2,84.3,128.2,84.3,128.3,84.3c-0.1-0.1-0.3-0.2-0.4-0.2l0,0
			c-0.1,0-0.2,0-0.3,0.1c-0.1,0-0.1,0.1-0.1,0.2v0.1l0,0c0,0.2,0,0.4,0.1,0.5s0.2,0.2,0.4,0.3c0.1,0,0.3,0,0.5-0.1
			c0.1,0,0.1-0.1,0.2-0.2c0.1-0.1,0.1-0.2,0.1-0.3C128.6,84.5,128.4,84.4,128.3,84.3z"/>
		<path class="st4" d="M27.9,52.5C26.2,49,24.8,46,21.8,44c-1.6-1.1-2.8-1.5-3.9-1.5c0.7,0.4,1.7,1.2,2.4,2.6
			c0.4,0.7,0.6,1.5,0.7,2.4c0,0.5,0,0.9,0,1.4s-0.1,1-0.2,1.4v0.1c0.7-0.4,1.2-0.8,1.4-0.6c0.1,0.1,0,0.3-0.1,0.5
			c-0.2,0.3-0.5,0.6-0.9,0.8c-0.2,0.1-0.4,0.2-0.6,0.2c-0.1,0.6-0.3,1.1-0.4,1.7c0,0.1,0,0.1,0,0.2c0.2,1.1,0.5,2.2,1.1,3.2
			c0.2,0.3,0.4,0.7,0.5,1l0,0c0.3-0.1,0.6-0.3,0.9-0.5s0.6-0.5,0.8-0.7c0.2-0.2,0.3-0.3,0.5-0.3c0.1,0,0.1,0.3,0,0.6
			s-0.4,0.7-0.8,1.1c-0.4,0.3-0.7,0.4-1.1,0.4c0.5,0.8,0.9,1.6,1.2,2.4c0.6,0.4,1.3,0.8,1.8,1.3c0.3,0.3,0.7,0.7,0.9,1
			c0.1,0.1,0.1,0.2,0.2,0.3c0.1,0,0.3-0.1,0.4-0.1c0.2-0.1,0.4-0.2,0.6-0.2c0.2-0.1,0.3-0.1,0.4,0s0.1,0.2,0,0.5
			c-0.1,0.2-0.4,0.4-0.7,0.6c-0.1,0-0.2,0-0.3,0.1c0,0,0,0,0,0.1c0.3,0.7,0.4,1.4,0.5,2c0,0.3,0.1,0.6,0.1,0.9
			c0.5-0.4,0.9-1,1.3-1.5c0.6-0.9,1.1-2,1.2-3c0.5-2.7-0.1-5.9-1.8-9.4V52.5z"/>
		<path class="st4" d="M24.9,63.8c-0.1-0.1-0.1-0.1-0.2-0.2c0,0.2-0.1,0.4-0.2,0.7c-0.2,0.4-0.4,0.8-0.7,1c-0.2,0.2-0.4,0.3-0.5,0.2
			c-0.2-0.1,0.1-0.8,0.4-1.5c0.1-0.3,0.3-0.7,0.4-0.9c-0.4-0.3-0.9-0.6-1.5-0.9v0.1c-0.1,0.3-0.3,0.6-0.7,0.9
			c-0.3,0.3-0.7,0.5-0.9,0.5s-0.5,0-0.5-0.1c-0.1-0.2,0.4-0.6,0.9-1.1c0.3-0.3,0.6-0.5,0.8-0.6c-0.1,0-0.1-0.1-0.2-0.1
			c-0.4-0.3-0.8-0.6-1.2-0.9s-0.8-0.8-1.1-1.3c-0.1-0.1-0.1-0.2-0.2-0.3c-0.1,0.2-0.3,0.4-0.4,0.6c-0.1,0.1-0.2,0.2-0.3,0.3
			c-0.1,0.1-0.2,0.1-0.3,0.2c-0.4,0.2-0.7,0.2-0.8,0.1s0.2-0.3,0.4-0.6c0.1-0.1,0.1-0.1,0.2-0.2c0.1-0.1,0.1-0.2,0.2-0.3
			c0.1-0.2,0.3-0.4,0.4-0.7c0-0.1,0.1-0.2,0.1-0.4c-0.3-0.6-0.5-1.3-0.6-2c-0.1-0.6-0.1-1.2-0.1-1.8s0.1-1.2,0.2-1.7
			c0.2-1.1,0.5-2,0.8-2.8c0.1-0.4,0.2-0.8,0.3-1.2s0.1-0.8,0.1-1.1c0-0.2,0-0.5-0.1-0.7c-0.1,0-0.3,0.1-0.4,0.1
			c-0.5,0.1-0.9,0-1-0.3c0-0.2,0.3-0.5,0.8-0.6c0.1,0,0.3,0,0.4,0c-0.1-0.2-0.1-0.4-0.2-0.6c-0.5-1.2-1.1-2-1.7-2.6
			c-0.2-0.2-0.3-0.3-0.5-0.5c-1.1,0.3-2,1-2.7,1.9c-1.9,2.1-2.1,5.4-1.8,7.8c0.4,3.6,1.5,7.2,3.4,10.3c1.1,1.9,2.3,3.3,3.5,4.2
			c1.5,1.1,3.2,1.7,4.7,1.5c0.9-0.1,1.8-0.4,2.5-0.9c-0.2-0.7-0.5-1.8-1.1-2.8C25.3,64.3,25.1,64,24.9,63.8z"/>
		<path class="st5" d="M14,52.8c0.4,0.2,0.9,0,1.1-0.4c0.2-0.4,0.2-0.8,0.2-1.3s-0.1-1-0.5-1.3c-0.3-0.3-0.9,0-0.9,0.4
			c0,0.1,0,0.1,0,0.2c0-0.1,0-0.1,0-0.2c-0.8-2.5,0.1-5.5,2-7.3c-0.7,0.4-1.2,0.9-1.8,1.5c-1.9,2.1-2.1,5.4-1.8,7.8
			c0.4,3.6,1.5,7.2,3.4,10.3c1.1,1.9,2.3,3.3,3.5,4.2c1,0.8,2.1,1.3,3.2,1.5C17.5,64.8,14.1,58.9,14,52.8z"/>
		<path class="st3" d="M30.3,51.7l-0.2-0.3c-1.7-3.6-3.4-7-6.9-9.5c-4.1-2.9-7.7-2.6-10.8,0.8c-0.3,0.3-0.6,0.7-0.8,1.1
			c-1.4,2.2-2,5.2-1.6,8.7c0.4,4,1.7,7.9,3.7,11.3c1.3,2.2,2.6,3.8,4.2,4.9c2,1.5,4.3,2.2,6.5,2c4.3-0.4,7.3-4.4,8-8
			C32.9,59.5,32.2,55.8,30.3,51.7L30.3,51.7z M24,68.3c-1.5,0.1-3.3-0.4-4.7-1.5c-1.3-0.9-2.4-2.3-3.5-4.2c-1.8-3.1-3-6.7-3.4-10.3
			c-0.3-2.4-0.1-5.7,1.8-7.8c0.8-0.8,1.6-1.6,2.7-1.9c0.1,0.1,0.3,0.3,0.5,0.5c0.5,0.5,1.2,1.4,1.7,2.6c0.1,0.2,0.1,0.4,0.2,0.6
			c-0.1,0-0.3,0-0.4,0c-0.5,0.1-0.9,0.3-0.8,0.6c0,0.2,0.5,0.3,1,0.3c0.1,0,0.3-0.1,0.4-0.1c0,0.2,0.1,0.4,0.1,0.7
			c0,0.4,0,0.7-0.1,1.1c-0.1,0.4-0.1,0.8-0.3,1.2c-0.2,0.9-0.5,1.8-0.8,2.8c-0.1,0.5-0.2,1.1-0.2,1.7s0,1.2,0.1,1.8
			c0.1,0.7,0.4,1.3,0.6,2c0,0.1-0.1,0.2-0.1,0.4c-0.1,0.3-0.3,0.5-0.4,0.7c-0.1,0.1-0.1,0.2-0.2,0.3S18.1,60,18,60
			c-0.3,0.3-0.5,0.4-0.4,0.6c0,0.1,0.3,0.1,0.8-0.1c0.1-0.1,0.2-0.1,0.3-0.2c0.1-0.1,0.2-0.2,0.3-0.3c0.1-0.2,0.3-0.4,0.4-0.6
			c0.1,0.1,0.1,0.2,0.2,0.3c0.3,0.5,0.7,0.9,1.1,1.3s0.8,0.7,1.2,0.9c0.1,0,0.1,0.1,0.2,0.1c-0.2,0.1-0.5,0.4-0.8,0.6
			c-0.5,0.5-1,0.9-0.9,1.1c0,0.1,0.2,0.1,0.5,0.1c0.3-0.1,0.6-0.2,0.9-0.5s0.5-0.6,0.7-0.9v-0.1c0.5,0.3,1.1,0.6,1.5,0.9
			c-0.1,0.3-0.2,0.5-0.4,0.9c-0.3,0.7-0.6,1.3-0.4,1.5c0.1,0.1,0.3,0,0.5-0.2c0.2-0.2,0.5-0.6,0.7-1c0.1-0.2,0.1-0.5,0.2-0.7
			c0.1,0.1,0.1,0.1,0.2,0.2c0.2,0.3,0.4,0.5,0.6,0.8c0.6,1,0.8,2.1,1.1,2.8C25.8,67.9,24.9,68.2,24,68.3z M29.8,62.2
			c-0.2,1-0.6,2.1-1.2,3c-0.4,0.6-0.8,1.1-1.3,1.5c0-0.3,0-0.5-0.1-0.9c-0.1-0.6-0.2-1.2-0.5-2c0,0,0,0,0-0.1c0.1,0,0.2,0,0.3-0.1
			c0.4-0.1,0.6-0.4,0.7-0.6c0.1-0.2,0.1-0.4,0-0.5s-0.3,0-0.4,0c-0.1,0.1-0.4,0.1-0.6,0.2c-0.1,0-0.3,0.1-0.4,0.1
			c-0.1-0.1-0.1-0.2-0.2-0.3c-0.3-0.4-0.6-0.7-0.9-1c-0.6-0.5-1.2-0.9-1.8-1.3c-0.3-0.8-0.8-1.6-1.2-2.4c0.3,0,0.7-0.2,1.1-0.4
			c0.4-0.3,0.7-0.7,0.8-1.1c0.1-0.3,0.1-0.5,0-0.6c-0.1,0-0.3,0.1-0.5,0.3s-0.5,0.4-0.8,0.7s-0.6,0.4-0.9,0.5l0,0
			c-0.2-0.3-0.4-0.7-0.5-1c-0.5-1-0.9-2.1-1.1-3.2c0-0.1,0-0.1,0-0.2c0.1-0.5,0.3-1.1,0.4-1.7c0.2-0.1,0.4-0.1,0.6-0.2
			c0.4-0.2,0.8-0.5,0.9-0.8c0.2-0.3,0.2-0.5,0.1-0.5c-0.2-0.1-0.7,0.2-1.4,0.6v-0.1c0.1-0.5,0.2-0.9,0.2-1.4s0-1,0-1.4
			c-0.1-0.9-0.4-1.7-0.7-2.4c-0.7-1.4-1.7-2.2-2.4-2.6c1.1,0,2.3,0.4,3.9,1.5c2.9,2.1,4.4,5.1,6.1,8.5l0.1,0.3
			C29.7,56.4,30.3,59.5,29.8,62.2z"/>
		<path class="st5" d="M16.2,54c0-0.1-0.1-0.1-0.1-0.2L16,53.7c-0.1,0-0.1-0.1-0.2-0.1c-0.1,0-0.2,0-0.3,0s-0.2,0-0.2,0.1
			c-0.2,0.1-0.2,0.1-0.3,0.2L14.9,54c0,0.1,0,0.2,0,0.3s0,0.2,0.1,0.2c0.1,0.1,0.2,0.3,0.4,0.3c0.1,0,0.2,0,0.3,0l0,0
			c0.1,0,0.1,0,0.2,0c0.1,0,0.2-0.1,0.3-0.2c0-0.1,0.1-0.2,0.1-0.3l0,0l0,0C16.2,54.2,16.2,54.1,16.2,54z"/>
		<path class="st5" d="M27,53.8C27,53.8,27,53.7,27,53.8c-0.1-0.1-0.1-0.1-0.1-0.1c-0.1-0.1-0.3-0.2-0.5-0.2c-0.1,0-0.3,0-0.4,0.1
			s-0.2,0.3-0.2,0.4c0,0.1,0,0.2,0,0.3s0.1,0.2,0.2,0.2c0.2,0.1,0.4,0.1,0.5-0.1l0,0l0,0l0,0c0.1,0,0.2-0.1,0.3-0.2l0,0
			c0.1-0.1,0.1-0.2,0.1-0.3C27.1,54,27.1,53.9,27,53.8z"/>
		<path class="st3" d="M51.6,12.3L51.6,12.3c-1.9-1.7-3.3-1.4-4.1-1.1c-0.7,0.3-1.2,0.9-1.5,1.6c0,0.1-0.1,0.3-0.1,0.4
			c-0.2,0.8-0.1,1.8,0.3,2.6c0.3,0.7,0.8,1.2,1.1,1.7c0.2,0.3,0.4,0.5,0.6,0.8c0.2,0.3,0.2,0.7,0.2,0.8c-0.1,0.1-0.5,0.1-0.7,0.2
			c-0.6,0.1-1.5,0.3-2.2,1c-1.3,1.3-1,3.3-0.9,3.9c0.5,3.2,1.6,6.4,3.2,9.3c0.4,0.8,0.9,1.6,1.7,2.1c1.2,0.8,2.7,0.8,3.7,0
			c1.2-1,1.4-2.7,0.5-4.6v-0.1c-0.1-0.3-0.5-1.2-0.5-1.4c0.1-0.1,0.5-0.3,0.7-0.4c0.4-0.2,0.8-0.4,1.3-0.7c1.2-1,1.9-2.5,2-4.3
			C57.2,19.6,53.7,14.1,51.6,12.3z M54,23.9c0,0.9-0.3,1.5-0.8,1.9c-0.2,0.1-0.4,0.3-0.7,0.4c-0.7,0.3-1.6,0.8-2.1,1.8
			c-0.8,1.5-0.1,3.1,0.4,4.1v0.1c0.1,0.3,0.2,0.5,0.2,0.7c-0.3-0.2-0.5-0.6-0.7-1c-1.4-2.6-2.4-5.4-2.9-8.3c-0.1-0.7-0.1-0.9,0-1.1
			v-0.1c0.1-0.1,0.5-0.1,0.7-0.2c0.7-0.1,1.5-0.3,2.2-1c1.3-1.3,1-3.3,0.2-4.6c-0.3-0.4-0.6-0.8-0.8-1.1c-0.3-0.4-0.6-0.7-0.7-1.1
			c-0.1-0.1-0.1-0.3-0.1-0.4c0.1,0.1,0.3,0.2,0.6,0.4C51.1,16,54.1,20.7,54,23.9z"/>
		<path class="st5" d="M50.6,13.4c-0.7-0.6-1.6-1.2-2.4-0.8c-0.9,0.4-1,1.6-0.6,2.5s1.2,1.5,1.6,2.4c0.5,0.8,0.7,2,0,2.7
			c-0.8,0.8-2.1,0.5-2.9,1.2c-0.7,0.6-0.6,1.6-0.4,2.5c0.5,3,1.5,6,3,8.7c0.3,0.6,0.7,1.2,1.3,1.6c0.6,0.4,1.4,0.5,1.9,0.1
			c0.8-0.6,0.5-1.9,0.1-2.8s-0.9-2-0.5-2.8c0.5-0.9,1.6-1.1,2.4-1.7C58,24,53.1,15.7,50.6,13.4z"/>
		<path class="st4" d="M49.8,12.8c-0.5-0.3-1.1-0.4-1.6-0.2c-0.9,0.4-1,1.6-0.6,2.5s1.2,1.5,1.6,2.4c0.5,0.8,0.7,2,0,2.7
			c-0.8,0.8-2.1,0.5-2.9,1.2c-0.7,0.6-0.6,1.6-0.4,2.5c0.5,3,1.5,6,3,8.7c0.3,0.6,0.7,1.2,1.3,1.6c0.6,0.4,1.4,0.5,1.9,0.1
			c0.8-0.6,0.5-1.9,0.1-2.8s-0.9-2-0.5-2.8c0.1-0.1,0.1-0.2,0.2-0.3c-0.4-0.6-0.8-1.2-1.1-1.8c-0.4-0.6-0.7-1.2-0.8-1.9
			c-0.1-1.2,0.9-2.2,1.9-2.8c0.3-0.2,0.5-0.3,0.7-0.6c0.1-0.3,0.1-0.6,0-0.9C52.1,17.8,51.1,15.2,49.8,12.8z"/>
		<path class="st5" d="M47.8,14.3c-0.1-0.3-0.2-0.7-0.2-1c-0.3,0.5-0.3,1.3,0,1.9c0.4,0.9,1.2,1.5,1.6,2.4c0.5,0.8,0.7,2,0,2.7
			c-0.8,0.8-2.1,0.5-2.9,1.2c-0.7,0.6-0.6,1.6-0.4,2.5c0.5,3,1.5,6,3,8.7c0.1,0.3,0.3,0.5,0.5,0.8c-0.3-0.7-0.7-1.4-1-2.1
			c-1.1-2.4-1.9-5-2-7.7c0-0.7,0-1.5,0.5-2c0.4-0.4,1.1-0.5,1.7-0.6s1.3-0.4,1.5-0.9c0.1-0.3,0-0.7-0.1-1.1
			C49.4,17.4,48.4,15.9,47.8,14.3z"/>
		<path class="st6" d="M54.1,23.3C54,23.2,54,23.1,53.9,23c-0.3-0.3-0.7-0.6-1.2-0.4c-1,0.4-0.7,1.7-0.1,2.3c0.8,0.7,2,0,1.8-1
			C54.4,23.7,54.3,23.5,54.1,23.3z"/>
		<path class="st6" d="M51.5,15.3c0-0.1-0.1-0.1-0.1-0.2c-0.1-0.1-0.3-0.2-0.5-0.2s-0.4,0.2-0.5,0.4c0,0.1,0,0.3,0,0.4
			s0.1,0.3,0.2,0.3c0.1,0.2,0.3,0.4,0.6,0.4s0.5-0.2,0.6-0.4C51.9,15.9,51.8,15.6,51.5,15.3C51.6,15.4,51.5,15.4,51.5,15.3z"/>
		
			<ellipse transform="matrix(0.1651 -0.9863 0.9863 0.1651 -35.4924 156.0034)" class="st3" cx="74.4" cy="99" rx="10.9" ry="28.6"/>
		<path class="st3" d="M115.9,29.5c-1.2-0.9-3-0.7-4.6,0.6l-0.1,0.1c-0.3,0.2-1,0.8-1.2,0.8c-0.1,0-0.4-0.4-0.6-0.6
			c-0.3-0.3-0.6-0.7-1-1.1c-1.3-1-2.9-1.3-4.6-0.9c-4.3,0.9-8.8,5.7-10.1,8.2l0,0c-1.2,2.2-0.5,3.6,0,4.2c0.5,0.6,1.2,1,2,1.1
			c0.1,0,0.3,0,0.4,0c0.9,0,1.7-0.3,2.4-0.9c0.6-0.5,1-1,1.4-1.5c0.2-0.3,0.4-0.6,0.7-0.8c0.3-0.3,0.6-0.4,0.7-0.4
			c0.1,0.1,0.2,0.4,0.3,0.6c0.3,0.6,0.7,1.4,1.5,1.9c1.6,1,3.4,0.2,4,0c3-1.3,5.8-3.1,8.2-5.3c0.7-0.6,1.3-1.3,1.6-2.2
			C117.3,31.8,116.9,30.3,115.9,29.5z M113,33.1c-2.2,2-4.6,3.6-7.3,4.8c-0.6,0.3-0.9,0.3-1,0.3h-0.1c-0.1-0.1-0.3-0.4-0.4-0.6
			c-0.3-0.6-0.7-1.4-1.5-1.9c-1.6-0.9-3.4-0.2-4.5,0.9c-0.4,0.4-0.7,0.7-0.9,1.1c-0.3,0.4-0.6,0.7-0.8,1c-0.1,0.1-0.2,0.1-0.3,0.2
			c0-0.1,0.1-0.4,0.3-0.7c1-1.9,4.9-5.9,8-6.6c0.9-0.2,1.5-0.1,2.1,0.3c0.2,0.1,0.4,0.4,0.5,0.6c0.5,0.6,1.1,1.4,2.3,1.6
			c1.7,0.4,3-0.7,3.9-1.4l0.1-0.1c0.3-0.2,0.5-0.3,0.7-0.4C113.7,32.4,113.4,32.8,113,33.1z"/>
		<path class="st5" d="M114.9,30.8c-0.8-0.6-1.9-0.1-2.7,0.6c-0.8,0.6-1.7,1.4-2.6,1.1c-1-0.2-1.4-1.3-2.2-1.9
			c-3.8-3-10.8,3.8-12.3,6.8c-0.4,0.8-0.7,1.8-0.2,2.5c0.6,0.8,1.9,0.6,2.6,0c0.8-0.6,1.2-1.5,1.9-2.2c0.7-0.7,1.8-1.2,2.6-0.7
			c0.9,0.5,1,2,1.9,2.5c0.8,0.5,1.7,0.2,2.5-0.2c2.8-1.2,5.5-2.9,7.8-5c0.5-0.5,1-1,1.2-1.6C115.6,32,115.5,31.2,114.9,30.8z"/>
		<path class="st4" d="M114.9,30.8c-0.8-0.6-1.9-0.1-2.7,0.6c-0.8,0.6-1.7,1.4-2.6,1.1c-0.1,0-0.2-0.1-0.3-0.1c-0.5,0.5-1,1-1.5,1.5
			s-1,1-1.6,1.2c-1.1,0.3-2.3-0.4-3.2-1.2c-0.2-0.2-0.5-0.4-0.8-0.5c-0.3,0-0.6,0.1-0.9,0.2c-2.4,1.2-4.7,2.8-6.7,4.6
			c-0.1,0.5-0.1,1.1,0.2,1.6c0.6,0.8,1.9,0.6,2.6,0c0.8-0.6,1.2-1.5,1.9-2.2c0.7-0.7,1.8-1.2,2.6-0.7c0.9,0.5,1,2,1.9,2.5
			c0.8,0.5,1.7,0.2,2.5-0.2c2.8-1.2,5.5-2.9,7.8-5c0.5-0.5,1-1,1.2-1.6C115.6,32,115.5,31.2,114.9,30.8z"/>
		<path class="st5" d="M106,38.9c-0.7,0.2-1.4,0.4-2,0c-0.5-0.3-0.7-0.9-1-1.5c-0.3-0.5-0.7-1.1-1.2-1.2c-0.4,0-0.7,0.1-1,0.3
			c-1.5,0.9-2.7,2.3-4.2,3.3c-0.3,0.2-0.6,0.4-0.9,0.4c0.6,0.1,1.3-0.1,1.9-0.5c0.8-0.6,1.2-1.5,1.9-2.2c0.7-0.7,1.8-1.2,2.6-0.7
			c0.9,0.5,1,2,1.9,2.5c0.8,0.5,1.7,0.2,2.5-0.2c2.8-1.2,5.5-2.9,7.8-5c0.2-0.2,0.4-0.4,0.7-0.7c-0.6,0.5-1.2,1-1.8,1.5
			C110.8,36.7,108.5,38.1,106,38.9z"/>
		<path class="st6" d="M104.3,31c-0.2,0.1-0.4,0.3-0.5,0.4s-0.1,0.2-0.2,0.3c-0.3,0.4-0.4,0.8-0.1,1.2c0.6,0.8,1.8,0.3,2.2-0.5
			C106.2,31.6,105.2,30.5,104.3,31z"/>
		<path class="st6" d="M97.4,35.5c-0.3,0-0.5,0.1-0.7,0.3v0.1L96.6,36c-0.1,0.2-0.1,0.4-0.1,0.5c0.1,0.2,0.3,0.4,0.5,0.4
			c0.1,0,0.3-0.1,0.4-0.1c0.1-0.1,0.2-0.1,0.3-0.3c0.2-0.2,0.3-0.4,0.2-0.7C97.8,35.7,97.6,35.5,97.4,35.5z"/>
		<path class="st2" d="M84.3,39.5c-3.9-0.8-7.9-1.2-11.8-1.2c-11.2,0-21.7,3.4-29.6,9.9c-1.6,1.3-2.8,3.1-3.5,5.2l-0.1,0.2
			c-0.3,0.8-0.4,1.6-0.5,2.4c-0.3,3.2-0.8,11.5,0.4,20.3c1.7,10.8,5.3,18.5,10.9,22.7c8.2,6.2,21.8,8.3,33.8,5.1
			c8.7-2.3,15-6.9,17.5-12.7c7.9-18.5,9-33.3,7.5-36.4C105.5,48,96,42,84.3,39.5z M96.7,65.3c-6.1,2.5-14.1,3.8-22.6,3.8
			s-16.6-1.3-22.7-3.8c-6.4-2.6-10-6.2-10-10.2c0-8.2,15.2-15.4,32.6-15.4c10.5,0,18.8,3.6,22.8,5.8c4.5,2.4,9.8,6.4,9.8,9.7
			C106.7,59.1,103.1,62.7,96.7,65.3z"/>
		<path class="st1" d="M42.3,57.9c-0.8-2.7-0.5-5.6,0.7-8.1c0.2-0.5,0.5-0.9,0.7-1.3c0.1-0.2,0.2-0.5,0.1-0.7
			c-0.1-0.1-0.3-0.1-0.4-0.1c-5.1-0.4-4.9,8.2-3.3,11.1c1.5,2.7,3.8,5.5,8.3,7C46.1,64.2,43.1,60.5,42.3,57.9z"/>
		<path class="st2" d="M108,58.7c0.1,6.9-2.7,20.7-7.5,34.6c0.4-0.6,0.7-1.2,1-1.9c6.6-15.4,8.5-28.3,8-34
			C109.1,58.5,108.8,57.7,108,58.7z"/>
		<path class="st1" d="M95.7,47.7c-3.8-2-11.7-5.5-21.6-5.5c-17,0-30.1,7-30.1,13c0,5.6,12.1,11.5,30.1,11.5s30.1-5.9,30.1-11.5
			C104.2,54.1,101.7,50.9,95.7,47.7z"/>
		<path class="st7" d="M91.5,48.5c-1.7-0.9-3.5-1.9-5.4-2.4c-4.6-1.2-9.4,0-14.2-0.2c-1.1,0-2.2-0.1-3.2-0.5
			c-1.3-0.5-2.5-1.5-3.2-2.7C52.9,44.5,44,50.1,44,55c0,5.6,12.1,11.5,30.1,11.5c16.4,0,28-4.9,29.9-10c-0.7-0.2-1.4-0.5-2.1-0.8
			C97.7,54.1,95.3,50.5,91.5,48.5z"/>
		<path class="st2" d="M120.6,52.5c-3.5-2.4-8-0.8-10,0.2c0.2,0.4,0.4,0.8,0.6,1.2c0.5,1,0.8,2.6,0.8,4.6c1.6-0.5,3.9-0.8,6,0.5
			c4.3,2.8,4.5,8.5,2.4,12.7c-1.6,3.3-4.7,6-8.7,6c-0.9,0-1.7-0.1-2.7-0.4c-0.5,1.7-1,3.6-1.6,5.4c7.4,2.1,13.1-2.9,15.9-8.4
			C127,67.2,127.3,57.1,120.6,52.5z"/>
		<path class="st1" d="M116.3,55.4c-1.6-0.1-3,0.2-4.5,0.8c0.1,0.7,0.1,1.4,0.2,2.2c1.6-0.5,3.9-0.8,6,0.5c4.3,2.8,4.5,8.5,2.4,12.7
			c-1.6,3.3-4.7,6-8.7,6c-0.9,0-1.7-0.1-2.7-0.4c-0.3,1-0.6,2.1-0.9,3.1c4.3,1.1,9.3-0.5,12-4c1.1-1.4,1.9-3,2.4-4.7
			c1.1-3.2,1.7-6.7,0.8-9.9C122.3,58.6,119.7,55.8,116.3,55.4z"/>
		<path class="st3" d="M121.9,50.5c-4.8-3.3-10.5-1-12.8,0.1c-4.7-6.2-13.7-11.3-24.3-13.5c-7.4-1.6-15.2-1.7-22.4-0.4
			c-8.1,1.5-15.2,4.7-21.1,9.6c-2,1.7-3.5,3.8-4.3,6.3l0.1,0.2c-0.3,0.9-0.5,1.9-0.6,2.9c-0.3,3.3-0.8,11.8,0.4,20.9
			c1.6,11.5,5.6,19.7,11.7,24.4c4.5,3.4,10.4,5.7,17.1,6.6c2.2,0.3,4.4,0.4,6.6,0.4c4.2,0,8.3-0.5,12.3-1.6
			c9.4-2.5,16.4-7.6,19.2-14.1c1.1-2.5,2-4.9,2.8-7.3c1.4,0.4,2.8,0.6,4.2,0.6c2.3,0,4.5-0.6,6.6-1.7c3.3-1.7,6.1-4.7,8.1-8.6
			C129.7,67.4,129.9,55.9,121.9,50.5z M101.5,91.4c-2.5,5.8-8.8,10.4-17.5,12.7c-12.1,3.2-25.7,1.1-33.8-5.1
			c-5.6-4.3-9.2-11.9-10.7-22.8c-1.2-8.8-0.7-17.1-0.4-20.3c0.1-0.8,0.2-1.6,0.5-2.4l0.1-0.2c0.7-2,1.9-3.8,3.5-5.2
			c7.8-6.5,18.3-9.9,29.6-9.9c3.9,0,7.8,0.4,11.8,1.2c11.7,2.5,21.2,8.4,24.6,15.4C110.5,58.1,109.3,72.9,101.5,91.4z M123.3,74.3
			c-2.9,5.6-8.5,10.5-15.9,8.4c0.6-1.8,1.2-3.6,1.6-5.4c0.9,0.3,1.8,0.4,2.7,0.4c4,0,7.1-2.8,8.7-6c2.1-4.2,1.9-10-2.4-12.7
			c-2-1.3-4.4-1-6-0.5c-0.1-2-0.3-3.6-0.8-4.6c-0.2-0.4-0.4-0.8-0.6-1.2c2-1,6.5-2.6,10-0.2C127.3,57.1,127,67.2,123.3,74.3z
			 M109.7,74.9c1.3-5.3,2.1-10,2.3-13.8c1.1-0.4,3.1-1.1,4.7-0.1c3.1,2,3.1,6.3,1.5,9.5C116.8,73.4,113.8,76.2,109.7,74.9z"/>
		<path class="st3" d="M96.8,45.5c-4-2.1-12.3-5.8-22.8-5.8c-17.4,0-32.6,7.2-32.6,15.4c0,3.9,3.5,7.6,10,10.2
			c6.1,2.5,14.1,3.8,22.7,3.8s16.6-1.4,22.7-3.8c6.4-2.6,10-6.2,10-10.2C106.7,51.9,101.4,47.9,96.8,45.5z M74.1,66.6
			c-18,0-30.1-5.9-30.1-11.5c0-6,13.2-13,30.1-13c10,0,17.8,3.4,21.6,5.5c6,3.2,8.5,6.5,8.5,7.5C104.2,60.7,92.1,66.6,74.1,66.6z"/>
		<path class="st3" d="M106.2,83.1c0,0.1-0.1,0.3,0,0.4s0.2,0.1,0.3,0.2c1.1,0.3,2.2,0.5,3.3,0.8c0.4,0.1-0.6-7.9-1.2-8.7
			C107.6,78,107,80.7,106.2,83.1z"/>
		<path class="st3" d="M87.5,46.6c-3.3-0.4-6.7-0.1-9.9,0.1c-2.1,0.1-4.4,0.3-6.5,0.3c-1.5,0-3.5-0.1-5.2-0.9
			c-0.5-0.2-1-0.5-1.4-0.9c-1.1-1.8-1.7-4-1.6-6.1c0-0.4,0.1-0.8,0.1-1.3c0.1-0.8,0.2-1.7,0.1-2.7c-0.1-2-1-3.7-2.4-4.6
			c-1.1-0.7-2.4-0.9-3.9-0.7c-2.3,0.3-4.2,1.5-5.4,2.4c-4.3,3-7.6,7.5-9.2,12.5c-0.9,2.7-1.3,5.3-1.1,7.7c0.2,2.2,0.7,4,1.6,5.3
			c1.4,2.9,5.2,5.6,10.7,7.5c5.7,2,12.9,3.1,20.6,3.1c7.8,0,14.9-1.1,20.7-3.1c5.6-2,9.3-4.7,10.7-7.7l0.5-1.1l-0.8-0.8
			C100.5,50.7,94.1,47.4,87.5,46.6z M74.1,66.6c-16.1,0-27.4-4.7-29.7-9.7c-0.9-1.4-1.2-3.1-1.4-4.6c-0.2-2.4,0.2-4.8,1-7
			c1.6-4.6,4.6-8.7,8.6-11.6c1.4-1,2.9-1.9,4.6-2.1c0.9-0.1,1.9,0,2.7,0.5c1.1,0.7,1.5,2,1.6,3.3s-0.2,2.5-0.3,3.8
			c-0.1,2.6,0.6,5.2,2,7.3c0.6,0.5,1.3,1,2,1.3c1.8,0.8,3.9,1.1,5.9,1.1c5.4,0.1,10.9-1,16.3-0.4c6.3,0.7,12.3,3.8,16.6,8.5
			C101.6,61.9,90.2,66.6,74.1,66.6z"/>
		<path class="st4" d="M87.3,48.4c-5.4-0.6-10.9,0.4-16.3,0.4c-2,0-4.1-0.2-5.9-1.1c-0.7-0.3-1.4-0.8-2-1.3c-1.4-2.1-2.1-4.8-2-7.3
			c0.1-1.3,0.3-2.5,0.3-3.8c-0.1-1.3-0.5-2.6-1.6-3.3c-0.8-0.5-1.8-0.6-2.7-0.5c-1.7,0.2-3.2,1.1-4.6,2.1c-4,2.9-7,7-8.6,11.6
			c-0.8,2.3-1.2,4.6-1,7c0.1,1.5,0.5,3.3,1.4,4.6c2.3,5,13.7,9.7,29.7,9.7c16.2,0,27.6-4.8,29.8-9.8C99.5,52.2,93.6,49.1,87.3,48.4z
			"/>
		<path class="st8" d="M87.3,48.4c-5.4-0.6-10.9,0.4-16.3,0.4c-2,0-4.1-0.2-5.9-1.1c-0.7-0.3-1.4-0.8-2-1.3c-1.4-2.1-2.1-4.8-2-7.3
			c0-0.1,0-0.1,0-0.2c-0.1,0.2-0.1,0.4-0.2,0.6c-1.1,4.1-1.2,8.4-0.5,12.6c0.3,1.7,0.8,3.4,1.9,4.8c0.9,1.1,2.1,1.8,3.3,2.4
			c1.7,0.9,3.4,1.9,5.4,2.2c2.9,0.5,5.9-0.7,8.9-0.3c1.6,0.2,3.1,0.8,4.6,1.2c3.2,0.9,6.7,1.1,10,0.4c1.9-0.4,3.8-1,5.3-2.2
			c1.4-1.1,2.5-2.6,3.5-4c0-0.1,0.1-0.1,0.1-0.2C99.2,52,93.4,49.1,87.3,48.4z"/>
		<path class="st8" d="M72.8,64.5c-1.9,0.2-3.8,0.5-5.6,0.3c-2.4-0.3-4.7-1.4-6.3-3.2c-1-1.1-1.8-2.4-2.8-3.5s-2.3-2.1-3.8-2.2
			c-1.6-0.1-3.1,0.8-4.6,0.4c-1.9-0.5-2.8-2.7-3.2-4.7c-1.1-6.8,1.7-14,6.8-18.6c-0.3,0.2-0.5,0.4-0.8,0.5c-4,2.9-7,7-8.6,11.6
			c-0.8,2.3-1.2,4.6-1,7c0.1,1.5,0.5,3.3,1.4,4.6c2.3,5,13.7,9.7,29.7,9.7c5.3,0,10.1-0.5,14.2-1.4C83.1,64.8,77.9,64.1,72.8,64.5z"
			/>
		<path class="st4" d="M52,59.3c-1.1-0.3-2.2-0.5-3.2-0.9c-2.5-1-4.1-3.5-4.8-6.1c-0.5-1.9-0.5-3.9-0.4-5.8
			c-0.5,1.9-0.8,3.9-0.7,5.9c0.1,1.5,0.5,3.3,1.4,4.6c1.7,3.6,8.1,7.1,17.8,8.7c-0.7-0.4-1.3-0.8-1.9-1.3
			C57.6,62.5,55.1,60.2,52,59.3z"/>
		<path class="st3" d="M58.8,52.6c-3.9-1.7-13.1,0.1-11.8,6.1c0.5,2.1,2.6,3.6,4.7,3.6c2-0.1,3.8-1.3,5.7-1.7c1.7-0.3,3.4,0,5,0.5
			c0.6,0.2,1.4,0.3,1.7-0.2c0.2-0.3,0.2-0.6,0.1-1C63.8,56.8,61.6,53.9,58.8,52.6z"/>
		<path class="st2" d="M92.7,78.2c-1.1-0.3-2.2-0.4-3.3-0.1c-0.7,0.2-1.4,0.6-1.8,1.2c-0.4,0.5-0.1,1.2,0.5,1.3c0.1,0,0.3,0,0.4,0
			c-2,1.2-4.2,2-6.4,2.9c-3.5,1.4-7,2.7-10.7,3.3c-2.7,0.4-5.4,0.3-8.1,0.2c-4.3-0.1-8.9-0.3-12.6-2.4c0.4,0.6,0.6,0.9,1.3,1.2
			c1.4,0.6,2.7,1.1,4.1,1.6c1.4,0.5,2.8,1.1,4.3,1.4c1.8,0.4,3.6,0.4,5.4,0.4c2-0.1,4-0.3,5.9-0.6c2.5-0.4,4.9-1.1,7.3-1.8
			c3.3-0.9,6.6-2,9.4-3.8c1.7-1.1,3.4-2.6,5.5-2.5c0.4,0,0.9,0,1.1-0.3c0-0.1,0-0.2,0-0.3C94.8,79,93.7,78.5,92.7,78.2z"/>
		<path class="st2" d="M72.5,97.6c-2.2,0.4-4.5,0.7-6.6,0.3c-2.5-0.5-4.7-1.9-6.9-3.2h-0.2c1.5,1.5,0.5,4,1.6,5.8
			c0.8,1.3,2.5,1.8,4.1,2.1c4.6,0.8,9.7,0.7,13.9-1.3c2.5-1.2,5.8-3.8,7.6-5.9c1.8-2.1,2.3-4.6,3.2-7.4
			C84.8,92.5,78.8,96.4,72.5,97.6z"/>
		<path class="st3" d="M91.3,80.5c-1.1,0.4-2.7,1.1-4.5,1.9c-1.9,0.8-4.1,1.8-6.7,2.7c-1.3,0.5-2.6,0.9-4,1.4
			c-1.4,0.4-2.9,0.8-4.4,1.1c-3,0.6-5.9,0.8-8.6,0.6c-1.3-0.1-2.5-0.3-3.7-0.5c-0.6-0.1-1.1-0.3-1.6-0.4c-0.3-0.1-0.5-0.1-0.8-0.2
			s-0.5-0.2-0.7-0.3c-1.9-0.7-3.4-1.4-4.4-1.9c-0.3-0.1-0.5-0.2-0.7-0.3s-0.4-0.2-0.5-0.2c-0.3-0.1-0.5-0.1-0.5-0.1
			c-0.1,0.1,0,0.2,0.2,0.5c0.1,0.1,0.2,0.3,0.4,0.4c0.1,0.2,0.3,0.4,0.5,0.5c0.9,0.8,2.3,1.8,4.2,2.7c0.3,0.1,0.5,0.2,0.8,0.4
			c0.3,0.1,0.5,0.2,0.8,0.3c0.5,0.2,1.2,0.4,1.8,0.6c1.2,0.3,2.6,0.7,4.1,0.8c2.9,0.4,6.2,0.2,9.4-0.4c1.6-0.3,3.2-0.8,4.7-1.2
			s2.9-1,4.1-1.6c2.6-1.1,4.8-2.3,6.6-3.3c1.8-1.1,3.2-2,4.1-2.7s1.4-1.1,1.3-1.3C93.1,79.9,92.4,80.1,91.3,80.5z"/>
		<path class="st3" d="M93.7,79.2c-0.4-0.1-0.9-0.3-1.4-0.3s-1,0-1.4,0.2c-0.4,0.1-0.8,0.3-1,0.5c-0.5,0.4-0.7,0.9-0.5,1.2
			c0.2,0.3,0.6,0.5,1.1,0.6s1.1,0.1,1.7,0.2c0.6,0,1.2,0,1.7,0c0.5-0.1,0.9-0.2,1.2-0.5c0.2-0.3,0.1-0.8-0.4-1.2
			C94.5,79.5,94.1,79.3,93.7,79.2z"/>
		<path class="st3" d="M51.2,82.9c-0.5-0.1-1.3-0.1-2,0.3s-1.2,0.9-1.3,1.4s0,0.9,0.3,1.1s0.7,0.2,1.2,0.2s0.8-0.2,1.2-0.4
			c0.4-0.2,0.7-0.4,1-0.7c0.3-0.3,0.5-0.6,0.5-1C52,83.4,51.7,83,51.2,82.9z"/>
		<path class="st3" d="M53.5,86.5c2.5,2.6,5.3,5.3,6,8.7c0.2,1.2,0.2,2.4,0.8,3.6c1.3,2.5,5,3.4,8.2,3.3c2.5,0,5-0.4,7.3-1.3
			c2.4-0.9,4.5-2.2,6.4-3.7c5-3.8,8-10,8.5-15.7C68.8,92.9,53.5,86.5,53.5,86.5z"/>
		<path class="st9" d="M80.9,90.9c-0.6-0.2-1.3,0-1.8,0.3c-1.3,0.7-2.4,1.7-3,3c-0.5-1.3-2.4-1.8-3.9-1.3s-2.5,1.7-3.2,2.9
			c-0.8,1.2-1.5,2.7-1.7,4.1c1.9,0.5,5.7-1,7.4-1.6c2.4-0.9,4.7-2.2,6.2-4.1c0.4-0.5,0.7-1.1,0.8-1.7S81.5,91.1,80.9,90.9z"/>
		<path class="st10" d="M80.9,90.9c-0.5-0.2-1.1-0.1-1.5,0.1c0,0,0.1,0,0.1,0.1c0.4,0.3,0.3,0.8,0.2,1.3c-0.3,1.1-0.8,2.1-1.6,2.8
			c-0.6,0.5-1.4,0.9-2.1,1.2c-2.7,1.1-5.5,1.9-8.4,2.2c-0.1,0.4-0.2,0.8-0.3,1.2c1.9,0.5,5.7-1,7.4-1.6c2.4-0.9,4.7-2.2,6.2-4.1
			c0.4-0.5,0.7-1.1,0.8-1.7C81.8,91.8,81.5,91.1,80.9,90.9z"/>
		<path class="st10" d="M74.7,92.9c-0.2,1.1-0.1,2.3,0.3,3.4c0.3-0.8,0.7-1.5,1.1-2.2C75.8,93.5,75.3,93.1,74.7,92.9z"/>
		<path class="st2" d="M59.6,90.3c0,0,3.1,2.6,12.4,1.9c0.4,0,0.7-0.1,1.1-0.2c1.8-0.5,7.3-2.1,12.6-6.4
			C85.7,85.6,73.4,91,59.6,90.3z"/>
		<path class="st11" d="M59.6,90.3c0,0,0.4,0.4,1.4,0.8c1,0.2,2.1,0.2,3.2,0.2c2.6,0,5.2-0.1,7.8-0.5c1.3-0.2,2.6-0.6,3.8-0.9
			c0.8-0.2,1.6-0.4,2.4-0.7c-0.2,0.5-0.5,1-0.8,1.5c2.4-1,5.4-2.6,8.3-4.9C85.7,85.6,73.4,91,59.6,90.3z"/>
		<path class="st12" d="M72,93.7C72,93.7,71.9,93.7,72,93.7c-0.2-0.1-0.3-0.1-0.3-0.1c-0.1,0-0.1,0-0.1,0c-0.1,0-0.1,0.1-0.2,0.1
			c0,0,0,0-0.1,0.1c0,0,0,0-0.1,0.1c0,0,0,0.1-0.1,0.1c0,0.1,0,0.1,0,0.2v0.1c0,0.1,0.1,0.1,0.1,0.2l0,0c0.1,0.1,0.2,0.1,0.3,0.1
			h0.1l0,0l0,0c0,0,0,0,0.1,0s0.3-0.1,0.4-0.2s0.1-0.1,0.1-0.2c0,0,0-0.1,0-0.2C72.3,94.1,72.2,93.8,72,93.7z"/>
		<path class="st3" d="M75.6,54.2c-2.8,1.2-4.7,3.7-5,6.5c0,0.3,0,0.6,0.1,0.9c0.4,0.4,1.1,0.3,1.7,0.1c1.6-0.4,3.2-0.8,4.8-0.5
			c1.9,0.3,3.7,1.4,5.7,1.4c2.1,0,4.1-1.4,4.4-3.3C88.4,53.9,79.4,52.5,75.6,54.2z"/>
		<path class="st3" d="M110.7,64.3c-1.1-0.3-2.3,0-3.3,0.6L89.7,75.3l0.8,3.7l18.9-11l1.2,0.8c0.6,0.4,1.3-0.1,1.3-0.8l-0.1-2.2
			C111.8,65.1,111.4,64.5,110.7,64.3z"/>
		<path class="st3" d="M94.9,72.8c-9.6-3.6-20.5-3.4-25.7-3l0,0c-1,0.1-1.8,0.1-2.4,0.2c-0.1,0-0.3,0-0.4,0.1
			c-1.9,0.1-6-0.7-6.2-0.8c-2.7-1.1-13.1-4.7-22.9-2.5c-0.5,0.1-0.8,0.5-0.8,1l0.1,1.7c0,0.4,0.3,0.7,0.6,1c0.3,0.2,0.4,0.4,0.4,0.7
			c0,2.3,0.5,12.8,7.5,15.1c7.6,2.5,15.9-0.5,15.5-8.3v-1.5c0.5-1.4,1.1-2.8,2.7-2.2c2.2,0.8,2.2,4.2,2.2,4.2
			c-0.3,8.5,9.5,12.3,19,11.3c8.5-0.9,9.5-10.7,9.6-12.9c0-0.3,0.2-0.5,0.5-0.6c0.4-0.1,0.7-0.4,0.8-0.8l0.2-1.6
			C95.8,73.5,95.5,73.1,94.9,72.8z M55.1,84.7c0,0-14.6,5-15.5-13.7c0-0.7,0.2-1.3,0.7-1.6c2-0.9,7.4-2.5,16.3,1.1
			c1,0.4,1.8,1.5,1.9,2.8C58.7,76.8,58.7,83.7,55.1,84.7z M72.9,86.4C68,84.7,67.8,78,68,74.5c0.1-1.2,1-2.2,2.4-2.4
			c11.4-1.9,18.4,0.7,20.9,2c0.7,0.3,1,1,0.9,1.7C91.7,93.5,72.9,86.4,72.9,86.4z"/>
		<path class="st13" d="M91.2,74.1c-2.5-1.3-9.5-3.8-20.9-2c-1.3,0.2-2.3,1.2-2.4,2.4C67.7,78,68,84.7,72.8,86.4
			c0,0,18.8,7,19.3-10.7C92.1,75.1,91.8,74.4,91.2,74.1z"/>
		<path class="st5" d="M72.5,85.4c-1.3-0.4-2.2-1.2-2.9-2.2c-0.1,0-0.2,0-0.2,0c0.8,1.4,1.9,2.6,3.6,3.2c0,0,18.8,7,19.3-10.7
			c0-0.4-0.1-0.8-0.3-1.1C91.3,92.5,72.5,85.4,72.5,85.4z"/>
		<path class="st13" d="M56.6,70.5c-8.9-3.6-14.3-2-16.3-1.1c-0.5,0.3-0.8,0.9-0.7,1.6c1,18.7,15.5,13.7,15.5,13.7
			c3.6-1.1,3.6-7.9,3.4-11.5C58.4,72,57.6,70.9,56.6,70.5z"/>
		<path class="st5" d="M55.3,83.7c-3,0.8-4.2,1.2-8,0.6c-0.9-0.1-4.2-2.6-5-3.2c4.3,6.6,12.8,3.7,12.8,3.7c3.1-0.9,3.5-6,3.4-9.7
			C58.2,76.5,57.6,83.1,55.3,83.7z"/>
		<path class="st2" d="M94.4,73.6l-0.8-0.1c-0.3,0-0.5,0.1-0.5,0.4v0.2c0,0.2,0.1,0.5,0.4,0.5l0.8,0.1c0.3,0,0.5-0.1,0.5-0.4v-0.2
			C94.9,73.8,94.7,73.6,94.4,73.6z"/>
		<path class="st2" d="M38.4,68.2c0-0.3-0.1-0.5-0.3-0.5h-0.4c-0.1,0-0.3,0.2-0.2,0.4v0.2c0,0.3,0.1,0.5,0.3,0.5h0.4
			c0.1,0,0.3-0.2,0.2-0.4V68.2z"/>
		<path class="st5" d="M72.6,73.2c-1.2,0-2.6,0.2-3,1.2l-0.1,0.1c-0.1,2.2,0.2,4.3,0.9,6.4c0.6,0,1.2-0.3,1.6-0.6
			c3.5-2.3,7.3-4.4,11.3-6.3C79.7,73.4,76.2,73.1,72.6,73.2z"/>
		<path class="st5" d="M43.3,69.3c-1.2,0-2.7,0.2-3,1.3l-0.1,0.1c0.2,2.3,0.7,4.5,1.7,6.7c0.7,0,1.2-0.3,1.6-0.6
			c3.4-2.4,7.1-4.6,11.1-6.6C50.9,69.5,47.1,69.2,43.3,69.3z"/>
		<path class="st5" d="M90.1,50.7c-1.9-0.9-7.9,0.9-5,3.1c1.7,1.3,3.9,2.1,6,2.7c0.7,0.2,1.4,0.3,2.1,0.1
			C97.3,55.7,91.6,51.4,90.1,50.7z"/>
		<path class="st4" d="M53.9,36.7c-0.7,1.1-1.1,2.3-1.4,3.6c-0.1,0.4-0.1,0.8,0,1.2c0.6,2.4,3-1.1,3.3-2
			C56.3,38.4,55.1,35,53.9,36.7z"/>
		<path class="st4" d="M58.8,35.5L58.8,35.5c-0.4-0.4-0.8-0.3-1.1-0.1c-0.4,0.1-0.7,0.5-0.7,1v0.1c0,0.1-0.1,0.2-0.1,0.4
			s-0.1,0.4-0.1,0.6c0,0.4,0.2,0.7,0.5,1.1c0.1,0.1,0.4,0.2,0.5,0.1c0.3-0.1,0.5-0.3,0.7-0.4h0.1c0.5-0.3,0.8-1,0.8-1.5
			C59.3,36.2,59.2,35.7,58.8,35.5z"/>
		<path class="st5" d="M89.4,57.3c-0.4-0.5-1.3-0.9-1.7-0.2c-0.2,0.4-0.1,0.8,0.2,1.1c0,0.1,0.1,0.1,0.2,0.2
			c0.1,0.1,0.3,0.2,0.4,0.3c0.3,0.1,0.7,0.2,1-0.1c0.1-0.1,0.2-0.2,0.2-0.3v-0.1c0,0,0-0.1,0.1-0.1C89.8,57.7,89.6,57.4,89.4,57.3z"
			/>
	</g>
</g>
</svg>
